<?xml version="1.0" encoding="UTF-8"?>
<svg width="14px" height="14px" viewBox="0 0 14 14" version="1.1" xmlns="http://www.w3.org/2000/svg" xmlns:xlink="http://www.w3.org/1999/xlink">
    <defs></defs>
    <g id="Atendimento-Card" stroke="none" stroke-width="1" fill="none" fill-rule="evenodd">
        <g id="Request-Board" transform="translate(-429.000000, -88.000000)" fill-rule="nonzero" fill="#6C7077">
            <g id="Group" transform="translate(74.000000, 69.000000)">
                <g id="Col-1">
                    <g id="col-header" transform="translate(10.000000, 17.000000)">
                        <g id="ic-col-conf" transform="translate(345.000000, 2.000000)">
                            <path class="colorizable" d="M6.99952621,13.9968756 C6.901115,13.9968756 6.80270379,14 6.70273049,13.9968756 C6.37313104,13.9859403 6.18568111,13.8453438 6.0685249,13.5407179 C5.94043412,13.2095348 5.79828459,12.8830383 5.67488005,12.5502931 C5.48586804,12.0347723 4.41115512,11.6364153 3.9237853,11.8723051 C3.62386542,12.0175883 3.31613512,12.1472496 3.01309107,12.2847218 C2.7209816,12.4175074 2.51634876,12.3831394 2.28984676,12.1613092 C2.1320764,12.006653 1.97743021,11.8504346 1.82278402,11.6942161 C1.62439951,11.4911322 1.58847161,11.2677399 1.6978174,11.0052929 C1.85558776,10.6288065 2.03522727,10.2585689 2.15550765,9.86958502 C2.30546759,9.38062137 1.92900565,8.54953939 1.46975332,8.32927142 C1.15108845,8.17461518 0.810554408,8.06213792 0.477830785,7.935601 C0.131048418,7.80437753 0.00920596423,7.64034819 0.00295763328,7.27479709 C-0.00016653219,7.08421062 -0.00172861493,6.89518634 0.00295763328,6.70459987 C0.0123301297,6.35467061 0.140420914,6.19376564 0.47470662,6.06410435 C0.813678574,5.93288088 1.16046094,5.81571707 1.4806879,5.64543899 C2.02273061,5.35643492 2.33046091,4.50192017 2.11489349,3.92703639 C1.99773729,3.61616174 1.84621526,3.31778456 1.71031407,3.01315864 C1.5806612,2.72571675 1.6165891,2.51169752 1.83684277,2.28830518 C1.98680271,2.13677332 2.13676265,1.98680363 2.28828468,1.83683395 C2.51166251,1.61656598 2.72722993,1.58376012 3.01309107,1.70561048 C3.38174259,1.8618289 3.74570787,2.03679353 4.12685606,2.15395734 C4.61578796,2.30392702 5.44212972,1.930565 5.66706964,1.46815849 C5.82483999,1.14166199 5.94043412,0.796419287 6.07008698,0.455863135 C6.18880527,0.144988483 6.36532062,0.0106406431 6.70116841,0.00282972215 C6.91361166,-0.0018568304 7.12605491,-0.000294646213 7.33849817,0.00439190634 C7.61967306,0.00907845888 7.80712299,0.148112851 7.90709628,0.412121978 C8.03518707,0.743305025 8.17889868,1.06980152 8.29761697,1.40410893 C8.50224981,1.97899271 9.61913896,2.37734968 10.1346263,2.10084308 C10.4079907,1.95399777 10.6985381,1.83995832 10.9812751,1.71029703 C11.2655742,1.58063575 11.4842658,1.61656598 11.7060815,1.83683395 C11.8622898,1.99149019 12.0200601,2.14614642 12.1731442,2.30392702 C12.376215,2.5132597 12.4090187,2.72259238 12.2965488,2.98972588 C12.1419026,3.35840135 11.9638252,3.72239026 11.8451069,4.1035632 C11.6951469,4.58471593 12.0106876,5.36580802 12.4543191,5.60794657 C12.7839186,5.78759775 13.1431976,5.91725904 13.4962283,6.05316906 C13.8601936,6.19376564 13.9914085,6.36091935 13.9976569,6.74677884 C14.000781,6.92174347 14.000781,7.0967081 13.9976569,7.27167272 C13.9898465,7.62628853 13.8508211,7.80906408 13.5180975,7.93716319 C13.1791255,8.06838666 12.8323432,8.1824261 12.5121162,8.35270418 C11.9778839,8.63545952 11.6639053,9.47903897 11.8685381,10.0492362 C11.9778839,10.3554243 12.130968,10.6459906 12.2668692,10.9412434 C12.4199533,11.2724264 12.3855875,11.4801969 12.1262818,11.7410817 C11.9872564,11.8816782 11.848231,12.0222748 11.7076436,12.159747 C11.4842658,12.3784528 11.2671363,12.4112587 10.9812751,12.2894083 C10.6266823,12.1378765 10.2783379,11.964474 9.91124844,11.8504346 C9.36920573,11.6817187 8.55223645,12.0535185 8.3038653,12.5659149 C8.17265035,12.837735 8.07580122,13.126739 7.97270376,13.4110566 C7.79618841,13.8968958 7.65716305,13.9984378 7.13230325,14 L6.99483997,14 C6.99952621,13.9984378 6.99952621,13.9984378 6.99952621,13.9968756 Z M3.50670921,6.99360394 C3.4988988,8.91196612 5.04692279,10.4835234 6.95734998,10.4913343 C8.91463965,10.5007074 10.4860949,8.96351819 10.4954674,7.03109636 C10.5048399,5.08617705 8.97087463,3.51305758 7.05419911,3.50212229 C5.0641057,3.49274919 3.51451963,5.01744095 3.50670921,6.99360394 Z" id="Shape"></path>
                            <path class="colorizable" d="M7.00085203,9.13030991 C5.85547724,9.14296237 4.89203353,8.1924469 4.8698854,7.02842131 C4.84931928,5.86597727 5.82225504,4.87592289 6.99452399,4.86959667 C8.14939083,4.86327044 9.11599856,5.81220435 9.13023664,6.96515905 C9.14605674,8.16872355 8.21267121,9.11765746 7.00085203,9.13030991 Z" id="Shape"></path>
                        </g>
                    </g>
                </g>
            </g>
        </g>
    </g>
</svg>