<?xml version="1.0" standalone="no"?>
<!DOCTYPE svg PUBLIC "-//W3C//DTD SVG 20010904//EN"
 "http://www.w3.org/TR/2001/REC-SVG-20010904/DTD/svg10.dtd">
<svg version="1.0" xmlns="http://www.w3.org/2000/svg"
 width="248.000000pt" height="248.000000pt" viewBox="0 0 248.000000 248.000000"
 preserveAspectRatio="xMidYMid meet">
<metadata>
Created by potrace 1.11, written by Peter Selinger 2001-2013
</metadata>
<g transform="translate(0.000000,248.000000) scale(0.100000,-0.100000)"
fill="#000000" stroke="none">
<path d="M2409 2312 c-92 -78 -151 -126 -169 -139 -14 -10 -16 -56 -19 -435
-4 -509 -8 -909 -10 -923 -1 -5 -22 13 -48 40 -25 28 -78 84 -117 126 -70 75
-247 266 -296 319 -23 25 -207 222 -275 296 -16 17 -75 81 -130 140 -197 215
-260 263 -391 293 -59 14 -188 21 -204 11 -7 -4 -10 -48 -8 -121 l3 -114 47
-1 c152 -3 261 -103 287 -264 7 -40 10 -171 8 -335 -3 -253 -5 -274 -27 -330
-15 -42 -38 -75 -74 -110 -73 -72 -116 -83 -326 -80 -188 2 -230 14 -294 85
-19 21 -36 36 -39 34 -6 -6 -34 72 -47 129 -15 68 -10 578 6 640 25 94 93 180
170 212 20 8 62 16 95 18 32 2 62 6 65 10 6 6 8 113 5 213 -1 20 -6 21 -84 18
-162 -6 -273 -50 -373 -149 -73 -74 -116 -146 -143 -244 -19 -67 -20 -102 -20
-400 0 -253 3 -341 14 -391 44 -188 180 -337 360 -392 63 -20 93 -22 300 -22
222 0 324 11 310 34 -3 4 3 7 12 5 10 -1 35 6 55 17 l38 18 0 -210 c0 -115 2
-210 5 -210 3 0 62 45 130 101 l125 101 0 147 c0 189 11 845 14 849 2 1 43
-44 92 -100 49 -57 93 -108 99 -114 5 -6 35 -39 65 -74 30 -35 60 -68 65 -74
6 -6 33 -38 60 -71 28 -33 52 -62 55 -65 3 -3 37 -43 75 -90 38 -47 75 -89 81
-95 5 -5 30 -35 55 -65 24 -30 46 -57 49 -60 3 -3 38 -45 78 -93 50 -59 78
-85 85 -79 24 18 112 87 117 92 3 3 27 23 55 45 27 22 58 48 67 58 17 16 18
72 18 932 0 503 -3 915 -7 915 -5 -1 -33 -22 -64 -48z m-2036 -1579 c20 -29
33 -53 29 -53 -7 0 -21 19 -56 80 -27 48 -15 36 27 -27z m110 -132 c-2 -3 -20
12 -41 34 l-37 39 41 -35 c22 -19 39 -36 37 -38z m32 -21 c3 -6 -1 -7 -9 -4
-18 7 -21 14 -7 14 6 0 13 -4 16 -10z m122 -66 c32 -13 51 -24 43 -24 -21 0
-136 55 -145 70 -4 7 4 4 19 -5 14 -9 52 -28 83 -41z m98 -34 c8 -13 -5 -13
-25 0 -13 8 -13 10 2 10 9 0 20 -4 23 -10z m35 -10 c0 -5 -2 -10 -4 -10 -3 0
-8 5 -11 10 -3 6 -1 10 4 10 6 0 11 -4 11 -10z m180 6 c0 -2 -9 -6 -20 -9 -11
-3 -18 -1 -14 4 5 9 34 13 34 5z m-72 -13 c-16 -2 -40 -2 -55 0 -16 2 -3 4 27
4 30 0 43 -2 28 -4z"/>
</g>
</svg>
