<?xml version="1.0" encoding="UTF-8"?>
<svg width="25px" height="23px" viewBox="0 0 25 23" version="1.1" xmlns="http://www.w3.org/2000/svg" xmlns:xlink="http://www.w3.org/1999/xlink">
    <defs></defs>
    <g id="Atendimento-Card" stroke="none" stroke-width="1" fill="none" fill-rule="evenodd">
        <g id="Left-Menu" transform="translate(-71.000000, -241.000000)">
            <g id="ic-cash-check" transform="translate(71.000000, 241.000000)">
                <path d="M9.95954832,10.6654458 C9.95954832,10.2449216 9.5874228,9.90532851 9.12905359,9.90532851 L5.42696363,9.90532851 C4.96859442,9.90532851 4.5964689,10.2465085 4.5964689,10.6654458 C4.5964689,11.0843832 4.96699732,11.4255632 5.42696363,11.4255632 L9.12905359,11.4255632 C9.5874228,11.4255632 9.95954832,11.0843832 9.95954832,10.6654458 Z M1.45370342,19.32 L1.45370342,2.3 C1.45370342,1.66524649 1.68395824,1.45358765 2.31481481,1.45358765 L15.7407407,1.45358765 C16.3715973,1.45358765 16.6666667,1.66524649 16.6666667,2.3 L16.6666667,8.74 C17.5925926,8.28 18.0555556,8.74 18.3874727,8.74 L18.3874727,1.14731697 C18.3874727,0.518910994 17.8700106,0.00793441887 17.2279743,0.00793441887 L1.15949841,0.00793441887 C0.52065631,0.00793441887 0,0.518910994 0,1.14731697 L0,20.1835747 C0,20.8119807 0.519059205,21.3229573 1.15949841,21.3229573 L11.0104436,21.3229573 C10.4626365,20.7691348 10.0799738,20.6254322 9.72222222,19.9272034 L2.31481481,19.9272034 C1.68395824,19.9256165 1.45370342,19.9563404 1.45370342,19.32 Z M8.37362281,13.7106758 L5.417381,13.7106758 C4.96380311,13.7106758 4.5964689,14.0518558 4.5964689,14.4707931 C4.5964689,14.8929042 4.96380311,15.2324973 5.417381,15.2324973 L8.37362281,15.2324973 C8.8272007,15.2324973 9.19453491,14.8913173 9.19453491,14.4707931 C9.1929378,14.0502689 8.82560359,13.7106758 8.37362281,13.7106758 Z M14.172712,6.47924645 C14.172712,6.05872225 13.8053778,5.71754223 13.3470085,5.71754223 L5.42376942,5.71754223 C4.96699732,5.71754223 4.59806601,6.05872225 4.59806601,6.47924645 C4.59806601,6.89977065 4.96699732,7.23936377 5.42376942,7.23936377 L13.3486057,7.23936377 C13.8053778,7.23936377 14.172712,6.89818376 14.172712,6.47924645 Z" id="Shape" fill="#6C7077" fill-rule="nonzero"></path>
                <polygon id="Color" fill="#4D76C8" points="15.2019876 13.6411253 13.8888889 14.8822752 16.2711226 17.133347 16.2442148 17.1588501 17.5555197 18.4 17.5824274 18.3744969 17.6093352 18.4 18.9224339 17.1588501 18.8955261 17.133347 25 11.3611499 23.6869013 10.12 17.5842213 15.8921971"></polygon>
                <path d="M22.090202,17.2583775 C21.751231,19.4334768 19.8761864,21.1021192 17.5925926,21.1021192 C15.068151,21.1021192 13.0218369,19.0674062 13.0218369,16.56 C13.0218369,14.0525938 15.068151,12.0178808 17.5925926,12.0178808 C18.5541997,12.0178808 19.4444444,12.3164238 20.1812603,12.8211038 L21.5317919,11.4794371 C20.4381646,10.6388962 19.0822807,10.12 17.5925926,10.12 C14.0119889,10.12 11.1111111,13.002362 11.1111111,16.56 C11.1111111,20.1158609 14.0119889,23 17.5925926,23 C21.1714123,23 24.0740741,20.1158609 24.0740741,16.56 C24.0740741,16.1637196 24.0259045,15.7798786 23.9581103,15.4031457 L22.090202,17.2583775 Z" id="Color" fill="#4D76C8"></path>
            </g>
        </g>
    </g>
</svg>