<?xml version="1.0" encoding="UTF-8"?>
<svg width="25px" height="22px" viewBox="0 0 25 22" version="1.1" xmlns="http://www.w3.org/2000/svg" xmlns:xlink="http://www.w3.org/1999/xlink">
    <defs></defs>
    <g id="Atendimento-Card" stroke="none" stroke-width="1" fill="none" fill-rule="evenodd">
        <g id="Left-Menu" transform="translate(-71.000000, -433.000000)">
            <g id="ic-chart" transform="translate(71.000000, 433.000000)">
                <path d="M11.1255622,8.18304866 L15.7876104,13.1555972 C16.0514733,12.797 16.3703664,12.4848094 16.7315905,12.237307 L11.876231,7.06225647 C11.6884438,7.4742619 11.4349385,7.85323499 11.1255622,8.18445492 L11.1255622,8.18304866 Z M8.79594916,8.29133098 L4.13954514,14.2060762 C4.51770159,14.5717048 4.75334386,15.0962412 4.75334386,15.6812469 C4.75334386,16.7809451 3.91519114,17.6725164 2.87667192,17.6725163 C1.84097478,17.6725163 1,16.7809451 1,15.6812469 C1,14.5829549 1.84097478,13.6913837 2.87243882,13.6885712 L8.14969672,6.98491197 C8.14010928,6.89946522 8.13539826,6.81354482 8.13558641,6.7275657 C8.13558641,5.57021065 9.02030318,4.63082647 10.1110305,4.63082647 C11.2017579,4.63082647 12.0836526,5.57021065 12.0836526,6.72615943 C12.0836526,7.88492074 11.1989358,8.82430492 10.1096195,8.82430492 C9.60447024,8.82430492 9.14447395,8.6232092 8.79594916,8.29133098 L8.79594916,8.29133098 Z M18.8283833,12.2865262 C18.7568063,12.2438756 18.683865,12.2035417 18.6096734,12.1655876 C19.0710807,12.5930917 19.3631642,13.2230979 19.3631642,13.9234172 C19.3631642,15.2101486 18.3782642,16.2535962 17.1675992,16.2535962 C15.9583452,16.2535962 14.9734452,15.2101485 14.9734452,13.9234172 C14.9734452,12.6366859 15.9583452,11.5932382 17.1675992,11.5932382 C17.3468002,11.5932382 17.5203571,11.6157384 17.6868588,11.6579263 L20.7671406,4.30316702 C20.3441009,3.91557059 20.1043916,3.36834816 20.1067778,2.7956523 C20.1067778,1.70439165 20.9435195,0.818445485 21.9693394,0.818445485 C22.9993925,0.818445485 23.8319011,1.70439165 23.8319011,2.7956523 C23.8319011,3.88691296 22.9993925,4.77145286 21.9735725,4.77285912 L18.8283833,12.2865262 Z M22.037069,20.454106 C22.7425847,20.454106 23.3196966,19.8437875 23.3239297,19.0900302 L23.3239297,6.07787185 C23.783926,5.99912108 24.2157016,5.83036942 24.6065574,5.58989834 L24.6065574,19.7720681 C24.6065574,20.9041104 23.7430061,21.8181818 22.6804993,21.8181818 L3.4213301,21.8181818 C2.35882336,21.8181818 1.49527208,20.9041104 1.49527206,19.7720681 C1.96796761,19.7720681 2.42231977,19.6820672 2.84139613,19.5161281 C3.00930887,20.0603522 3.49188167,20.454106 4.06193841,20.454106 L22.037069,20.454106 Z M2.77789972,2.72815165 L2.77789972,11.8196467 C2.36779807,11.6662 1.93332363,11.5876015 1.49527206,11.5876132 L1.49527206,2.04611374 C1.49527206,0.914071435 2.35882334,0 3.4213301,0 L19.3434098,0 C19.1141675,0.425784892 18.9582018,0.886872413 18.8820025,1.36407582 L4.06193841,1.36407582 C3.35501162,1.36407582 2.77789972,1.97439429 2.77789972,2.72815165 Z" id="Shape" fill="#6C7077" fill-rule="nonzero"></path>
                <path d="M11.4110727,6.79582712 L12.0044358,7.41325204 C12.0044358,7.41325204 12.2356525,8.42937287 11.4277872,8.70070757 C10.618529,8.97204229 10.6575294,7.53784451 10.6575294,7.53784451 L11.4110727,6.79582712 Z M16.2680146,11.9428806 L15.0255735,11.9581085 L15.3138978,12.8399463 L15.6050079,13.5916542 L17.09538,12.6156799 L16.9477357,11.9885645 L16.2680146,11.9428806 Z" id="Shape" fill="#6C7077" fill-rule="nonzero"></path>
                <circle id="Color" fill="#4D76C8" cx="10.5" cy="6.5" r="2.5"></circle>
                <circle id="Color" fill="#4D76C8" cx="17.5" cy="13.5" r="2.5"></circle>
                <circle id="Color" fill="#4D76C8" cx="22.5" cy="2.5" r="2.5"></circle>
                <circle id="Color" fill="#4D76C8" cx="2.5" cy="15.5" r="2.5"></circle>
            </g>
        </g>
    </g>
</svg>