<?xml version="1.0" encoding="UTF-8"?>
<svg width="24px" height="24px" viewBox="0 0 24 24" version="1.1" xmlns="http://www.w3.org/2000/svg" xmlns:xlink="http://www.w3.org/1999/xlink">
    <defs></defs>
    <g id="Atendimento-Card" stroke="none" stroke-width="1" fill="none" fill-rule="evenodd">
        <g id="Left-Menu" transform="translate(-72.000000, -84.000000)">
            <g id="ic-dashboard" transform="translate(72.000000, 84.000000)">
                <path class="fill" d="M23.3207547,0 L0.679245283,0 C0.305660377,0 0,0.332458726 0,0.73879717 L0,19.4549921 C0,19.8613306 0.305660377,20.1937893 0.679245283,20.1937893 L9.73584906,20.1937893 L9.73584906,21.9176494 L7.01886792,21.9176494 C6.64528302,21.9176494 6.33962264,22.2501081 6.33962264,22.6564465 L6.33962264,23.6415094 L17.6603774,23.6415094 L17.6603774,22.6564465 C17.6603774,22.2501081 17.354717,21.9176494 16.9811321,21.9176494 L14.2641509,21.9176494 L14.2641509,20.1937893 L23.3207547,20.1937893 C23.6943396,20.1937893 24,19.8613306 24,19.4549921 L24,0.73879717 C24,0.332458726 23.6943396,0 23.3207547,0 Z M22.4181318,18.8490566 L1.59360352,18.8490566 L1.59360352,2 L22.4181318,2 L22.4181318,18.8490566 Z" id="Shape" fill="#6C7077" fill-rule="nonzero"></path>
                <path class="fill" d="M4.24528302,10.9056604 L7.96528305,10.9056604 L7.96528305,15.6226415 L4.24528302,15.6226415 L4.24528302,10.9056604 Z M16.0377358,10.9056604 L19.7577359,10.9056604 L19.7577359,15.6226415 L16.0377358,15.6226415 L16.0377358,10.9056604 Z M4.24528302,4.00943396 L13.8552827,4.00943396 L13.8552827,8.72641509 L4.24528302,8.72641509 L4.24528302,4.00943396 Z" id="Shape" fill="#6C7077" fill-rule="nonzero"></path>
                <polygon id="Color" class="fill--primary" fill="#4D76C8" points="16.0377358 4.00943396 19.7577359 4.00943396 19.7577359 8.72641509 16.0377358 8.72641509"></polygon>
                <polygon id="Color" class="fill--primary" fill="#4D76C8" points="10.1415094 10.9056604 13.8615095 10.9056604 13.8615095 15.6226415 10.1415094 15.6226415"></polygon>
            </g>
        </g>
    </g>
</svg>