<?xml version="1.0" encoding="UTF-8"?>
<svg width="25px" height="23px" viewBox="0 0 25 23" version="1.1" xmlns="http://www.w3.org/2000/svg" xmlns:xlink="http://www.w3.org/1999/xlink">
    <defs></defs>
    <g id="Atendimento-Card" stroke="none" stroke-width="1" fill="none" fill-rule="evenodd">
        <g id="Left-Menu" transform="translate(-71.000000, -288.000000)">
            <g id="ic-finance" transform="translate(71.000000, 288.000000)">
                <path d="M7.35266798,6.21562104 L4.30757675,6.21562104 C3.90244942,6.21562104 3.57400461,5.85872856 3.57400461,5.4177584 C3.57400461,4.97714736 3.90247006,4.62021 4.30757675,4.62021 L7.35266798,4.62021 C7.75793981,4.62021 8.0861782,4.97710247 8.0861782,5.4177584 C8.08619885,5.85870612 7.75781596,6.21562104 7.35266798,6.21562104 Z M6.06466978,9.63454815 L4.30757675,9.63454815 C3.90244942,9.63454815 3.57400461,9.27720678 3.57400461,8.83666308 C3.57400461,8.39582759 3.90247006,8.038778 4.30757675,8.038778 L6.06466978,8.038778 C6.4699416,8.038778 6.79815936,8.39582759 6.79815936,8.83666308 C6.79815936,9.27720678 6.46981776,9.63454815 6.06466978,9.63454815 L6.06466978,9.63454815 Z M16.5966595,20.902349 L9.14371599,20.902349 L9.14371599,16.3252777 C9.14371599,14.3664652 7.67931699,12.7705379 5.87772127,12.7705379 L1.50584678,12.7705379 L1.41700651,1.63931279 L9.50638411,1.63931279 L9.50638411,0 L0.0309619916,1.66954445e-15 L0,13.671242 C0,13.8902794 0.07804486,14.0991718 0.220903489,14.2509201 L7.65432035,22.3018182 C7.79719962,22.4535665 7.98631546,22.5400009 8.18564876,22.5400009 L17.8571429,22.5400009 L17.8469667,18.9428632 L16.5378524,18.9811987 L16.5966595,20.902349 Z M7.65291674,19.9890535 L2.48562868,14.391693 L5.87774191,14.391693 C6.85574866,14.391693 7.65289609,15.2583261 7.65289609,16.3252777 L7.65289609,19.9890535 L7.65291674,19.9890535 Z" id="Shape" fill="#6C7077" fill-rule="nonzero"></path>
                <path d="M17.3213854,2 C13.7315926,2 10.8214286,4.91016178 10.8214286,8.5 C10.8214286,12.0899678 13.7316142,15 17.3213854,15 C20.9112429,15 23.8214286,12.0898814 23.8214286,8.5 C23.8214286,4.91016178 20.9112429,2 17.3213854,2 Z" id="Color" stroke="#4D76C8" stroke-width="2"></path>
                <path d="M17.9184671,12.6785714 L16.9489681,12.6785714 L16.9489681,11.7467591 C16.2931524,11.7173761 15.6576375,11.5314709 15.2857143,11.3250477 L15.5785961,10.1782079 C15.9896196,10.403745 16.5669545,10.6098072 17.2033302,10.6098072 C17.7712354,10.6098072 18.152268,10.3848116 18.152268,10.002331 C18.152268,9.62999921 17.8384046,9.394173 17.1046686,9.14881988 C16.0585306,8.79586278 15.344635,8.30613931 15.344635,7.3549522 C15.344635,6.48298891 15.9501589,5.80603652 16.9968775,5.60988238 L16.9968775,4.67857143 L17.9567065,4.67857143 L17.9567065,5.54086741 C18.6022717,5.56120487 19.0425053,5.70721735 19.3850783,5.86540423 L19.0913357,6.9730734 C18.8464633,6.85439814 18.3865895,6.62884094 17.6821036,6.62884094 C17.046829,6.62884094 16.8406365,6.91342489 16.8406365,7.18786017 C16.8406365,7.50110509 17.18369,7.71761673 18.0250369,8.02059264 C19.1889763,8.43285729 19.6487901,8.97200037 19.6493506,9.86522372 C19.6493506,10.7374678 19.0424453,11.4824925 17.9184671,11.6686785 L17.9184671,12.6785714 Z" id="Color" fill="#4D76C8"></path>
            </g>
        </g>
    </g>
</svg>