<?xml version="1.0" encoding="UTF-8"?>
<svg width="24px" height="18px" viewBox="0 0 24 18" version="1.1" xmlns="http://www.w3.org/2000/svg" xmlns:xlink="http://www.w3.org/1999/xlink">
    <defs></defs>
    <g id="Atendimento-Card" stroke="none" stroke-width="1" fill="none" fill-rule="evenodd">
        <g id="Left-Menu" transform="translate(-72.000000, -338.000000)">
            <g id="ic-nfe" transform="translate(72.000000, 338.000000)">
                <path d="M0.465093168,0 L0.465093168,18 L1.90759752,18 L1.90759752,1.58823529 L8.86821133,15.8823529 L9.85639752,15.8823529 L9.85639752,0 L8.40417041,0 L8.40417041,11.1176471 L2.83567936,0 L0.465093168,0 Z M11.943354,0 L11.943354,15.8823529 L13.7321739,15.8823529 L13.7321739,7.41176471 L18.7826087,7.41176471 L18.7826087,5.82352941 L13.7321739,5.82352941 L13.7321739,1.58823529 L19.3043478,1.58823529 L19.3043478,0 L11.943354,0 Z" id="Shape" fill="#6C7077"></path>
                <path d="M19.826087,9.52941176 C22.7109974,9.52941176 23.9539642,11.4446367 23.7544757,14.4653979 L17.6930946,14.4653979 C17.9539642,15.6487889 18.8439898,16.3650519 20.0409207,16.3650519 C20.8849105,16.3650519 21.6675192,16.0380623 22.2506394,15.4307958 L23.3248082,16.567474 C22.511509,17.4705882 21.314578,18 19.8721228,18 C17.3248082,18 15.6521739,16.2871972 15.6521739,13.7802768 C15.6521739,11.2422145 17.370844,9.52941176 19.826087,9.52941176 Z M17.6470588,13.1107266 L21.943734,13.1107266 C21.8976982,11.8806228 21.084399,11.1020761 19.8414322,11.1020761 C18.6598465,11.1020761 17.831202,11.8806228 17.6470588,13.1107266 Z" id="Color" fill="#4D76C8"></path>
            </g>
        </g>
    </g>
</svg>