<?xml version="1.0" encoding="UTF-8"?>
<svg width="24px" height="24px" viewBox="0 0 24 24" version="1.1" xmlns="http://www.w3.org/2000/svg" xmlns:xlink="http://www.w3.org/1999/xlink">
    <defs></defs>
    <g id="Atendimento-Card" stroke="none" stroke-width="1" fill="none" fill-rule="evenodd">
        <g id="Left-Menu" transform="translate(-71.000000, -482.000000)">
            <g id="ic-phone" transform="translate(71.000000, 482.000000)">
                <path d="M22.9397154,17.469586 C21.8846479,16.694179 20.7640574,16.0095877 19.7010476,15.2446022 C18.4049849,14.3098957 17.1029655,14.1548143 15.7664473,15.1180558 C14.8580616,15.7708864 14.095117,15.5619608 13.3582326,14.8069005 C12.0440517,13.464516 10.733842,12.1127025 9.3623286,10.8283805 C8.37476947,9.9040954 8.28988753,9.05648255 8.98631651,7.86396869 C10.0215287,6.08388245 7.2092561,0.448596905 5.19144868,0.0396782938 C5.07976193,0.0173465735 4.96484866,0.00717323428 4.85092817,0.00196249956 C3.11556415,-0.0868681211 0.0377253048,2.85918204 0,4.92387365 C0.0637855482,5.20550145 0.154624111,5.76751641 0.31619762,6.31017722 C1.27695193,9.56217195 3.1344268,12.285153 5.40117159,14.7262582 C9.02056712,18.6290985 12.7501602,22.3840532 18.1324692,23.8418183 C19.4434235,24.1971408 20.4783875,23.9591839 21.4210237,23.0738552 C22.2130069,22.3309533 22.9253202,21.5282521 23.5078287,20.5937936 C24.2906288,19.3414804 24.0846288,18.3092586 22.9397154,17.469586 Z M19.2332498,22.1516737 C17.6102124,22.0827828 16.327533,21.4716215 15.1336961,20.733258 C9.75613882,17.4144359 5.35929484,13.1247432 2.5734293,7.35684732 C1.37491647,4.87849492 1.81149999,3.64337836 3.99589421,2.22816114 C4.64043325,1.8106327 5.09325945,1.75675013 5.53993312,2.44861223 C6.18078063,3.44703912 6.85042199,4.42430664 7.5114498,5.4074791 C8.13014821,6.3249591 7.76247302,7.16124619 7.23064834,7.91806263 C6.36314162,9.14801236 6.58094118,10.1476694 7.54590397,11.2390991 C9.19527419,13.1033378 10.9713865,14.826104 12.7947503,16.5141786 C13.8549542,17.4953827 14.8615081,17.6936903 16.1242534,16.8701973 C16.6920088,16.4969559 17.3737091,15.8892391 18.1390839,16.3271888 C19.5017462,17.1100854 20.9589114,17.8354089 21.9797391,19.0407547 C22.5846559,19.7562365 20.2986219,22.1524119 19.2332498,22.1516737 Z" id="Shape" fill="#6C7077" fill-rule="nonzero"></path>
                <path d="M13.5950085,6.17147242 C15.6805726,6.56748826 16.7939654,7.88630041 17.3819342,9.83685211 C17.5521944,10.4030853 18.1054162,10.5479933 18.6452355,10.3102846 C19.1746307,10.0758015 19.0867705,9.58698497 19.0021367,9.13116975 C18.6050283,6.9898059 16.3176835,4.83032855 14.2177242,4.6057707 C13.7521146,4.53753489 13.2788109,4.51619569 13.0971338,5.07002235 C12.9358085,5.56454589 13.0941555,6.07668667 13.5950085,6.17147242 Z" id="Color" fill="#4D76C8"></path>
                <path d="M14.1062857,3.26413057 C17.6204474,3.8415296 19.5593296,6.02358681 20.358014,9.39195461 C20.466226,9.85198805 20.6538598,10.3080514 21.2343827,10.2509815 C21.9375129,10.1837382 21.9201394,9.60931669 21.9303153,9.09122078 C21.9958382,5.8347597 17.6048113,1.48999946 14.2847363,1.52076761 C13.7498808,1.52597834 13.2021193,1.56567918 13.1499988,2.2562256 C13.1011049,2.8949128 13.5806133,3.17852564 14.1062857,3.26413057 Z" id="Color" fill="#4D76C8"></path>
            </g>
        </g>
    </g>
</svg>