<?xml version="1.0" encoding="UTF-8"?>
<svg width="26px" height="28px" viewBox="0 0 26 28" version="1.1" xmlns="http://www.w3.org/2000/svg" xmlns:xlink="http://www.w3.org/1999/xlink">
    <defs></defs>
    <g id="Atendimento-Card" stroke="none" stroke-width="1" fill="none" fill-rule="evenodd">
        <g id="Left-Menu" transform="translate(-71.000000, -135.000000)">
            <g id="ic-sale" transform="translate(71.000000, 135.000000)">
                <g>
                    <path class="fill" d="M2.01462075,19.5541943 L2.01462075,10.5848046 C2.01462075,4.76377697 6.77736328,0.00149418472 12.5984196,0.00149418472 C18.4072064,0.00149418472 23.1822185,4.77601779 23.1822185,10.5848046 L23.1822185,18.7499494 C23.1822185,20.6703503 22.094021,22.3808757 20.5708433,23.6539498 C18.8588525,25.0854363 16.5652502,25.9774645 14.6796753,25.9774645 L11.8500629,25.9774645 C11.484706,25.9774645 11.1193779,25.9774645 11.1193779,25.2467795 C11.1193779,24.5160944 11.4847348,24.5160944 11.8500629,24.5160944 L14.6796753,24.5160944 C16.2455234,24.5160944 18.1737688,23.7554969 19.6346791,22.5353802 C20.8508593,21.5178116 21.7203599,20.1907745 21.7203599,18.7499781 L21.7203599,10.5848333 C21.7203599,5.58129715 17.6029615,1.46341026 12.5994253,1.46341026 C7.58264265,1.46341026 3.47800228,5.56805063 3.47800228,10.5848333 L3.47800228,19.554223 C3.47800228,19.9195799 3.47800228,20.2849081 2.74682873,20.2849081 C2.01565519,20.2849081 2.01464949,19.9195512 2.01464949,19.554223 L2.01462075,19.5541943 Z M1.2378171,9.45442509 L4.06593523,9.45442509 C4.74170901,9.45442509 5.29389647,10.008078 5.29389647,10.6823863 L5.29389647,19.2545528 C5.29389647,19.9288611 4.74024356,20.482514 4.06593523,20.482514 L1.2378171,20.482514 C0.56350878,20.482514 0.00985587229,19.9298381 0.00985587229,19.2545528 L0.00985587229,10.6823863 C0.00936738883,10.0075895 0.562531813,9.45442509 1.2378171,9.45442509 L1.2378171,9.45442509 Z M23.9585049,9.45442509 L21.1308753,9.45442509 C20.4551015,9.45442509 19.9014486,10.008078 19.9014486,10.6823863 L19.9014486,19.2545528 C19.9014486,19.9288611 20.454613,20.482514 21.1308753,20.482514 L23.9585049,20.482514 C24.6337902,20.482514 25.1869546,19.9298381 25.1869546,19.2545528 L25.1869546,10.6823863 C25.1869546,10.0075895 24.6328132,9.45442509 23.9585049,9.45442509 L23.9585049,9.45442509 Z M10.4994924,23.9771247 L12.9657017,23.9771247 C13.8400871,23.9771247 14.5555717,24.6926094 14.5555717,25.5660178 L14.5555717,25.5660178 C14.5555717,26.4399147 13.8400871,27.1549108 12.9657017,27.1549108 L10.4994924,27.1549108 C9.62510696,27.1549108 8.91059932,26.4399147 8.91059932,25.5660178 L8.91059932,25.5660178 C8.91059932,24.6926094 9.62510696,23.9771247 10.4994924,23.9771247 L10.4994924,23.9771247 Z M9.79432338,18.8882477 C11.1963859,20.2898217 14.0004821,20.2898217 15.4015389,18.8882477 C15.9351065,18.35468 16.6859056,19.1030367 16.150384,19.6370928 C14.3736547,21.4138221 10.8207133,21.4138221 9.04547822,19.6370928 C8.51142212,19.1030367 9.25977879,18.3537318 9.79432338,18.8882477 Z" id="Shape" fill="#6C7077" fill-rule="nonzero"></path>
                    <path class="fill--primary" d="M16.1390914,11.1061026 C16.8687995,11.1061026 17.4636575,11.7009605 17.4636575,12.4301802 C17.4636575,13.1593998 16.8687995,13.7547462 16.1390914,13.7547462 C15.4103603,13.7547462 14.8155024,13.1598883 14.8155024,12.4301802 C14.8155024,11.7004721 15.4103603,11.1061026 16.1390914,11.1061026 L16.1390914,11.1061026 Z" id="Color" stroke="#4D76C8" fill="#4D76C8"></path>
                    <path class="fill--primary" d="M9.05723056,11.1061026 C9.78645017,11.1061026 10.3817966,11.7009605 10.3817966,12.4301802 C10.3817966,13.1593998 9.78693865,13.7547462 9.05723056,13.7547462 C8.32752246,13.7547462 7.73315302,13.1598883 7.73315302,12.4301802 C7.73315302,11.7004721 8.32752246,11.1061026 9.05723056,11.1061026 L9.05723056,11.1061026 Z" id="Color" stroke="#4D76C8" fill="#4D76C8"></path>
                </g>
            </g>
        </g>
    </g>
</svg>