<?xml version="1.0" encoding="UTF-8"?>
<svg width="26px" height="23px" viewBox="0 0 26 23" version="1.1" xmlns="http://www.w3.org/2000/svg" xmlns:xlink="http://www.w3.org/1999/xlink">
    <defs></defs>
    <g id="Atendimento-Card" stroke="none" stroke-width="1" fill="none" fill-rule="evenodd">
        <g id="Left-Menu" transform="translate(-71.000000, -383.000000)">
            <g id="ic-stock" transform="translate(71.000000, 383.000000)">
                <path d="M18.7795752,11.7332417 C19.0292972,11.6388932 19.2942848,11.5914327 19.5612294,11.5932439 C19.9018907,11.5932439 20.242552,11.6632428 20.5015479,11.8055739 L24.0621582,13.7398766 C24.2628217,13.8728745 24.2488219,14.0688714 24.0201588,14.1902028 L23.4158351,14.5121977 L23.4135018,14.5121977 L23.3785023,14.5308641 L23.3248365,14.5588637 L20.4198825,16.1385053 C20.1532393,16.2704713 19.8586758,16.3361077 19.5612294,16.3298356 C19.2637831,16.3361077 18.9692196,16.2704713 18.7025764,16.1385053 L15.7976224,14.5588637 L15.7439566,14.5308641 L15.7089571,14.5121977 L15.1023,14.1902028 C14.89697,14.0805379 14.8643038,13.9102072 15.0066349,13.781876 L18.7795752,11.7332417 L18.7795752,11.7332417 Z M25.2428062,19.5357849 C25.2428062,20.0934427 24.8181462,20.7794318 24.3001544,21.0594274 L20.7348775,22.9960634 C20.5365473,23.063729 20.3802165,22.9563973 20.3778832,22.7277343 L20.3662167,22.0837445 L20.3662167,18.3388038 C20.3778832,18.1054742 20.5528804,17.8278119 20.7628771,17.7088138 L21.3508678,17.3751524 L24.029492,15.9215087 L24.029492,15.923842 L24.1881562,15.8375101 L24.8601456,15.4735158 C25.0654756,15.3965171 25.2288064,15.5015154 25.233473,15.734845 L25.2404729,16.1711714 L25.2404729,19.5357849 L25.2428062,19.5357849 Z M18.7562422,22.0837445 L18.746909,22.7277343 C18.7422424,22.9563974 18.5859115,23.063729 18.3875814,22.9960634 L14.8223045,21.0594274 C14.3043127,20.7794318 13.881986,20.0934427 13.881986,19.5357849 L13.881986,16.1711714 L13.8913192,15.734845 C13.8936525,15.5015154 14.05465,15.3965171 14.2646466,15.4735158 L14.9343027,15.8375101 L15.0929669,15.923842 L17.7715911,17.3751524 L18.3619151,17.7111471 C18.5719118,17.8278119 18.7445757,18.1054742 18.7585755,18.3388038 L18.7585755,22.0837445 L18.7562422,22.0837445 Z M8.52007093,3.05804574 L12.0806812,1.12140975 C12.3396771,0.981411961 12.6803384,0.911413082 13.0209997,0.911413082 C13.3616609,0.911413082 13.7023222,0.981411961 13.9613181,1.12140975 L17.5219284,3.05571245 C17.7225919,3.18871034 17.7085921,3.38470722 17.4799291,3.50603866 L16.8756053,3.82803355 L16.873272,3.82803355 L16.8382726,3.84669992 L16.7846067,3.87469948 L13.8796527,5.45434114 C13.6130095,5.58630713 13.318446,5.65194357 13.0209997,5.64567146 C12.7235534,5.65194357 12.4289898,5.58630713 12.1623466,5.45434114 L9.25739258,3.87469948 L9.20372678,3.84669992 L9.16872732,3.82803355 L8.56207027,3.50603866 C8.33340723,3.38470725 8.31940745,3.18871034 8.52240423,3.05571245 L8.52007093,3.05804574 Z M12.2183457,11.4042469 L12.2066792,12.0459034 C12.2020126,12.2745665 12.0480151,12.3818981 11.8473516,12.3142325 L8.2820747,10.3775965 C7.7664162,10.0976009 7.34175625,9.41161179 7.34175625,8.85395398 L7.34175625,5.4870073 L7.35108944,5.04834757 C7.35342274,4.81501793 7.5144202,4.7100196 7.72441686,4.78701837 L8.39407293,5.1510126 L8.55273709,5.23967788 L8.55273709,5.23734459 L11.2313613,6.69098824 L11.8216853,7.02464961 C12.031682,7.14131443 12.2043459,7.42131 12.2183457,7.65230633 L12.2183457,11.3995803 L12.2183457,11.4042469 Z M18.7002431,8.85395398 C18.7002431,9.41161182 18.2779164,10.097601 17.7599246,10.3775965 L14.1969811,12.3142325 C13.9963176,12.3842314 13.8399867,12.2745665 13.8376534,12.0459034 L13.8259869,11.4042469 L13.8259869,7.65463963 C13.8376534,7.42131 14.0126507,7.14364772 14.2226473,7.02464961 L14.810638,6.69332154 L17.4892623,5.23967788 L17.6479264,5.1533459 L18.3199158,4.78935167 C18.5275791,4.7123529 18.6885766,4.81968453 18.6932432,5.05068086 L18.7002431,5.48934059 L18.7002431,8.84928738 L18.7002431,8.85395398 Z" id="Shape" fill="#6C7077" fill-rule="nonzero"></path>
                <path d="M1.94017511,13.7468765 L5.5007854,11.8125738 C5.757448,11.672576 6.10044256,11.6025771 6.44110385,11.6025771 C6.78176511,11.6025771 7.1224264,11.672576 7.3814223,11.8125738 L10.9396993,13.7468765 C11.1426961,13.8798744 11.1286963,14.0758713 10.9000332,14.1972027 L10.2933762,14.5191976 L10.2583767,14.537864 L10.2047109,14.5658636 L7.29975691,16.1455052 C7.03311366,16.2774712 6.73855015,16.3431076 6.44110385,16.3368355 C6.14365754,16.3431076 5.84909402,16.2774712 5.58245077,16.1455052 L2.67283019,14.5635303 L2.62149766,14.5355307 L2.58649821,14.5168643 L2.58416491,14.5168643 L1.97750786,14.1948694 C1.75117812,14.073538 1.73717834,13.8775411 1.93784181,13.7445432 L1.94017511,13.7468765 Z" id="Color" fill="#4D76C8"></path>
                <path d="M5.63611659,22.0907444 L5.62211681,22.7324009 C5.61978352,22.9610639 5.46345265,23.0683956 5.26512247,23.00073 L1.69984559,21.064094 C1.18185379,20.7840984 0.759527137,20.0981093 0.759527137,19.5404514 L0.759527137,16.1781713 L0.766527027,15.7395116 C0.771193621,15.506182 0.934524375,15.4011837 1.13985445,15.4781824 L1.81184381,15.8421767 L1.97050797,15.9308419 L1.97050797,15.9285086 L4.64913223,17.3821523 L5.23945621,17.7158137 C5.44945287,17.8324785 5.62211681,18.1124741 5.63611659,18.3434704 L5.63611659,22.0907444 Z" id="Color" fill="#4D76C8"></path>
                <path d="M12.118014,19.5404514 C12.118014,20.0981093 11.6956873,20.7840984 11.1776955,21.064094 L7.61241864,23.00073 C7.41408846,23.0707289 7.25775759,22.9610639 7.253091,22.7324009 L7.24142452,22.0907444 L7.24142452,18.3434704 C7.2554243,18.1101408 7.42808824,17.8324785 7.6380849,17.7134804 L8.22840888,17.379819 L10.9070331,15.9285086 L11.0656973,15.8421767 L11.7376867,15.4781824 C11.9430167,15.4011837 12.1063475,15.5085153 12.1110141,15.7395116 L12.118014,16.1781713 L12.118014,19.5381182 L12.118014,19.5404514 Z" id="Color" fill="#4D76C8"></path>
            </g>
        </g>
    </g>
</svg>