<?xml version="1.0" encoding="UTF-8"?>
<svg width="21px" height="25px" viewBox="0 0 21 25" version="1.1" xmlns="http://www.w3.org/2000/svg" xmlns:xlink="http://www.w3.org/1999/xlink">
    <defs></defs>
    <g id="Atendimento-Card" stroke="none" stroke-width="1" fill="none" fill-rule="evenodd">
        <g id="Left-Menu" transform="translate(-73.000000, -189.000000)" fill-rule="nonzero">
            <g id="ic-task" transform="translate(73.000000, 189.000000)">
                <path d="M18.352069,2.23816425 L2.63441379,2.23816425 C1.18754865,2.24082587 0.015593952,3.41445361 0.014,4.86231884 L0.014,22.3550725 C0.0150632511,23.8031578 1.18732827,24.9770963 2.63441379,24.9792271 L18.352069,24.9792271 C19.7994397,24.9781602 20.9720507,23.8034424 20.9715172,22.3550725 L20.9715172,4.86231884 C20.9704551,3.41460997 19.7987774,2.24082705 18.352069,2.23816425 Z M19.2258621,22.3550725 C19.2261183,22.5869768 19.1343038,22.8094847 18.9706169,22.973647 C18.8069299,23.1378094 18.5847789,23.2301787 18.3530345,23.2304348 L2.63441379,23.2304348 C2.15189563,23.2293704 1.76115151,22.8379245 1.76062069,22.3550725 L1.76062069,4.86231884 C1.76062069,4.38019324 2.15262069,3.98792271 2.63441379,3.98792271 L18.352069,3.98792271 C18.8357931,3.98792271 19.2248966,4.38019324 19.2248966,4.86231884 L19.2248966,22.3550725 L19.2258621,22.3550725 Z" id="Shape" fill="#6C7077"></path>
                <path d="M4.43993103,3.5173913 L4.43993103,1.07971014 C4.4641517,0.512457074 4.93075886,0.0650526356 5.49813793,0.0650526356 C6.065517,0.0650526356 6.53212417,0.512457074 6.55634483,1.07971014 L6.55634483,3.5173913 M14.3152414,3.5173913 L14.3152414,1.07971014 C14.3152414,0.494875279 14.7890167,0.0207729469 15.3734483,0.0207729469 C15.9578798,0.0207729469 16.4316552,0.494875279 16.4316552,1.07971014 L16.4316552,3.5173913 M9.43455172,3.5173913 L9.43455172,1.07971014 C9.45877239,0.512457074 9.92537955,0.0650526356 10.4927586,0.0650526356 C11.0601377,0.0650526356 11.5267449,0.512457074 11.5509655,1.07971014 L11.5509655,3.5173913" id="Shape" fill="#6C7077"></path>
                <path d="M3.80558621,8.00434783 C3.80558621,8.65054766 4.3290734,9.17439614 4.97482759,9.17439614 C5.62058177,9.17439614 6.14406897,8.65054766 6.14406897,8.00434783 C6.14406897,7.35814799 5.62058177,6.83429952 4.97482759,6.83429952 C4.3290734,6.83429952 3.80558621,7.35814799 3.80558621,8.00434783 L3.80558621,8.00434783 Z" id="Shape" fill="#6C7077"></path>
                <path d="M14.9737241,8.00434783 C14.9737241,8.65054766 15.4972113,9.17439614 16.1429655,9.17439614 C16.7887197,9.17439614 17.3122069,8.65054766 17.3122069,8.00434783 C17.3122069,7.35814799 16.7887197,6.83429952 16.1429655,6.83429952 C15.4972113,6.83429952 14.9737241,7.35814799 14.9737241,8.00434783 L14.9737241,8.00434783 Z" id="Shape" fill="#6C7077"></path>
                <path d="M9.32448276,8.00434783 C9.32448276,8.65108127 9.84840223,9.17536232 10.4946897,9.17536232 C11.1409771,9.17536232 11.6648966,8.65108127 11.6648966,8.00434783 C11.6648966,7.35761438 11.1409771,6.83333333 10.4946897,6.83333333 C9.84840223,6.83333333 9.32448276,7.35761438 9.32448276,8.00434783 L9.32448276,8.00434783 Z" id="Shape" fill="#6C7077"></path>
                <path d="M13.9618621,14.0198068 C13.9618621,14.605314 13.5408966,15.078744 13.0204828,15.078744 L4.746,15.078744 C4.22655172,15.078744 3.80558621,14.6062802 3.80558621,14.0198068 C3.80558621,13.4342995 4.22655172,12.9608696 4.746,12.9608696 L13.0214483,12.9608696 C13.5418621,12.9618357 13.9618621,13.4342995 13.9618621,14.0198068 Z M17.2465517,18.6671498 C17.2465517,19.2516908 16.8255862,19.726087 16.3061379,19.726087 L4.67937931,19.726087 C4.15993103,19.726087 3.73896552,19.252657 3.73896552,18.6671498 C3.73896552,18.0826087 4.15993103,17.6082126 4.67937931,17.6082126 L16.3061379,17.6082126 C16.8255862,17.6082126 17.2465517,18.0816425 17.2465517,18.6671498 Z" id="Color" fill="#4B72C1"></path>
            </g>
        </g>
    </g>
</svg>