<?xml version="1.0" encoding="UTF-8"?>
<svg width="32px" height="24px" viewBox="0 0 32 24" version="1.1" xmlns="http://www.w3.org/2000/svg" xmlns:xlink="http://www.w3.org/1999/xlink">
    <defs></defs>
    <g id="Atendimento-Card" stroke="none" stroke-width="1" fill="none" fill-rule="evenodd">
        <g id="Left-Menu" transform="translate(-68.000000, -527.000000)" fill-rule="nonzero">
            <g id="icon-track" transform="translate(68.000000, 527.000000)">
                <path d="M18.074905,18.8696039 C17.9696143,18.6803919 17.7590328,18.5771853 17.5484514,18.5599842 L14.4248271,18.5599842 C13.7404375,18.5599842 13.1964355,18.0095491 13.1964355,17.3215052 L13.1964355,2.49415913 C13.1964355,1.80611523 13.7404375,1.25568012 14.4248271,1.25568012 L28.8145572,1.25568012 C29.4989468,1.25568012 30.0429488,1.80611523 30.0429488,2.49415913 L30.0429488,5.36674241 C30.0429488,5.59035668 30.165788,5.79676985 30.3763694,5.89997643 C30.6922415,6.05478631 31.060759,5.95157973 31.2186951,5.64195997 C31.2713404,5.55595448 31.2888889,5.4527479 31.2888889,5.34954131 L31.2888889,2.47695804 C31.2888889,1.11807134 30.1833364,0 28.8321057,0 L14.4423755,0 C13.0911448,0 11.9855923,1.10087024 11.9855923,2.47695804 L11.9855923,4.19706778 L6.26479716,4.19706778 C5.51021375,4.19706778 4.80827569,4.54108973 4.3344675,5.12592705 L0.544001994,9.85622885 C0.193032966,10.3034574 0,10.8538925 0,11.4215287 L0,18.2159622 C0,18.9556094 0.596647348,19.5576478 1.33368231,19.5576478 L2.94813984,19.5576478 C3.070979,21.8281927 4.9837602,23.5655035 7.24751044,23.462297 C9.35332461,23.3590904 11.0204275,21.6733828 11.1257182,19.5576478 L12.1435284,19.5576478 C12.4418521,19.5576478 12.7226273,19.4716423 12.9507572,19.2824303 C13.3894684,19.6092511 13.915922,19.7984632 14.459924,19.7984632 L17.6010968,19.7984632 C17.9345174,19.7984632 18.2152926,19.5232456 18.2152926,19.1792237 C18.1626472,19.0760171 18.1275503,18.9728105 18.074905,18.8696039 Z M1.47406992,10.6474793 L3.63252944,7.94690703 L7.80906088,7.94690703 C7.87925469,7.94690703 7.93190004,7.99851032 7.93190004,8.06731471 L7.93190004,11.9547627 C7.93190004,12.0235671 7.87925469,12.0751704 7.80906088,12.0751704 L1.35123076,12.0751704 C1.28103695,12.0751704 1.2283916,12.0235671 1.2283916,11.9547627 L1.1932947,11.9547627 L1.1932947,11.4387298 C1.1932947,11.1463112 1.29858541,10.8710936 1.47406992,10.6474793 Z M6.98428367,22.2238179 C5.40492304,22.2238179 4.12388608,20.9337356 4.12388608,19.3512347 C4.12388608,17.7687337 5.40492304,16.4786514 6.98428367,16.4786514 C8.56364429,16.4786514 9.84468125,17.7687337 9.84468125,19.3512347 C9.84468125,20.9509367 8.56364429,22.2238179 6.98428367,22.2238179 Z M10.9502337,18.3191688 C10.3886832,16.1174283 8.14248146,14.7929438 5.96647348,15.3777811 C4.52750047,15.7562053 3.40439958,16.8742766 3.0358821,18.3191688 L1.29858541,18.3191688 C1.24594005,18.3191688 1.21084315,18.2675655 1.1932947,18.2159622 L1.1932947,13.3136494 L7.80906088,13.3136494 C8.56364429,13.3136494 9.16029164,12.711611 9.16029164,11.9547627 L9.16029164,8.06731471 C9.16029164,7.31046643 8.56364429,6.70842801 7.80906088,6.70842801 L4.63279118,6.70842801 L5.26453543,5.91717753 C5.4926653,5.62475887 5.86118278,5.4527479 6.22970026,5.4527479 L11.8452047,5.4527479 C11.8978501,5.4527479 11.932947,5.50435119 11.9504954,5.55595448 L11.9504954,17.3387063 C11.9504954,17.6655271 12.0206892,18.0095491 12.1435284,18.3019677 C12.1259799,18.3019677 12.1084315,18.3191688 12.090883,18.3191688 L10.9502337,18.3191688 Z" id="Shape" fill="#6C7077"></path>
                <path d="M26.0444444,9.53333333 C24.3937267,9.53333333 23.0444444,10.8791277 23.0444444,12.5333333 C23.0444444,14.1875389 24.3937267,15.5333333 26.0444444,15.5333333 C27.6951621,15.5333333 29.0444444,14.1875389 29.0444444,12.5333333 C29.0444444,10.8791277 27.6951621,9.53333333 26.0444444,9.53333333 L26.0444444,9.53333333 Z M26.0444444,14.5239875 C24.9535354,14.5239875 24.0492291,13.6267913 24.0492291,12.5333333 C24.0492291,11.4398754 24.9391813,10.5426791 26.0444444,10.5426791 C27.1497076,10.5426791 28.0396598,11.4398754 28.0396598,12.5333333 C28.0396598,13.6267913 27.1497076,14.5239875 26.0444444,14.5239875 Z" id="Color" fill="#4D76C8"></path>
                <path d="M30.2244161,7.86455242 C29.1930856,6.89927923 27.7221716,6.4 25.9638377,6.4 C24.2055037,6.4 22.7514968,6.89927923 21.7032592,7.86455242 C20.5197652,8.96296673 19.9111111,10.6105882 19.9111111,12.7574889 C19.9111111,17.1511462 25.3213695,22.3769355 25.5411612,22.5932898 C25.77786,22.8096441 26.1329082,22.8096441 26.369607,22.5932898 C26.6063058,22.3769355 31.9996572,17.1345035 31.9996572,12.7574889 C32.0165642,10.6105882 31.4079102,8.96296673 30.2244161,7.86455242 L30.2244161,7.86455242 Z M25.9807447,21.3118064 C25.169206,20.4796744 24.4252954,19.5976144 23.7321061,18.6656265 C22.0244933,16.3855847 21.1284192,14.3385398 21.1284192,12.7574889 C21.1284192,8.49697278 23.7659202,7.59827016 25.9807447,7.59827016 C28.1955692,7.59827016 30.8330702,8.49697278 30.8330702,12.7574889 C30.8330702,14.3385398 29.9369962,16.368942 28.2462904,18.6489839 C27.536194,19.5809718 26.7753764,20.4796744 25.9807447,21.3118064 L25.9807447,21.3118064 Z" id="Color" fill="#4D76C8"></path>
            </g>
        </g>
    </g>
</svg>