<svg width="21" height="38" xmlns="http://www.w3.org/2000/svg">

 <g>
  <title>background</title>
  <rect fill="none" id="canvas_background" height="40" width="23" y="-1" x="-1"/>
 </g>
 <g>
  <title>Layer 1</title>
  <g stroke="null" transform="rotate(90.46333312988281 10.606621742248537,18.984691619873043) " id="svg_1">
   <path stroke="null" fill="#222222" d="m7.47626,9.96072c-0.002956,0.000082 -0.012318,0.001478 -0.019708,0.001642c-0.0721,0.00156 -0.32831,0.007719 -0.468076,0.039417c-0.156272,0.035393 -0.312543,0.083597 -0.45001,0.16588c-0.205707,0.123178 -0.379142,0.298994 -0.538698,0.47793c-0.133196,0.149292 -0.235023,0.323876 -0.344898,0.491069c-0.04418,0.067255 -0.10117,0.130076 -0.12482,0.206939c-0.003285,0.010593 -0.007637,0.020119 -0.009854,0.031205c-2.566781,0.007226 -5.13348,0.025457 -7.69944,0.083761c-1.540709,0.051488 -3.052102,0.825456 -3.895706,2.133441c-0.361486,0.421597 -0.592404,0.919564 -0.696366,1.458426c-0.600944,1.622089 -0.344159,3.390184 -0.399096,5.083141c-0.050996,1.35003 0.232478,2.707861 0.844179,3.908845c0.711147,1.120919 1.774254,2.120877 3.133646,2.323956c1.904412,0.395894 3.865815,0.171135 5.795931,0.236502c0.973434,-0.002135 1.946703,-0.001478 2.920137,-0.001642c0.001642,0.00698 0.004517,0.012975 0.006569,0.019708c0.02365,0.076863 0.08064,0.139684 0.12482,0.206939c0.109875,0.167193 0.211702,0.341778 0.344898,0.491069c0.159556,0.178936 0.332991,0.354752 0.538698,0.47793c0.137467,0.082365 0.293738,0.130486 0.45001,0.16588c0.139766,0.031616 0.395976,0.037857 0.468076,0.039417c0.032437,0.006652 0.067337,0.000903 0.09033,-0.016424s0.03022,-0.034408 0.036132,-0.073907s-0.000082,-0.05658 -0.026278,-0.156025s-0.088852,-0.272634 -0.156025,-0.430301s-0.17869,-0.374214 -0.252925,-0.510778c-0.047465,-0.087374 -0.08606,-0.153398 -0.123178,-0.213508c1.266351,0.000575 2.532373,0.000575 3.798806,0.001642c0.004434,0.00583 0.009115,0.012154 0.014781,0.018066c0.029234,0.030794 0.07169,0.071607 0.152741,0.100185c0.081051,0.028577 0.085157,0.02053 0.331759,0.032847c0.246602,0.012318 0.871443,0.007966 1.054403,-0.003285s0.215561,-0.014124 0.305481,-0.049271c0.072593,-0.028413 0.126791,-0.042045 0.137959,-0.0969c1.929459,0.000493 3.859985,-0.001724 5.789361,-0.009854c0.07095,0.024061 0.086964,0.01782 0.321905,0.029563c0.246602,0.012318 0.873085,0.007966 1.056045,-0.003285c0.150852,-0.009279 0.200041,-0.013714 0.26278,-0.03449c1.594086,-0.009936 3.188583,-0.025046 4.782587,-0.047629c1.114678,0.002628 2.222458,-0.692178 2.59659,-1.763907c0.955696,-2.357625 0.938451,-4.971542 0.840894,-7.476077c-0.12482,-1.63531 -0.335783,-3.355776 -1.221925,-4.767806c-0.793923,-1.124614 -2.324038,-1.157872 -3.570517,-1.152945c-1.173803,-0.012318 -2.347278,-0.017081 -3.521245,-0.019708c-0.03991,-0.005256 -0.088524,-0.009854 -0.169164,-0.014781c-0.18296,-0.01125 -0.809443,-0.015603 -1.056045,-0.003285c-0.161856,0.008048 -0.216218,0.008048 -0.259495,0.014781c-1.503263,-0.000411 -3.006608,0.003203 -4.509953,0.003285c-0.446643,0.002381 -0.893532,0.003449 -1.340176,0.004927c-0.009362,-0.057976 -0.065366,-0.071197 -0.139602,-0.100185c-0.08992,-0.035147 -0.122521,-0.038021 -0.305481,-0.049271s-0.807801,-0.015603 -1.054403,-0.003285c-0.246602,0.012318 -0.250708,0.00427 -0.331759,0.032847s-0.123506,0.06939 -0.152741,0.100185c-0.007309,0.007719 -0.014535,0.015356 -0.019708,0.022993c-1.266351,0.001642 -2.532455,0.003203 -3.798806,0.004927c0.038678,-0.062246 0.078423,-0.130322 0.128105,-0.22172c0.074235,-0.136645 0.185752,-0.353028 0.252925,-0.510778c0.067173,-0.157668 0.12983,-0.330856 0.156025,-0.430301s0.03219,-0.116526 0.026278,-0.156025c-0.005913,-0.039499 -0.013139,-0.05658 -0.036132,-0.073907c-0.015685,-0.011825 -0.037118,-0.017245 -0.059125,-0.018066c-0.003777,-0.000164 -0.007719,-0.000164 -0.011497,0l0,0zm4.317796,1.402586c0.046725,-0.000493 0.099856,-0.000493 0.151098,0.001642c-0.072839,0.000164 -0.145596,-0.000164 -0.218435,0c0.023157,-0.000903 0.046972,-0.001396 0.067337,-0.001642zm13.272008,0.601108c0.32716,-0.008212 0.695955,0.040813 0.895093,0.142886c0.487538,0.249887 0.77988,0.634859 0.89345,1.177581c0.037035,0.17713 0.125395,0.434572 0.195442,0.573188c0.208417,0.4124 0.400246,1.008581 0.382673,1.187435l-0.016424,0.16588l-0.162595,-0.152741c-0.089345,-0.083761 -0.24225,-0.324615 -0.338329,-0.535413c-0.556107,-1.220364 -1.298788,-1.931183 -2.43071,-2.328883c-0.09846,-0.034572 -0.097721,-0.038432 -0.004927,-0.106754c0.103305,-0.076042 0.331841,-0.116773 0.586327,-0.123178l0,0zm-17.6013,0.103469c0.105851,-0.000657 0.226812,-0.000246 0.361322,0c0.896571,0.001724 2.389815,0.021515 3.954832,0.054198l1.116813,0.022993l0.435229,0.683227c0.239047,0.375036 0.441552,0.717717 0.45001,0.762061c0.015192,0.079573 0.011168,0.079409 -0.336686,0.073907c-0.193882,-0.003038 -0.69924,-0.017491 -1.12174,-0.032847c-1.19343,-0.043359 -3.033707,-0.234613 -4.19626,-0.435229l-0.464791,-0.078834l-0.149456,-0.233217c-0.082283,-0.127694 -0.235352,-0.351057 -0.339971,-0.497639s-0.196017,-0.281913 -0.203654,-0.300554c-0.00386,-0.009362 0.176883,-0.016095 0.494354,-0.018066l0,0zm-10.476691,0.037775c0.085321,0 0.182221,-0.000493 0.292342,0c1.186285,0.004927 1.398069,0.095997 0.944364,0.402381c-0.262123,0.177048 -1.949742,1.202052 -2.632722,1.59967c-0.580743,0.338082 -0.809443,0.532785 -1.069184,0.909874c-0.104537,0.151755 -0.263354,0.309751 -0.354752,0.35311c-0.169739,0.080558 -0.434572,0.104126 -0.494354,0.044344c-0.018559,-0.018559 -0.03449,-0.167111 -0.03449,-0.330117c0,-0.316649 0.096161,-0.553233 0.44344,-1.100389c0.285773,-0.450256 0.841634,-1.081091 1.171011,-1.328679c0.168507,-0.126627 0.493533,-0.303839 0.722644,-0.392527c0.361897,-0.140094 0.414206,-0.157668 1.011701,-0.157668l0,0zm17.860795,0.067337c0.135414,-0.000328 0.348511,0.004845 0.6783,0.013139c2.767972,0.069637 4.56834,0.130815 4.59043,0.154383c0.037035,0.039417 0.139602,0.67444 0.139602,0.86553c0,0.297762 0.02324,0.289304 -1.003489,0.343256c-0.687004,0.036132 -3.290739,0.117265 -3.910488,0.121536c-0.060275,0.000411 -0.126545,-0.119236 -0.382673,-0.689796c-0.170314,-0.379306 -0.321576,-0.718702 -0.335044,-0.753849c-0.014535,-0.038021 -0.002299,-0.053706 0.223363,-0.054198l0,0zm6.925882,0.397454c0.059782,-0.001971 0.133771,0.002381 0.22829,0.009854c0.370355,0.029481 1.249188,0.154054 1.297474,0.183946c0.103716,0.064135 -0.430219,0.253582 -1.083965,0.385957c-0.486553,0.098542 -0.543132,0.104291 -0.663518,0.055841c-0.111846,-0.045001 -0.134018,-0.18025 -0.064053,-0.390885c0.059454,-0.179019 0.106508,-0.238883 0.285773,-0.244713zm-19.603351,0.307124c0.158078,0 4.51759,0.95857 5.273656,1.159515c0.509792,0.135496 1.446437,0.451981 2.080885,0.702935c1.443481,0.570888 2.181891,0.765345 2.910283,0.765345c0.554465,0 0.586491,0.014699 1.041264,0.500923l0.468076,0.500923l0,2.483266l0,2.484909l-0.456579,0.487784l-0.454937,0.486142l-0.883596,0.052556c-0.696941,0.040731 -1.085444,0.130486 -1.842741,0.425374c-1.887085,0.734879 -3.115908,1.093245 -5.406688,1.581604c-1.278258,0.27247 -2.425373,0.518743 -2.548961,0.54691c-0.180989,0.041224 -0.261794,-0.022254 -0.417162,-0.328474c-0.238883,-0.47095 -0.764196,-2.110119 -0.914801,-2.856085c-0.33217,-1.645082 -0.306056,-4.570393 0.052556,-6.012724c0.334387,-1.345103 0.937466,-2.980905 1.098747,-2.980905l0,0zm23.420224,0.517347c0.278793,-0.013632 0.363211,0.22714 0.666803,0.79655c0.825702,1.548675 1.075672,2.882445 0.998562,5.337709c-0.060521,1.926338 -0.224348,2.666637 -0.891808,4.023811c-0.581646,1.182672 -0.596838,1.19072 -1.455142,0.781769c-0.389078,-0.185342 -0.969656,-0.435311 -1.289262,-0.555122s-0.5814,-0.236091 -0.5814,-0.257852s0.158489,-0.352535 0.351468,-0.735783c0.605707,-1.202873 0.80427,-2.159062 0.798193,-3.844793c-0.006159,-1.687455 -0.184356,-2.52564 -0.794908,-3.738039c-0.202012,-0.401067 -0.352535,-0.74112 -0.335044,-0.755491s0.618517,-0.281667 1.335248,-0.594539c0.647095,-0.282488 0.980496,-0.447628 1.197289,-0.458222l0,0zm-31.797963,9.106952c0.040074,-0.003531 0.089674,0.003367 0.151098,0.018066c0.300472,0.071772 0.344323,0.106426 0.597823,0.454937c0.300718,0.413467 0.4721,0.550277 1.21864,0.982138c1.106302,0.63995 2.594044,1.572161 2.647504,1.658796c0.114555,0.185752 -0.021761,0.216793 -1.044549,0.22829c-0.844508,0.009444 -1.004639,-0.001807 -1.235064,-0.085403c-0.770272,-0.27945 -1.383288,-0.800903 -1.960992,-1.66865c-0.42521,-0.638636 -0.525805,-0.8721 -0.527201,-1.220282c-0.000985,-0.255142 0.032437,-0.35738 0.152741,-0.367891l0,0zm33.622638,0.264422l0.014781,0.151098c0.01782,0.175077 -0.194621,0.839334 -0.374461,1.167726c-0.067173,0.122603 -0.15619,0.383658 -0.197085,0.579757c-0.174091,0.8349 -0.818969,1.352822 -1.663723,1.338533c-0.168589,-0.002874 -0.375528,-0.020858 -0.459864,-0.041059s-0.197249,-0.061753 -0.251283,-0.091973c-0.091891,-0.051406 -0.088277,-0.05814 0.052556,-0.114966c0.655881,-0.264832 1.01671,-0.484418 1.363169,-0.826113c0.413549,-0.407801 0.673619,-0.786286 1.010059,-1.473208c0.127777,-0.260973 0.292753,-0.52367 0.367891,-0.583042l0.137959,-0.106754zm-12.146983,1.532333l0.716074,0.008212c0.869225,0.009854 2.578442,0.069719 3.503179,0.121536c0.551016,0.030877 0.686429,0.048532 0.722644,0.095258c0.061589,0.079409 0.055102,0.393184 -0.018066,0.7752l-0.06241,0.320263l-0.160952,0.024636c-0.155943,0.023568 -2.017982,0.078916 -4.263598,0.126463c-0.777992,0.016506 -1.100307,0.012154 -1.090535,-0.014781c0.007637,-0.021022 0.157668,-0.35738 0.333402,-0.747279l0.320263,-0.709505l0,0zm-2.115375,0.014781c0.385547,-0.000657 0.635598,0.014699 0.635598,0.050914c0,0.046808 -0.787025,1.318578 -0.8721,1.409155c-0.041963,0.04459 -0.956764,0.068651 -4.941897,0.128105l-1.042906,0.016424l0.146171,-0.202012c0.080887,-0.110942 0.244385,-0.35155 0.362964,-0.533771c0.131554,-0.202094 0.245452,-0.338082 0.2907,-0.348183c0.40468,-0.090495 1.950727,-0.29653 2.913568,-0.389242c0.84886,-0.081708 1.865324,-0.130322 2.507902,-0.13139l0,0zm8.587963,0.433586c0.148553,0.002053 0.359433,0.038267 0.647095,0.103469c0.720509,0.163252 1.084458,0.324204 0.844179,0.374461c-0.231574,0.04845 -0.91242,0.131882 -1.249845,0.152741l-0.362964,0.021351l-0.072264,-0.118251c-0.039581,-0.06512 -0.082283,-0.181318 -0.095258,-0.257852c-0.032355,-0.191665 0.04147,-0.279367 0.289057,-0.275918l0,0z" id="path4400-3-2"/>
  </g>
  <g id="svg_2"/>
  <g id="svg_3"/>
  <g id="svg_4"/>
  <g id="svg_5"/>
  <g id="svg_6"/>
  <g id="svg_7"/>
  <g id="svg_8"/>
  <g id="svg_9"/>
  <g id="svg_10"/>
  <g id="svg_11"/>
  <g id="svg_12"/>
  <g id="svg_13"/>
  <g id="svg_14"/>
  <g id="svg_15"/>
  <g id="svg_16"/>
 </g>
</svg>
