<?xml version="1.0" encoding="UTF-8"?>
<svg width="13px" height="13px" viewBox="0 0 13 13" version="1.1" xmlns="http://www.w3.org/2000/svg" xmlns:xlink="http://www.w3.org/1999/xlink">
    <defs></defs>
    <g id="Atendimento-Card" stroke="none" stroke-width="1" fill="none" fill-rule="evenodd">
        <g id="Request-Board" transform="translate(-1815.000000, -24.000000)" class="colorizable">
            <g id="top-bar" transform="translate(-1.000000, 0.000000)">
                <g id="@search-bar" transform="translate(1541.000000, 10.000000)">
                    <path d="M280.28125,19.28125 L276.21875,19.28125 L276.21875,19.28125 C275.545653,19.28125 275,19.826903 275,20.5 C275,21.173097 275.545653,21.71875 276.21875,21.71875 L280.28125,21.71875 L280.28125,25.78125 C280.28125,26.454347 280.826903,27 281.5,27 L281.5,27 C282.173097,27 282.71875,26.454347 282.71875,25.78125 L282.71875,25.78125 L282.71875,21.71875 L286.78125,21.71875 C287.454347,21.71875 288,21.173097 288,20.5 L288,20.5 C288,19.826903 287.454347,19.28125 286.78125,19.28125 L286.78125,19.28125 L282.71875,19.28125 L282.71875,15.21875 L282.71875,15.21875 C282.71875,14.545653 282.173097,14 281.5,14 C280.826903,14 280.28125,14.545653 280.28125,15.21875 L280.28125,19.28125 Z" id="ic-add" class="colorizable"></path>
                </g>
            </g>
        </g>
    </g>
</svg>