<?xml version="1.0" encoding="UTF-8"?>
<svg width="13px" height="13px" viewBox="0 0 13 13" version="1.1" xmlns="http://www.w3.org/2000/svg" xmlns:xlink="http://www.w3.org/1999/xlink">
    <defs></defs>
    <g id="Atendimento-Screen" stroke="none" stroke-width="1" fill="none" fill-rule="evenodd">
        <g id="Atendimento-4" transform="translate(-1143.000000, -157.000000)" fill="#FFFFFF">
            <path d="M1148.28125,162.28125 L1144.21875,162.28125 L1144.21875,162.28125 C1143.54565,162.28125 1143,162.826903 1143,163.5 C1143,164.173097 1143.54565,164.71875 1144.21875,164.71875 L1148.28125,164.71875 L1148.28125,168.78125 C1148.28125,169.454347 1148.8269,170 1149.5,170 L1149.5,170 C1150.1731,170 1150.71875,169.454347 1150.71875,168.78125 L1150.71875,168.78125 L1150.71875,164.71875 L1154.78125,164.71875 C1155.45435,164.71875 1156,164.173097 1156,163.5 L1156,163.5 C1156,162.826903 1155.45435,162.28125 1154.78125,162.28125 L1154.78125,162.28125 L1150.71875,162.28125 L1150.71875,158.21875 L1150.71875,158.21875 C1150.71875,157.545653 1150.1731,157 1149.5,157 C1148.8269,157 1148.28125,157.545653 1148.28125,158.21875 L1148.28125,162.28125 Z" class="colorizable" id="ic-add"></path>
        </g>
    </g>
</svg>