<?xml version="1.0" encoding="UTF-8"?>
<svg width="36px" height="36px" viewBox="0 0 36 36" version="1.1" xmlns="http://www.w3.org/2000/svg" xmlns:xlink="http://www.w3.org/1999/xlink">
    <defs>
        <rect id="path-1" x="0" y="0" width="36" height="36" rx="18"></rect>
    </defs>
    <g id="Account-Planning-Draft" stroke="none" stroke-width="1" fill="none" fill-rule="evenodd">
        <g id="Finance-Incomes-Draft" transform="translate(-800.000000, -259.000000)">
            <g id="Group-2" transform="translate(708.000000, 133.000000)">
                <g id="ic-big-add" transform="translate(92.000000, 126.000000)">
                    <g id="Rectangle-4">
                        <use fill="#212328" fill-rule="evenodd" xlink:href="#path-1"></use>
                        <rect class="stroke" stroke-width="2" x="1" y="1" width="34" height="34" rx="17"></rect>
                    </g>
                    <path d="M17.28125,17.28125 L13.21875,17.28125 L13.21875,17.28125 C12.545653,17.28125 12,17.826903 12,18.5 C12,19.173097 12.545653,19.71875 13.21875,19.71875 L17.28125,19.71875 L17.28125,23.78125 C17.28125,24.454347 17.826903,25 18.5,25 L18.5,25 C19.173097,25 19.71875,24.454347 19.71875,23.78125 L19.71875,23.78125 L19.71875,19.71875 L23.78125,19.71875 C24.454347,19.71875 25,19.173097 25,18.5 L25,18.5 C25,17.826903 24.454347,17.28125 23.78125,17.28125 L23.78125,17.28125 L19.71875,17.28125 L19.71875,13.21875 L19.71875,13.21875 C19.71875,12.545653 19.173097,12 18.5,12 C17.826903,12 17.28125,12.545653 17.28125,13.21875 L17.28125,17.28125 Z" id="ic-add" class="fill" fill-rule="evenodd"></path>
                </g>
            </g>
        </g>
    </g>
</svg>