<?xml version="1.0" encoding="UTF-8"?>
<svg width="16px" height="15px" viewBox="0 0 16 15" version="1.1" xmlns="http://www.w3.org/2000/svg" xmlns:xlink="http://www.w3.org/1999/xlink">
    <defs></defs>
    <g id="Atendimento-Screen" stroke="none" stroke-width="1" fill="none" fill-rule="evenodd">
        <g id="Atendimento-6" transform="translate(-873.000000, -310.000000)" fill-rule="nonzero" fill="#3C3F4A">
            <g id="bt-client-group-copy-4" transform="translate(852.000000, 289.000000)">
                <g id="ic-clients-group" transform="translate(21.000000, 21.000000)">
                    <path class="colorizable" d="M4.39913053,4.0791843 C4.26703616,4.11168911 4.12980064,4.13073489 3.98792151,4.13073489 C3.01856611,4.13073489 2.22981433,3.32581761 2.22981433,2.33636783 C2.22981433,1.34683339 3.0184832,0.54174682 3.98792151,0.54174682 C4.73653917,0.54174682 5.37570012,1.02288573 5.62852856,1.69736052 C5.77264658,1.58808004 5.92654937,1.49200461 6.08849558,1.40955753 C5.73690731,0.58043094 4.92924935,0 3.98792151,0 C2.72386218,0 1.69911504,1.04599461 1.69911504,2.33645249 C1.69911504,3.62665642 2.72386217,4.67256637 3.98792151,4.67256637 C4.13784406,4.67256637 4.2839522,4.65682185 4.42583133,4.62871873 C4.40684225,4.48803385 4.39622826,4.34455559 4.39622826,4.19853789 C4.39622826,4.15841477 4.39780377,4.11879953 4.39913053,4.0791843 Z" id="Shape"></path>
                    <path class="colorizable" d="M0.581715568,9.80559632 L0.620140065,8.09226193 L0.622690722,8.06606746 L0.622690722,8.0397072 C0.622690722,6.84205587 1.26850194,5.72986818 2.28843771,5.13560168 C2.80029803,5.40252009 3.36843746,5.54236214 3.94924794,5.54236214 C4.1937824,5.54236214 4.43576619,5.51616767 4.67256637,5.46759182 C4.59719842,5.30652894 4.53548885,5.13759114 4.48891869,4.96243629 C4.31349895,4.99377019 4.13355384,5.01192396 3.94933021,5.01192396 C3.34260172,5.01192396 2.77709522,4.83511124 2.29962771,4.53097345 C0.99689754,5.15367256 0.096184655,6.49041987 0.096184655,8.0397072 L0,10.3362832 L2.36372339,10.3362832 C2.47957282,10.1509324 2.60751733,9.97428544 2.74492397,9.80576212 L0.581715568,9.80559632 L0.581715568,9.80559632 Z" id="Shape"></path>
                    <path class="colorizable" d="M12.0100408,0.541916122 C12.9801284,0.541916122 13.769528,1.34700269 13.769528,2.33653713 C13.769528,3.32598691 12.9801284,4.13090419 12.0100408,4.13090419 C11.8755831,4.13090419 11.7451923,4.1139746 11.6190344,4.08468642 C11.6204454,4.12252405 11.6219394,4.16044632 11.6219394,4.19862255 C11.6219394,4.34574067 11.6110666,4.49023471 11.5918109,4.63193536 C11.7276796,4.65758369 11.8670342,4.67256637 12.0100408,4.67256637 C13.2751054,4.67256637 14.300885,3.62674106 14.300885,2.33645249 C14.300885,1.04607927 13.2753543,0 12.0100408,0 C11.0712438,0 10.2653274,0.576706426 9.91150442,1.40092344 C10.0735177,1.48218546 10.2276461,1.5775837 10.3718976,1.68550982 C10.6281973,1.0173836 11.2651285,0.541916122 12.0100408,0.541916122 Z" id="Shape"></path>
                    <path class="colorizable" d="M11.9872523,5.54252792 C12.5771852,5.54252792 13.1544953,5.40260298 13.6747932,5.13576746 C14.7110421,5.73019974 15.3672662,6.84230454 15.3672662,8.03987297 L15.3672662,8.06615035 L15.3698577,8.09242773 L15.4089803,9.80576212 L13.2108386,9.80576212 C13.3506101,9.97428546 13.4805174,10.1509324 13.5982198,10.3362832 L16,10.3362832 L15.9021934,8.0397072 C15.9021934,6.49041987 14.9865726,5.15367256 13.6634242,4.53097345 C13.1780692,4.83511124 12.6036014,5.01192396 11.9872523,5.01192396 C11.8275015,5.01192396 11.6706765,4.99957276 11.5172788,4.97669404 C11.4688771,5.15234625 11.405261,5.32186432 11.3274336,5.48334166 C11.5440294,5.52263338 11.7647213,5.54252792 11.9872523,5.54252792 Z" id="Shape"></path>
                    <path class="colorizable" d="M13.1800608,12.0823364 C13.1800608,9.99838196 11.9688606,8.20042768 10.2178097,7.36283186 C9.57582965,7.7720128 8.81562499,8.00984452 7.99999999,8.00984452 C7.18420906,8.00984452 6.42392146,7.77184555 5.78202433,7.36283186 C4.03072456,8.20059492 2.81969027,9.99854922 2.81969027,12.0823364 L2.69026549,14.7256637 L13.3097345,14.7256637 L13.1800608,12.0823364 Z" id="Shape"></path>
                    <path class="colorizable" d="M4.95575221,4.46017701 C4.95575221,6.14146863 6.31870837,7.50442478 8,7.50442478 C9.68129163,7.50442478 11.0442478,6.14146863 11.0442478,4.46017701 C11.0442478,3.37257203 10.4640175,2.36758357 9.52212391,1.82378108 C8.58023036,1.27997858 7.41976964,1.27997858 6.47787609,1.82378108 C5.53598254,2.36758357 4.9557522,3.37257203 4.95575221,4.46017701 Z" id="Shape"></path>
                </g>
            </g>
        </g>
    </g>
</svg>