<?xml version="1.0" encoding="UTF-8"?>
<svg width="16px" height="16px" viewBox="0 0 16 16" version="1.1" xmlns="http://www.w3.org/2000/svg" xmlns:xlink="http://www.w3.org/1999/xlink">
    <defs></defs>
    <g id="Incoming-Expenses-List" stroke="none" stroke-width="1" fill="none" fill-rule="evenodd">
        <g id="Incoming-Expenses-List-2" transform="translate(-1405.000000, -234.000000)" fill-rule="nonzero" fill="#3A3F4B">
            <g id="Group-29" transform="translate(1387.000000, 226.000000)">
                <g id="ic-col-conf" transform="translate(18.000000, 8.000000)">
                    <path d="M7.99945853,15.9964293 C7.88698857,15.9964293 7.77451862,16 7.66026342,15.9964293 C7.28357833,15.9839318 7.06934984,15.82325 6.93545703,15.4751061 C6.78906756,15.0966112 6.62661096,14.7234724 6.4855772,14.3431921 C6.26956348,13.7540255 5.04132013,13.2987604 4.48432606,13.5683487 C4.14156048,13.7343866 3.78986871,13.8825709 3.44353265,14.039682 C3.10969325,14.1914371 2.87582715,14.1521593 2.61696773,13.8986391 C2.43665875,13.7218891 2.25992024,13.5433538 2.08318174,13.3648185 C1.85645659,13.1327225 1.81539613,12.877417 1.94036275,12.5774776 C2.12067173,12.1472075 2.32597403,11.7240787 2.46343731,11.2795257 C2.6348201,10.7207101 2.20457788,9.77090216 1.67971808,9.51916733 C1.31552965,9.34241735 0.926347895,9.21387191 0.546092326,9.06925829 C0.14976962,8.91928861 0.010521102,8.7318265 0.00338015232,8.31405382 C-0.000190322503,8.09624071 -0.00197555992,7.88021296 0.00338015232,7.66239985 C0.0140915768,7.2624807 0.160481045,7.0785893 0.542521851,6.93040497 C0.92991837,6.78043529 1.32624108,6.64653379 1.69221475,6.45193027 C2.31169213,6.1216399 2.6633839,5.14505162 2.41702114,4.48804159 C2.28312833,4.13275627 2.1099603,3.79175378 1.95464465,3.44360988 C1.80646994,3.11510486 1.8475304,2.87051145 2.09924888,2.61520592 C2.27063167,2.44202665 2.44201446,2.27063272 2.61518249,2.0992388 C2.87047144,1.84750398 3.1168342,1.81001156 3.44353265,1.94926912 C3.86484868,2.12780446 4.280809,2.32776403 4.71640693,2.46166553 C5.27518624,2.63305946 6.21957683,2.20636 6.47665102,1.67789541 C6.65695999,1.30475656 6.78906756,0.910193471 6.93724227,0.52098644 C7.07292031,0.165701123 7.27465214,0.0121607349 7.65847818,0.00323396817 C7.90127047,-0.00212209188 8.14406276,-0.000336738529 8.38685505,0.00501932153 C8.70819778,0.0103753816 8.92242627,0.16927183 9.03668147,0.470996546 C9.18307093,0.849491457 9.34731278,1.22263031 9.48299082,1.60469592 C9.71685692,2.26170596 10.9933017,2.71697106 11.58243,2.40096352 C11.8948466,2.2331403 12.2269007,2.10280951 12.5500287,1.95462518 C12.8749419,1.80644085 13.1248751,1.84750398 13.3783789,2.0992388 C13.5569026,2.27598878 13.7372116,2.45273877 13.9121648,2.63305946 C14.1442457,2.8722968 14.1817357,3.11153415 14.0531986,3.41682958 C13.8764601,3.83817297 13.672943,4.2541603 13.537265,4.68978652 C13.3658822,5.23967535 13.7265002,6.13235202 14.2335076,6.40908179 C14.6101927,6.61439743 15.0207973,6.76258176 15.4242609,6.9179075 C15.8402213,7.0785893 15.9901812,7.26962211 15.9973221,7.71060439 C16.0008926,7.91056396 16.0008926,8.11052354 15.9973221,8.31048311 C15.988396,8.71575832 15.8295098,8.92464467 15.4492543,9.07104364 C15.0618577,9.22101332 14.665535,9.35134412 14.2995614,9.54594763 C13.6890102,9.86909659 13.3301774,10.8331874 13.5640435,11.4848414 C13.6890102,11.8347706 13.8639634,12.1668464 14.0192791,12.5042781 C14.1942324,12.882773 14.1549571,13.120225 13.8586077,13.4183791 C13.6997216,13.5790609 13.5408355,13.7397427 13.3801641,13.8968538 C13.1248751,14.1468032 12.8767271,14.1842956 12.5500287,14.0450381 C12.1447798,13.8718588 11.7466719,13.6736846 11.3271411,13.5433538 C10.7076637,13.3505356 9.77398452,13.7754497 9.49013177,14.3610456 C9.34017183,14.6716971 9.22948711,15.0019875 9.11166144,15.3269218 C8.90992961,15.8821667 8.75104348,15.9982146 8.15120371,16 L7.99410282,16 C7.99945853,15.9982146 7.99945853,15.9982146 7.99945853,15.9964293 Z M4.00766767,7.99269022 C3.99874148,10.1851041 5.76791176,11.9811696 7.95125712,11.9900964 C10.1881596,12.0008085 11.9841084,10.2440208 11.9948199,8.0355387 C12.0055313,5.81277377 10.2524281,4.01492295 8.06194184,4.00242548 C5.78754937,3.99171336 4.01659386,5.73421823 4.00766767,7.99269022 Z" id="Shape"></path>
                    <path d="M8.00097374,10.4346399 C6.69197399,10.4490998 5.59089547,9.36279646 5.56558332,8.03248149 C5.54207918,6.70397402 6.65400577,5.57248331 7.9937417,5.56525333 C9.31358952,5.55802336 10.4182841,6.64251926 10.4345562,7.96018177 C10.4526363,9.33568406 9.38590995,10.42018 8.00097374,10.4346399 Z" id="Shape"></path>
                </g>
            </g>
        </g>
    </g>
</svg>