<?xml version="1.0" encoding="UTF-8"?>
<svg width="12px" height="12px" viewBox="0 0 12 12" version="1.1" xmlns="http://www.w3.org/2000/svg" xmlns:xlink="http://www.w3.org/1999/xlink">
    <defs></defs>
    <g id="Atendimento-Screen" stroke="none" stroke-width="1" fill="none" fill-rule="evenodd">
        <g id="Atendimento-2" transform="translate(-967.000000, -43.000000)" fill-rule="nonzero" fill="#6C7077">
            <g id="tags-searched" transform="translate(788.000000, 43.000000)">
                <g id="search-tag-1" transform="translate(128.000000, 0.000000)">
                    <g id="ic-copy">
                        <path d="M58.5,3 L52.5,3 C51.6715729,3 51,3.67157288 51,4.5 L51,10.5 C51,11.3284271 51.6715729,12 52.5,12 L58.5,12 C59.3284271,12 60,11.3284271 60,10.5 L60,4.5 C60,3.67157288 59.3284271,3 58.5,3 Z M59.25,10.5 C59.25,10.9142136 58.9142136,11.25 58.5,11.25 L52.5,11.25 C52.0857864,11.25 51.75,10.9142136 51.75,10.5 L51.75,4.5 C51.75,4.08578644 52.0857864,3.75 52.5,3.75 L58.5,3.75 C58.9142136,3.75 59.25,4.08578644 59.25,4.5 L59.25,10.5 Z M61.5,9.75 L60.75,9.75 L60.75,9 L61.5,9 C61.9142136,9 62.25,8.66421356 62.25,8.25 L62.25,1.5 C62.25,1.08578644 61.9142136,0.75 61.5,0.75 L55.5,0.75 C55.0857864,0.75 54.75,1.08578644 54.75,1.5 L54.75,2.25 L54,2.25 L54,1.5 C54,0.671572875 54.6715729,1.52179594e-16 55.5,0 L61.5,0 C62.3284271,5.07265313e-17 63,0.671572875 63,1.5 L63,8.25 C63,9.07842712 62.3284271,9.75 61.5,9.75 Z"></path>
                    </g>
                </g>
            </g>
        </g>
    </g>
</svg>