<?xml version="1.0" encoding="UTF-8"?>
<svg width="14px" height="16px" viewBox="0 0 14 16" version="1.1" xmlns="http://www.w3.org/2000/svg" xmlns:xlink="http://www.w3.org/1999/xlink">
    <defs></defs>
    <g id="Atendimento-Screen" stroke="none" stroke-width="1" fill="none" fill-rule="evenodd">
        <g id="Client-Add-Helper" transform="translate(-1074.000000, -98.000000)" fill-rule="nonzero" fill="#3E414C">
            <path d="M1079.8022,112.928571 L1077.34066,112.928571 L1077.34066,108.285714 L1076.28571,108.285714 L1076.28571,114 L1080.85714,114 L1080.85714,108.285714 L1079.8022,108.285714 L1079.8022,112.928571 L1079.8022,112.928571 Z M1087.43301,103.914286 L1085.8306,101.930612 C1085.52375,101.526531 1085.04644,101.306122 1084.56912,101.306122 L1080.81879,101.306122 L1080.81879,98 L1076.38658,98 L1076.38658,101.306122 L1075.02282,101.306122 C1074.40913,101.306122 1074,101.746939 1074,102.408163 L1074,107.183673 C1074,107.844898 1074.40913,108.285714 1075.02282,108.285714 L1084.43274,108.285714 C1084.91006,108.285714 1085.52375,107.991837 1085.8306,107.62449 L1087.43301,105.640816 C1087.80804,105.163265 1087.80804,104.391837 1087.43301,103.914286 Z M1077.42857,99.1428571 L1079.71429,99.1428571 L1079.71429,101.428571 L1077.42857,101.428571 L1077.42857,99.1428571 L1077.42857,99.1428571 Z M1085.95286,104.97928 L1084.47591,106.863686 C1084.35022,107.003272 1084.0674,107.142857 1083.91027,107.142857 L1075.23713,107.142857 C1075.17428,107.142857 1075.14286,107.107961 1075.14286,107.038168 L1075.14286,102.676118 C1075.14286,102.606325 1075.17428,102.571429 1075.23713,102.571429 L1084.03597,102.606325 C1084.19309,102.606325 1084.38164,102.711014 1084.47591,102.8506 L1085.95286,104.735005 C1086.01571,104.804798 1086.01571,104.909487 1085.95286,104.97928 L1085.95286,104.97928 Z" id="ic-places"></path>
        </g>
    </g>
</svg>