<?xml version="1.0" encoding="UTF-8"?>
<svg width="15px" height="16px" viewBox="0 0 15 16" version="1.1" xmlns="http://www.w3.org/2000/svg" xmlns:xlink="http://www.w3.org/1999/xlink">
    <defs></defs>
    <g id="Atendimento-Screen" stroke="none" stroke-width="1" fill="none" fill-rule="evenodd">
        <g id="Atendimento-1" transform="translate(-130.000000, -38.000000)" fill="#3E414C">
            <g id="ic-log" transform="translate(130.000000, 38.000000)">
                <g id="Shape">
                    <path d="M12.891488,1.59992002 L9.52358674,1.59992002 C9.18518519,0.67196642 8.29889539,1.87490625e-08 7.25146199,0 C6.20402858,-1.87490625e-08 5.31773879,0.671966402 4.97933723,1.59992002 L1.61143599,1.59992002 C0.725146199,1.59992002 0,2.31988402 0,3.19984001 L0,14.39928 C0,15.279236 0.725146199,16 1.61143599,16 L12.891488,16 C13.7777778,16 14.502924,15.280036 14.502924,14.39928 L14.502924,3.20063998 C14.502924,2.32068398 13.7777778,1.60071998 12.891488,1.60071996 L12.891488,1.59992002 Z M7.22583798,0.970824342 C8.09119459,0.970824342 8.79921363,1.69082434 8.79921363,2.57082432 C8.79921363,3.4508243 8.09119459,4.17082434 7.22583798,4.17082434 C6.36048137,4.17082434 5.65246233,3.45082434 5.65246233,2.57082432 C5.65246233,1.69082431 6.36048137,0.970824304 7.22583798,0.970824342 Z M9.34078315,14.2253616 L2.32323929,14.2253616 L2.32323929,11.0253616 L9.34078315,11.0253616 L9.34078315,14.2253616 Z M12.615637,10.1459275 L2.32323929,10.1459275 L2.32323929,6.94592751 L12.615637,6.94592751 L12.615637,10.1459275 Z" fill-rule="nonzero"></path>
                </g>
            </g>
        </g>
    </g>
</svg>