<?xml version="1.0" encoding="UTF-8"?>
<svg width="16px" height="16px" viewBox="0 0 16 16" version="1.1" xmlns="http://www.w3.org/2000/svg" xmlns:xlink="http://www.w3.org/1999/xlink">
    <defs></defs>
    <g id="Atendimento-Screen" stroke="none" stroke-width="1" fill="none" fill-rule="evenodd">
        <g id="Atendimento-4" transform="translate(-873.000000, -157.000000)" fill="#3E414C">
            <g id="ic-phone" transform="translate(873.000000, 157.000000)">
                <path class="colorizable" d="M15.2931436,11.6463906 C14.5897652,11.1294527 13.8427049,10.6730585 13.1340318,10.1630682 C12.2699899,9.53993045 11.401977,9.43654286 10.5109648,10.0787039 C9.90537443,10.5139243 9.39674466,10.3746405 8.90548839,9.87126701 C8.02936783,8.976344 7.15589465,8.07513502 6.2415524,7.21892032 C5.58317964,6.60273027 5.52659169,6.03765503 5.99087767,5.24264579 C6.68101911,4.05592163 4.80617074,0.299064603 3.46096579,0.0264521959 C3.38650795,0.0115643823 3.30989911,0.00478215619 3.23395211,0.00130833304 C2.07704277,-0.0579120807 0.0251502032,1.90612136 0,3.28258243 C0.0425236988,3.4703343 0.103082741,3.84501094 0.210798414,4.20678481 C0.851301285,6.3747813 2.08961787,8.19010203 3.60078106,9.81750546 C6.01371141,12.419399 8.50010683,14.9227021 12.0883128,15.8945455 C12.9622823,16.1314272 13.6522583,15.9727893 14.2806825,15.3825702 C14.8086713,14.8873022 15.2835468,14.352168 15.6718858,13.7291958 C16.1937525,12.8943203 16.0564192,12.2061724 15.2931436,11.6463906 Z M12.8221665,14.7677825 C11.7401416,14.7218552 10.885022,14.3144143 10.0891307,13.822172 C6.50409254,11.6096239 3.57286323,8.74982881 1.71561953,4.90456488 C0.916610982,3.25232994 1.20766666,2.42891891 2.66392948,1.48544076 C3.09362216,1.20708847 3.3955063,1.17116675 3.69328875,1.63240815 C4.12052042,2.29802608 4.56694799,2.94953776 5.0076332,3.60498606 C5.42009881,4.2166394 5.17498202,4.77416413 4.82043223,5.27870842 C4.24209441,6.09867491 4.38729412,6.76511296 5.03060265,7.49273276 C6.13018279,8.73555854 7.31425768,9.88406931 8.52983352,11.0094524 C9.23663616,11.6635885 9.90767209,11.7957935 10.7495022,11.2467982 C11.1280059,10.9979706 11.5824728,10.5928261 12.0927226,10.8847926 C13.0011641,11.4067236 13.9726076,11.8902726 14.6531594,12.6938365 C15.0564373,13.1708244 13.5324146,14.7682746 12.8221665,14.7677825 Z" id="Shape" fill-rule="nonzero"></path>
                <path class="colorizable" d="M9.06333901,4.11431495 C10.453715,4.37832551 11.195977,5.2575336 11.5879561,6.5579014 C11.701463,6.93539019 12.0702774,7.03199555 12.430157,6.87352305 C12.7830872,6.71720101 12.7245137,6.39132331 12.6680912,6.0874465 C12.4033522,4.6598706 10.8784556,3.22021903 9.47848282,3.0705138 C9.16807637,3.02502326 8.8525406,3.01079712 8.73142251,3.3800149 C8.6238723,3.70969726 8.72943697,4.05112445 9.06333901,4.11431495 Z" id="Color"></path>
                <path class="colorizable" d="M9.40419045,2.17608705 C11.746965,2.56101974 13.039553,4.01572454 13.5720093,6.26130308 C13.6441507,6.56799203 13.7692399,6.87203427 14.1562552,6.83398764 C14.6250086,6.78915877 14.6134263,6.40621113 14.6202102,6.06081385 C14.6638921,3.8898398 11.7365409,0.993332974 9.52315753,1.01384507 C9.16658721,1.0173189 8.80141288,1.04378612 8.76666589,1.5041504 C8.7340699,1.92994186 9.05374222,2.1190171 9.40419045,2.17608705 Z" id="Color"></path>
            </g>
        </g>
    </g>
</svg>