<?xml version="1.0" encoding="UTF-8"?>
<svg width="11px" height="11px" viewBox="0 0 11 11" version="1.1" xmlns="http://www.w3.org/2000/svg" xmlns:xlink="http://www.w3.org/1999/xlink">
    <defs></defs>
    <g id="Atendimento-Screen" stroke="none" stroke-width="1" fill="none" fill-rule="evenodd">
        <g id="Atendimento-4" transform="translate(-1145.000000, -217.000000)" fill="#E0634A">
            <g id="phone-1" transform="translate(874.000000, 213.000000)">
                <path d="M275.28125,8.28125 L271.21875,8.28125 L271.21875,8.28125 C270.545653,8.28125 270,8.82690296 270,9.5 C270,10.173097 270.545653,10.71875 271.21875,10.71875 L275.28125,10.71875 L275.28125,14.78125 C275.28125,15.454347 275.826903,16 276.5,16 L276.5,16 C277.173097,16 277.71875,15.454347 277.71875,14.78125 L277.71875,14.78125 L277.71875,10.71875 L281.78125,10.71875 C282.454347,10.71875 283,10.173097 283,9.5 L283,9.5 C283,8.82690296 282.454347,8.28125 281.78125,8.28125 L281.78125,8.28125 L277.71875,8.28125 L277.71875,4.21875 L277.71875,4.21875 C277.71875,3.54565296 277.173097,3 276.5,3 C275.826903,3 275.28125,3.54565296 275.28125,4.21875 L275.28125,8.28125 Z" id="ic-remove" transform="translate(276.500000, 9.500000) rotate(-315.000000) translate(-276.500000, -9.500000) "></path>
            </g>
        </g>
    </g>
</svg>