<?xml version="1.0" encoding="UTF-8"?>
<svg width="11px" height="16px" viewBox="0 0 11 16" version="1.1" xmlns="http://www.w3.org/2000/svg" xmlns:xlink="http://www.w3.org/1999/xlink">
    <defs></defs>
    <g id="Atendimento-Card" stroke="none" stroke-width="1" fill="none" fill-rule="evenodd">
        <g id="Cards-Request-Board" transform="translate(-232.000000, -594.000000)" fill-rule="nonzero" fill="#3E414C">
            <g id="Group-5" transform="translate(85.000000, 127.000000)">
                <g id="card-985-copy" transform="translate(0.000000, 343.000000)">
                    <path d="M157.544365,132.028007 L153.656126,129.84348 L155.61629,125.283346 C155.755332,125.008035 155.738696,124.682784 155.57224,124.422157 C155.405784,124.16153 155.112862,124.002092 154.796652,124.000003 C154.589926,123.999526 154.389052,124.06652 154.226389,124.190193 L154.162211,124.243518 L147.286052,130.553584 C147.076477,130.746517 146.972786,131.023808 147.006148,131.302106 C147.03951,131.580404 147.206034,131.827256 147.455664,131.968461 L151.34482,134.154766 L149.361736,138.767336 C149.193128,139.155165 149.328576,139.604461 149.68609,139.843249 C150.043603,140.082036 150.524942,140.044699 150.838735,139.753839 L157.714894,133.441995 C157.924015,133.248931 158.027311,132.971781 157.993778,132.693733 C157.960245,132.415685 157.793787,132.169105 157.544365,132.028007 L157.544365,132.028007 Z" id="ic-status"></path>
                </g>
            </g>
        </g>
    </g>
</svg>