<svg width="10" height="12" viewBox="0 0 10 12" fill="none" xmlns="http://www.w3.org/2000/svg">
<g id="ic-stock">
<path id="Shape" fill-rule="evenodd" clip-rule="evenodd" d="M0.639404 1.16473L2.57129 0.113937C2.71191 0.0379791 2.89673 0 3.08154 0C3.26636 0 3.45117 0.0379791 3.5918 0.113937L5.52368 1.16347C5.63257 1.23563 5.625 1.34198 5.50098 1.40781L5.1731 1.58252L5.15283 1.59265L5.12354 1.60785L3.54736 2.46494C3.40283 2.53654 3.24292 2.57216 3.08154 2.56876C2.92017 2.57216 2.76025 2.53654 2.61572 2.46494L1.03955 1.60785L1.01025 1.59265L0.991211 1.58252L0.662109 1.40781C0.538086 1.34198 0.530518 1.23563 0.639404 1.16473ZM2.646 5.69328L2.63965 6.04144C2.63721 6.16551 2.55347 6.22374 2.44458 6.18703L0.510254 5.13623C0.230469 4.98431 0 4.61211 0 4.30952V2.48267L0.00512695 2.24464C0.00634766 2.11804 0.09375 2.06108 0.20752 2.10286L0.571045 2.30035L0.656982 2.34846L2.11035 3.13593L2.43066 3.31697C2.54468 3.38026 2.63843 3.5322 2.646 3.65753V5.69075V5.69328ZM5.65283 5.13623C5.93384 4.98431 6.16309 4.61211 6.16309 4.30952V4.30699V2.48392L6.15918 2.24591C6.15674 2.12057 6.06934 2.06235 5.95654 2.10413L5.59204 2.30162L5.50586 2.34846L4.05249 3.13719L3.73364 3.31697C3.61963 3.38153 3.52466 3.53218 3.51831 3.65878V5.69328L3.52466 6.04143C3.52588 6.1655 3.61084 6.22501 3.71973 6.18703L5.65283 5.13623Z" transform="translate(3.57129)" fill="white"/>
<path id="Color" fill-rule="evenodd" clip-rule="evenodd" d="M0.0777284 1.16347L2.00967 0.113942C2.14893 0.0379805 2.33504 1.48364e-08 2.51988 0C2.70471 0 2.88955 0.0379805 3.03008 0.113942L4.96076 1.16347C5.0709 1.23563 5.06331 1.34198 4.93924 1.40781L4.61007 1.58252L4.59108 1.59265L4.56196 1.60784L2.98577 2.46494C2.84109 2.53654 2.68127 2.57215 2.51988 2.56875C2.35849 2.57215 2.19866 2.53654 2.05398 2.46494L0.475258 1.60658L0.447405 1.59138L0.428415 1.58126H0.427149L0.0979846 1.40655C-0.024819 1.34071 -0.0324151 1.23437 0.0764624 1.1622L0.0777284 1.16347Z" transform="translate(0.562866 5.80089)" fill="white"/>
<path id="Color_2" fill-rule="evenodd" clip-rule="evenodd" d="M2.64598 3.60144L2.63838 3.94959C2.63711 4.07366 2.55229 4.1319 2.44468 4.09519L0.510205 3.04439C0.229149 2.89247 0 2.52026 0 2.21768V0.393351L0.00379805 0.15534C0.00633009 0.0287383 0.0949513 -0.0282325 0.206361 0.0135461L0.570974 0.211045L0.657063 0.259153V0.257887L2.11045 1.04662L2.43075 1.22766C2.54469 1.29096 2.63838 1.44288 2.64598 1.56822V3.60144Z" transform="translate(0 7.8902)" fill="white"/>
<path id="Color_3" fill-rule="evenodd" clip-rule="evenodd" d="M2.64598 2.21754C2.64598 2.52012 2.41683 2.89233 2.13577 3.04425L0.201297 4.09505C0.0936853 4.13303 0.00886212 4.07352 0.00633009 3.94945L0 3.6013V1.56807C0.00759611 1.44147 0.101281 1.29082 0.215223 1.22625L0.535525 1.04521L1.98891 0.257747L2.075 0.210904L2.43962 0.0134054C2.55103 -0.0283732 2.63965 0.0298636 2.64218 0.155199L2.64598 0.393211V2.21628V2.21754Z" transform="translate(3.51685 7.89034)" fill="white"/>
</g>
</svg>
