<?xml version="1.0" encoding="UTF-8"?>
<svg width="20px" height="16px" viewBox="0 0 20 16" version="1.1" xmlns="http://www.w3.org/2000/svg" xmlns:xlink="http://www.w3.org/1999/xlink">
    <defs></defs>
    <g id="Atendimento-Screen" stroke="none" stroke-width="1" fill="none" fill-rule="evenodd">
        <g id="Client-Add-Helper" transform="translate(-1070.000000, -131.000000)" fill-rule="nonzero" fill="#3E414C">
            <path d="M1070,131 L1089.69231,131 L1089.69231,146.86 L1070,146.86 L1070,131 Z M1071.23077,132.22 L1071.23077,145.64 L1088.46154,145.64 L1088.46154,132.22 L1071.23077,132.22 Z M1077.38462,138.32 C1076.02515,138.32 1074.92308,137.227575 1074.92308,135.88 C1074.92308,134.532425 1076.02515,133.44 1077.38462,133.44 C1078.74409,133.44 1079.84615,134.532425 1079.84615,135.88 C1079.84615,137.227575 1078.74409,138.32 1077.38462,138.32 L1077.38462,138.32 Z M1077.38462,137.1 C1078.06435,137.1 1078.61538,136.553787 1078.61538,135.88 C1078.61538,135.206213 1078.06435,134.66 1077.38462,134.66 C1076.70488,134.66 1076.15385,135.206213 1076.15385,135.88 C1076.15385,136.553787 1076.70488,137.1 1077.38462,137.1 L1077.38462,137.1 Z M1072.46154,143.2 L1072.46154,141.97756 C1072.46154,140.6319 1073.55323,139.54 1074.92062,139.54 L1079.84862,139.54 C1081.20615,139.54 1082.30769,140.62214 1082.30769,141.97756 L1082.30769,143.2 L1081.07692,143.2 L1081.07692,141.97756 C1081.07857,141.654145 1080.94969,141.343504 1080.71898,141.114813 C1080.48827,140.886121 1080.17488,140.758367 1079.84862,140.76 L1074.92062,140.76 C1074.59435,140.758367 1074.28096,140.886121 1074.05025,141.114813 C1073.81954,141.343504 1073.69066,141.654145 1073.69231,141.97756 L1073.69231,143.2 L1072.46154,143.2 Z M1082.30769,134.66 L1087.23077,134.66 L1087.23077,135.88 L1082.30769,135.88 L1082.30769,134.66 L1082.30769,134.66 Z M1083.53846,138.32 L1087.23077,138.32 L1087.23077,139.54 L1083.53846,139.54 L1083.53846,138.32 Z M1084.76923,141.98 L1087.23077,141.98 L1087.23077,143.2 L1084.76923,143.2 L1084.76923,141.98 Z" id="ic-client-info"></path>
        </g>
    </g>
</svg>