<?xml version="1.0" encoding="UTF-8"?>
<svg width="13px" height="13px" viewBox="0 0 13 13" version="1.1" xmlns="http://www.w3.org/2000/svg" xmlns:xlink="http://www.w3.org/1999/xlink">
    <defs></defs>
    <g id="Atendimento-Dashboard" stroke="none" stroke-width="1" fill="none" fill-rule="evenodd">
        <g id="Cards-Request-Board" transform="translate(-457.000000, -90.000000)" fill="#CECECE">
            <path class="colorizable" d="M462.28125,95.28125 L458.21875,95.28125 L458.21875,95.28125 C457.545653,95.28125 457,95.826903 457,96.5 C457,97.173097 457.545653,97.71875 458.21875,97.71875 L462.28125,97.71875 L462.28125,101.78125 C462.28125,102.454347 462.826903,103 463.5,103 L463.5,103 C464.173097,103 464.71875,102.454347 464.71875,101.78125 L464.71875,101.78125 L464.71875,97.71875 L468.78125,97.71875 C469.454347,97.71875 470,97.173097 470,96.5 L470,96.5 C470,95.826903 469.454347,95.28125 468.78125,95.28125 L468.78125,95.28125 L464.71875,95.28125 L464.71875,91.21875 L464.71875,91.21875 C464.71875,90.545653 464.173097,90 463.5,90 C462.826903,90 462.28125,90.545653 462.28125,91.21875 L462.28125,95.28125 Z" id="ic-add"></path>
        </g>
    </g>
</svg>