<?xml version="1.0" encoding="UTF-8"?>
<svg width="14px" height="16px" viewBox="0 0 14 16" version="1.1" xmlns="http://www.w3.org/2000/svg" xmlns:xlink="http://www.w3.org/1999/xlink">
    <defs></defs>
    <g id="Atendimento-Draft" stroke="none" stroke-width="1" fill="none" fill-rule="evenodd">
        <g id="Client-Add-Helper" transform="translate(-1074.000000, -319.000000)" fill-rule="nonzero" fill="#3E414C">
            <path d="M1087.71353,321.046401 C1087.61043,320.943237 1087.48902,320.891347 1087.3487,320.891347 C1087.27885,320.891347 1087.13151,320.94907 1086.90761,321.062981 C1086.6834,321.177199 1086.44547,321.304312 1086.19503,321.446163 C1085.94398,321.587093 1085.64687,321.71482 1085.304,321.829038 C1084.96143,321.942949 1084.64419,322.000672 1084.35226,322.000672 C1084.0826,322.000672 1083.84467,321.949089 1083.63968,321.845618 C1082.95974,321.525071 1082.36826,321.28589 1081.86616,321.128073 C1081.36405,320.970563 1080.82413,320.891347 1080.24607,320.891347 C1079.24797,320.891347 1078.11107,321.218035 1076.8366,321.870181 C1076.57365,322.002207 1076.38513,322.10445 1076.26312,322.179367 L1076.14202,321.285583 C1076.41564,321.046401 1076.59226,320.697914 1076.59226,320.3046 C1076.59226,319.583984 1076.01207,319 1075.29613,319 C1074.58019,319 1074,319.583984 1074,320.3046 C1074,320.774673 1074.24953,321.183339 1074.61985,321.413003 L1076.3708,334.336186 C1076.42296,334.720903 1076.74997,335 1077.12548,335 C1077.15964,335 1077.19442,334.997851 1077.2295,334.993245 C1077.64679,334.935522 1077.93903,334.548963 1077.88198,334.128936 L1077.17825,328.934793 C1078.45516,328.297077 1079.55972,327.97561 1080.48888,327.97561 C1080.88331,327.97561 1081.26797,328.034868 1081.64286,328.154612 C1082.01807,328.274664 1082.33013,328.404847 1082.57843,328.545777 C1082.82674,328.687014 1083.11989,328.817812 1083.45696,328.936942 C1083.79464,329.056687 1084.12805,329.116559 1084.4572,329.116559 C1085.28874,329.116559 1086.28471,328.801232 1087.4454,328.170885 C1087.59121,328.09474 1087.69798,328.019823 1087.76539,327.946441 C1087.83281,327.873059 1087.86667,327.768667 1087.86667,327.632957 L1087.86667,321.41331 C1087.86667,321.27238 1087.81572,321.149872 1087.71353,321.046401 Z" id="ic-flag-responsible"></path>
        </g>
    </g>
</svg>