<?xml version="1.0" encoding="UTF-8"?>
<svg width="11px" height="16px" viewBox="0 0 11 16" version="1.1" xmlns="http://www.w3.org/2000/svg" xmlns:xlink="http://www.w3.org/1999/xlink">
    <defs></defs>
    <g id="Atendimento-Card" stroke="none" stroke-width="1" fill="none" fill-rule="evenodd">
        <g id="Cards-Examples" transform="translate(-889.000000, -628.000000)" fill="#3E414C">
            <g id="card-999-copy-6" transform="translate(496.000000, 504.000000)">
                <g id="address-copy-8" transform="translate(393.000000, 124.000000)">
                    <path d="M5.60393157,16 C5.45897408,16 0,7.81446324 0,5.03416866 C0,2.25387408 2.38781467,0 5.33333333,0 C8.278852,0 10.6666667,2.25387408 10.6666667,5.03416866 C10.6666667,7.81446324 5.74888906,16 5.60393157,16 Z M5.33333333,8.13211861 C6.91938185,8.13211861 8.20512821,6.9184941 8.20512821,5.4214124 C8.20512821,3.92433071 6.91938185,2.7107062 5.33333333,2.7107062 C3.74728482,2.7107062 2.46153846,3.92433071 2.46153846,5.4214124 C2.46153846,6.9184941 3.74728482,8.13211861 5.33333333,8.13211861 Z" id="ic-location-map"></path>
                </g>
            </g>
        </g>
    </g>
</svg>