<?xml version="1.0" encoding="UTF-8"?>
<svg style="width: 28px; height: 36px;" viewBox="0 0 24 31" version="1.1" xmlns="http://www.w3.org/2000/svg" xmlns:xlink="http://www.w3.org/1999/xlink">
    <defs>
        <path d="M74,69 L88.08802,69 L88.08802,69 C89.5161992,69 90.8762112,69.6107306 91.8250478,70.6781597 L98.0472531,77.678061 L98.0472531,77.678061 C99.7312016,79.5724817 99.7312178,82.4272598 98.0472906,84.3216994 L91.8250514,91.3217981 L91.8250514,91.3217981 C90.8762137,92.3892526 89.516185,93 88.0879861,93 L74,93 L74,93 C71.2385763,93 69,90.7614237 69,88 L69,74 L69,74 C69,71.2385763 71.2385763,69 74,69 Z" id="path-1"></path>
    </defs>
    <g id="Atendimento-Card" stroke="none" stroke-width="1" fill="none" fill-rule="evenodd">
        <g id="Cards-Examples" transform="translate(-569.000000, -569.000000)">
            <g id="card-999-copy-6" transform="translate(496.000000, 504.000000)">
                <g id="ic-flag-finished" transform="translate(85.000000, 81.000000) rotate(-270.000000) translate(-85.000000, -81.000000) ">
                    <path class="colorizable stroke fill" stroke="#3A3F4B" stroke-width="2" d="M74,69.5 C71.5147186,69.5 69.5,71.5147186 69.5,74 L69.5,88 C69.5,90.4852814 71.5147186,92.5 74,92.5 L88.0879861,92.5 C89.3733651,92.5 90.5973909,91.9503274 91.4513449,90.9896183 L97.673584,83.9895196 C99.1891185,82.284524 99.189104,79.7152236 97.6735503,78.0102451 L91.451345,71.0103437 C90.597392,70.0496575 89.3733813,69.5 88.08802,69.5 L74,69.5 Z"></path>
                </g>
            </g>
        </g>
    </g>
</svg>