<svg xmlns="http://www.w3.org/2000/svg" viewBox="0 0 183.4 175.1"><defs><style>.terciary{fill:#e2e3e8;}.primary{fill:#3688ff;}</style></defs><title>companies</title><path class="terciary" d="M149.9,175.1H33.5A25.18,25.18,0,0,1,8.4,150V96A8.3,8.3,0,1,1,25,96v54a8.4929,8.4929,0,0,0,8.5,8.5H149.9a8.4929,8.4929,0,0,0,8.5-8.5V96A8.3,8.3,0,0,1,175,96v54a25.18,25.18,0,0,1-25.1,25.1Z"/><path class="primary" d="M141.7,83.4a41.579,41.579,0,0,1-25-8.4,41.4024,41.4024,0,0,1-50,0,41.675,41.675,0,1,1-25-75h100a41.7,41.7,0,0,1,0,83.4Zm-25-32.3,6.3,7.1a25.0057,25.0057,0,1,0,18.8-41.5H41.8a25,25,0,0,0,0,50,25.2812,25.2812,0,0,0,18.8-8.5l6.3-7.1,6.3,7.1a25.0406,25.0406,0,0,0,37.6,0Z"/><path class="primary" d="M66.7,66.5a8.28,8.28,0,0,1-8.3-8.3V50.1a8.3,8.3,0,0,1,16.6,0v8.1A8.3438,8.3438,0,0,1,66.7,66.5Zm50,0a8.28,8.28,0,0,1-8.3-8.3V50.1a8.3,8.3,0,0,1,16.6,0v8.1A8.3438,8.3438,0,0,1,116.7,66.5Z"/><path class="terciary" d="M133.3,137.6a8.28,8.28,0,0,1-8.3-8.3V116.8a8.3,8.3,0,0,1,16.6,0v12.5A8.2791,8.2791,0,0,1,133.3,137.6Z"/></svg>