<svg xmlns="http://www.w3.org/2000/svg" viewBox="0 0 166.7007 166.8"><defs><style>.a{fill:#5f6379;}.terciary{fill:#e2e3e8;}.primary{fill:#3688ff;}</style></defs><title>edit</title><path class="a" d="M141.4,166.8H25.4A25.436,25.436,0,0,1,0,141.4V25.4A25.436,25.436,0,0,1,25.4,0h58a8.3,8.3,0,0,1,0,16.6h-58a8.7063,8.7063,0,0,0-8.7,8.7v116a8.7063,8.7063,0,0,0,8.7,8.7h116a8.7063,8.7063,0,0,0,8.7-8.7v-58a8.3,8.3,0,1,1,16.6,0v58a25.3088,25.3088,0,0,1-25.3,25.5Z"/><path class="a" d="M74.9,131.2a3.0825,3.0825,0,0,1-1-.1l-26.3-3.2a8.28,8.28,0,0,1-7.2-7.2L37.1,94.4a8.3406,8.3406,0,0,1,2.4-6.9l73.2-73.2a25.5907,25.5907,0,0,1,36.2,0l5.1,5.1a25.5907,25.5907,0,0,1,0,36.2L80.8,128.7A8.165,8.165,0,0,1,74.9,131.2ZM56.1,112.1l15.8,2,70.3-70.3a8.9328,8.9328,0,0,0,0-12.6l-5.1-5.1a8.8725,8.8725,0,0,0-12.6,0L54.2,96.4Z"/><path class="terciary" d="M141.4,166.8H25.4A25.436,25.436,0,0,1,0,141.4V25.4A25.436,25.436,0,0,1,25.4,0h58a8.3,8.3,0,0,1,0,16.6h-58a8.7063,8.7063,0,0,0-8.7,8.7v116a8.7063,8.7063,0,0,0,8.7,8.7h116a8.7063,8.7063,0,0,0,8.7-8.7v-58a8.3,8.3,0,1,1,16.6,0v58a25.3088,25.3088,0,0,1-25.3,25.5Z"/><path class="primary" d="M74.9,131.2a3.0825,3.0825,0,0,1-1-.1l-26.3-3.2a8.28,8.28,0,0,1-7.2-7.2L37.1,94.4a8.3406,8.3406,0,0,1,2.4-6.9l73.2-73.2a25.5907,25.5907,0,0,1,36.2,0l5.1,5.1a25.5907,25.5907,0,0,1,0,36.2L80.8,128.7A8.165,8.165,0,0,1,74.9,131.2ZM56.1,112.1l15.8,2,70.3-70.3a8.9328,8.9328,0,0,0,0-12.6l-5.1-5.1a8.8725,8.8725,0,0,0-12.6,0L54.2,96.4Z"/></svg>