<svg xmlns="http://www.w3.org/2000/svg" viewBox="0 0 183.3 174.9"><defs><style>.a{fill:#3688ff;}.secondary{fill:#5f6379;}.terciary{fill:#e2e3e8;}</style></defs><title>groups</title><path class="a" d="M66.7,99.9a47.9,47.9,0,1,1,48-47.9A47.97,47.97,0,0,1,66.7,99.9Zm0-79.2A31.25,31.25,0,1,0,98,52,31.3468,31.3468,0,0,0,66.7,20.7Z"/><path class="a" d="M106.2,174.9H27.1A27.1217,27.1217,0,0,1,0,147.8V129.5A46.3266,46.3266,0,0,1,46.3,83.2H87.1a46.3909,46.3909,0,0,1,46.3,46.3v18.3a27.272,27.272,0,0,1-27.2,27.1Zm-59.9-75a29.6612,29.6612,0,0,0-29.6,29.6v18.3a10.3919,10.3919,0,0,0,10.4,10.4h79.1a10.3919,10.3919,0,0,0,10.4-10.4V129.5A29.6612,29.6612,0,0,0,87,99.9Z"/><path class="a" d="M156.2,166.5a8.3,8.3,0,0,1,0-16.6,10.3919,10.3919,0,0,0,10.4-10.4V121.2A29.6612,29.6612,0,0,0,137,91.6h-2.8a8.3349,8.3349,0,0,1-3.7-15.8,31.024,31.024,0,0,0,17.4-27.9,31.3468,31.3468,0,0,0-31.3-31.3,8.3,8.3,0,0,1,0-16.6,47.918,47.918,0,0,1,37.2,78.1,46.5579,46.5579,0,0,1,29.5,43.1v18.3a27.0364,27.0364,0,0,1-27.1,27Z"/><path class="secondary" d="M66.7,99.9a47.9,47.9,0,1,1,48-47.9A47.97,47.97,0,0,1,66.7,99.9Zm0-79.2A31.25,31.25,0,1,0,98,52,31.3468,31.3468,0,0,0,66.7,20.7Z"/><path class="secondary" d="M106.2,174.9H27.1A27.1217,27.1217,0,0,1,0,147.8V129.5A46.3266,46.3266,0,0,1,46.3,83.2H87.1a46.3909,46.3909,0,0,1,46.3,46.3v18.3a27.272,27.272,0,0,1-27.2,27.1Zm-59.9-75a29.6612,29.6612,0,0,0-29.6,29.6v18.3a10.3919,10.3919,0,0,0,10.4,10.4h79.1a10.3919,10.3919,0,0,0,10.4-10.4V129.5A29.6612,29.6612,0,0,0,87,99.9Z"/><path class="terciary" d="M156.2,166.5a8.3,8.3,0,0,1,0-16.6,10.3919,10.3919,0,0,0,10.4-10.4V121.2A29.6612,29.6612,0,0,0,137,91.6h-2.8a8.3349,8.3349,0,0,1-3.7-15.8,31.024,31.024,0,0,0,17.4-27.9,31.3468,31.3468,0,0,0-31.3-31.3,8.3,8.3,0,0,1,0-16.6,47.918,47.918,0,0,1,37.2,78.1,46.5579,46.5579,0,0,1,29.5,43.1v18.3a27.0364,27.0364,0,0,1-27.1,27Z"/></svg>