<?xml version="1.0" encoding="utf-8"?>
<!-- Generator: Adobe Illustrator 21.0.0, SVG Export Plug-In . SVG Version: 6.00 Build 0)  -->
<svg version="1.1" id="Camada_1" xmlns="http://www.w3.org/2000/svg" xmlns:xlink="http://www.w3.org/1999/xlink" x="0px" y="0px"
	 viewBox="0 0 200 200" enable-background="new 0 0 200 200" xml:space="preserve">
<path fill="#3C92CA" d="M138.3,108.3l-5-83.5c-0.4-6.9-6.1-12.3-13-12.3H98h3.5H79.2c-6.9,0-12.6,5.4-13,12.3l-5,83.5"/>
<path d="M39.1,104.6H3.5c-2,0-3.7,1.7-3.7,3.7c0,2,1.7,3.7,3.7,3.7h9v15.3c0,2,1.7,3.7,3.7,3.7h9.2v56.5c0,2,1.7,3.7,3.7,3.7h12.9
	c2,0,3.7-1.7,3.7-3.7c0-2-1.7-3.7-3.7-3.7h-9.2V131h133.8v52.8h-9.2c-2,0-3.7,1.7-3.7,3.7c0,2,1.7,3.7,3.7,3.7h12.9
	c2,0,3.7-1.7,3.7-3.7V131h9.5c2,0,3.7-1.7,3.7-3.7V112h9c2,0,3.7-1.7,3.7-3.7s-1.7-3.7-3.7-3.7h-35.6l-4.4-24.1
	c-1-5.4-5.7-9.4-11.2-9.4h-5.1L137,24.5c-0.5-8.8-7.9-15.7-16.7-15.7H79.3c-8.8,0-16.2,6.9-16.7,15.7l-2.8,46.6h-5.1
	c-5.5,0-10.2,4-11.2,9.4L39.1,104.6L39.1,104.6z M179.7,123.6H19.9V112h159.8L179.7,123.6L179.7,123.6z M144.9,78.5
	c2,0,3.6,1.4,4,3.3l4.1,22.8h-11.2l-1.5-26.1H144.9z M69.9,25c0.3-4.9,4.4-8.8,9.3-8.8h41.1c4.9,0,9,3.9,9.3,8.8l4.8,79.7H65.2
	L69.9,25L69.9,25z M50.7,81.8c0.3-1.9,2-3.3,4-3.3h4.6l-1.5,26.1H46.6C46.6,104.6,50.7,81.8,50.7,81.8z"/>
<path d="M82.1,52.8h34.5c2,0,3.7-1.7,3.7-3.7s-1.7-3.7-3.7-3.7H82.1c-2,0-3.7,1.7-3.7,3.7C78.4,51.1,80.1,52.8,82.1,52.8z
	 M138.3,147.2c2,0,3.7-1.7,3.7-3.7c0-2-1.7-3.7-3.7-3.7H61.3c-2,0-3.7,1.7-3.7,3.7c0,2,1.7,3.7,3.7,3.7h34.9v16.2H79.2
	c-2,0-3.7,1.7-3.7,3.7v20.4c0,2,1.7,3.7,3.7,3.7c2,0,3.7-1.7,3.7-3.7v-16.7h13.3v16.7c0,2,1.7,3.7,3.7,3.7s3.7-1.7,3.7-3.7v-16.7
	h13.3v16.7c0,2,1.7,3.7,3.7,3.7s3.7-1.7,3.7-3.7v-20.4c0-2-1.7-3.7-3.7-3.7h-16.9v-16.2L138.3,147.2L138.3,147.2z"/>
</svg>
