<?xml version="1.0" encoding="utf-8"?>
<svg version="1.1" class="icon" xmlns="http://www.w3.org/2000/svg" xmlns:xlink="http://www.w3.org/1999/xlink" x="0px" y="0px"
	 viewBox="0 0 200 200" enable-background="new 0 0 200 200" xml:space="preserve">
<path fill="#3C92CA" d="M135.3,141.3H67.7c-1.6,0-2.9-1.3-2.9-2.9V91.8c0-1.6,1.3-2.9,2.9-2.9h67.6c1.6,0,2.9,1.3,2.9,2.9v46.6
	C138.2,140,136.9,141.3,135.3,141.3z"/>
<path d="M9.4,136.3c0.4,0,0.9-0.1,1.3-0.2c1.9-0.7,2.9-2.8,2.2-4.7C0.8,97.7,8.8,60.9,33.8,35.3C51.1,17.6,74.2,7.7,98.9,7.5
	c24.7-0.3,48.1,9.1,65.8,26.4l0.6,0.5l-11.2,0.1c-2,0-3.7,1.7-3.7,3.8c0,2,1.7,3.7,3.7,3.7h0l20.2-0.2c1,0,1.9-0.4,2.6-1.1
	c0.7-0.7,1.1-1.6,1.1-2.6l-0.2-20.2c0-2-1.7-3.7-3.8-3.7c-2,0-3.7,1.7-3.7,3.8l0.1,11.2l-0.6-0.5C151,10.2,126.3,0.1,100,0.1h-1.2
	c-26.7,0.3-51.7,11-70.3,30.1C15.1,43.9,6,60.9,2.1,79.6c-3.8,18.2-2.5,36.9,3.8,54.3C6.4,135.4,7.9,136.3,9.4,136.3z M194.1,66.2
	c-0.7-1.9-2.8-2.9-4.7-2.2c-1.9,0.7-2.9,2.8-2.2,4.7c12.1,33.7,4,70.5-20.9,96c-18.1,18.5-42.2,27.8-66.2,27.8
	c-23.3,0-46.7-8.8-64.7-26.3l-0.6-0.5l11.2-0.1c2,0,3.7-1.7,3.7-3.8c0-2-1.7-3.7-3.7-3.7h0l-20.2,0.2c-2,0-3.7,1.7-3.7,3.8l0.2,20.2
	c0,2,1.7,3.7,3.7,3.7h0c2,0,3.7-1.7,3.7-3.8l-0.1-11.2l0.6,0.5c19.4,19,44.7,28.4,69.9,28.4c26,0,52-10.1,71.5-30.1
	c13.4-13.7,22.5-30.8,26.4-49.4C201.7,102.4,200.4,83.6,194.1,66.2L194.1,66.2z"/>
<path d="M101.5,40.7c-16.4,0-29.6,13.3-29.6,29.6v14.8h-1.2c-5.3,0-9.7,4.3-9.7,9.7v40.6c0,5.3,4.3,9.7,9.7,9.7h61.7
	c5.3,0,9.7-4.3,9.7-9.7V94.8c0-5.3-4.3-9.7-9.7-9.7h-1.2V70.4C131.1,54,117.8,40.7,101.5,40.7L101.5,40.7z M79.3,70.4
	c0-12.3,10-22.2,22.2-22.2s22.2,10,22.2,22.2v14.8H79.3V70.4z M134.5,94.8v40.6c0,1.2-1,2.2-2.2,2.2H70.7c-1.2,0-2.2-1-2.2-2.2V94.8
	c0-1.2,1-2.2,2.2-2.2h61.6C133.5,92.6,134.5,93.5,134.5,94.8z"/>
<path d="M102.5,105.5c-2.5-0.5-5.1,0.9-6.1,3.3c-1.1,2.4-0.4,5.2,1.8,6.8c0.4,0.3,0.5,0.7,0.5,1.1v7.3c0,2,2.1,3.5,4.3,2.5
	c0.9-0.4,1.4-1.4,1.3-2.5v-7.3c0-0.5,0.1-0.9,0.6-1.2c1.5-1.1,2.3-2.7,2.3-4.5C107.1,108.3,105.2,106.1,102.5,105.5z"/>
</svg>
