<?xml version="1.0" encoding="utf-8"?>
<!-- Generator: Adobe Illustrator 21.0.0, SVG Export Plug-In . SVG Version: 6.00 Build 0)  -->
<svg version="1.1" id="Camada_1" xmlns="http://www.w3.org/2000/svg" xmlns:xlink="http://www.w3.org/1999/xlink" x="0px" y="0px" viewBox="0 0 200 200" enable-background="new 0 0 200 200" xml:space="preserve">
<path fill="#A7A9AC" d="M196.2,184.6v-10c0-2.1-0.9-4.1-2.6-5.5c-9.1-7.4-18.8-12.4-20.8-13.4c-0.2-0.1-0.4-0.3-0.4-0.6v-14.1
	c1.8-1.2,2.9-3.2,2.9-5.5V121c0-7.3-5.9-13.2-13.2-13.2H159c-7.3,0-13.2,5.9-13.2,13.2v14.6c0,2.3,1.2,4.3,2.9,5.5v14.1
	c0,0.2-0.1,0.5-0.4,0.6c-2,1-11.8,5.9-20.8,13.4c-1.6,1.3-2.6,3.4-2.6,5.5v10"/>
<path fill="#359BD3" d="M74.8,184.6v-10c0-2.1-0.9-4.1-2.6-5.5c-9.1-7.4-18.8-12.4-20.8-13.4c-0.2-0.1-0.4-0.3-0.4-0.6v-14.1
	c1.8-1.2,2.9-3.2,2.9-5.5V121c0-7.3-5.9-13.2-13.2-13.2h-3.2c-7.3,0-13.2,5.9-13.2,13.2v14.6c0,2.3,1.2,4.3,2.9,5.5v14.1
	c0,0.2-0.1,0.5-0.4,0.6c-2,1-11.8,5.9-20.8,13.4c-1.6,1.3-2.6,3.4-2.6,5.5v10"/>
<path fill="#999999" d="M100.3,96.2c-2,0-3.7,1.7-3.7,3.7v23.5l-20.3,11.7c-1.8,1-2.4,3.3-1.3,5.1c0.7,1.2,1.9,1.8,3.2,1.8
	c0.6,0,1.3-0.2,1.8-0.5l20.3-11.7l20.3,11.7c0.6,0.3,1.2,0.5,1.8,0.5c1.3,0,2.5-0.7,3.2-1.8c1-1.8,0.4-4-1.3-5.1L104,123.4V99.9
	C103.9,97.9,102.3,96.2,100.3,96.2L100.3,96.2z M84.4,60.9c-3.8,2-12.1,6.6-19.9,13c-2.5,2-3.9,5.1-3.9,8.3v10c0,2,1.7,3.7,3.7,3.7
	c2,0,3.7-1.7,3.7-3.7v-10c0-1,0.4-2,1.2-2.6c8.8-7.2,18.3-12,20.1-12.9c1.5-0.7,2.5-2.2,2.5-3.9V48.6c0-1.2-0.6-2.4-1.6-3.1
	c-0.8-0.5-1.3-1.4-1.3-2.4V28.5c0-5.2,4.3-9.5,9.5-9.5h3.1c5.2,0,9.5,4.3,9.5,9.5v14.6c0,1-0.5,1.9-1.3,2.4c-1,0.7-1.6,1.8-1.6,3.1
	v14.1c0,1.7,0.9,3.2,2.5,3.9c1.8,0.9,11.3,5.7,20.1,12.9c0.8,0.7,1.2,1.6,1.2,2.6v10c0,2,1.7,3.7,3.7,3.7s3.7-1.7,3.7-3.7v-10
	c0-3.2-1.4-6.3-3.9-8.3c-7.8-6.4-16.1-11-19.9-13V50.4c1.9-1.9,2.9-4.5,2.9-7.2V28.5c0-9.3-7.6-16.9-16.9-16.9h-3.1
	c-9.3,0-16.9,7.6-16.9,16.9v14.6c0,2.7,1.1,5.3,2.9,7.2L84.4,60.9L84.4,60.9L84.4,60.9z M37.7,111.4h3.1c5.2,0,9.5,4.3,9.5,9.5v14.6
	c0,1-0.5,1.9-1.3,2.4c-1,0.7-1.6,1.8-1.6,3.1v14.1c0,1.7,0.9,3.2,2.5,3.9c1.8,0.9,11.3,5.7,20.1,12.9c0.8,0.7,1.2,1.6,1.2,2.6v10
	c0,2,1.7,3.7,3.7,3.7c2,0,3.7-1.7,3.7-3.7v-10c0-3.2-1.4-6.3-3.9-8.3c-7.8-6.4-16.1-11-19.9-13v-10.5c1.9-1.9,2.9-4.5,2.9-7.2v-14.6
	c0-9.3-7.6-16.9-16.9-16.9h-3.1c-9.3,0-16.9,7.6-16.9,16.9v14.6c0,2.7,1.1,5.3,2.9,7.2v10.5c-3.8,2-12.1,6.6-19.9,13
	c-2.5,2-3.9,5.1-3.9,8.3v10c0,2,1.7,3.7,3.7,3.7s3.7-1.7,3.7-3.7v-10c0-1,0.4-2,1.2-2.6c8.8-7.2,18.3-12,20.1-12.9
	c1.5-0.7,2.5-2.2,2.5-3.9V141c0-1.2-0.6-2.4-1.6-3.1c-0.8-0.5-1.3-1.4-1.3-2.4v-14.6C28.2,115.7,32.5,111.4,37.7,111.4L37.7,111.4z
	 M125.2,166.2c-2.5,2-3.9,5.1-3.9,8.3v10c0,2,1.7,3.7,3.7,3.7c2,0,3.7-1.7,3.7-3.7v-10c0-1,0.4-2,1.2-2.6c8.8-7.2,18.3-12,20.1-12.9
	c1.5-0.7,2.5-2.2,2.5-3.9V141c0-1.2-0.6-2.4-1.6-3.1c-0.8-0.5-1.3-1.4-1.3-2.4v-14.6c0-5.2,4.3-9.5,9.5-9.5h3.1
	c5.2,0,9.5,4.3,9.5,9.5v14.6c0,1-0.5,1.9-1.3,2.4c-1,0.7-1.6,1.8-1.6,3.1v14.1c0,1.7,0.9,3.2,2.5,3.9c1.8,0.9,11.3,5.7,20.1,12.9
	c0.8,0.7,1.2,1.6,1.2,2.6v10c0,2,1.7,3.7,3.7,3.7s3.7-1.7,3.7-3.7v-10c0-3.2-1.4-6.3-3.9-8.3c-7.8-6.4-16.1-11-19.9-13v-10.5
	c1.9-1.9,2.9-4.5,2.9-7.2v-14.6c0-9.3-7.6-16.9-16.9-16.9h-3.1c-9.3,0-16.9,7.6-16.9,16.9v14.6c0,2.7,1.1,5.3,2.9,7.2v10.5
	C141.3,155.2,133,159.9,125.2,166.2L125.2,166.2z"/>
</svg>
