<?xml version="1.0" encoding="utf-8"?>
<!-- Generator: Adobe Illustrator 21.0.0, SVG Export Plug-In . SVG Version: 6.00 Build 0)  -->
<svg version="1.1" id="Camada_1" xmlns="http://www.w3.org/2000/svg" xmlns:xlink="http://www.w3.org/1999/xlink" x="0px" y="0px"
	 viewBox="0 0 200 200" enable-background="new 0 0 200 200" xml:space="preserve">
<path fill="#3C92CA" d="M17.4,138.3h165.9v27.2H17.4V138.3z"/>
<path d="M99.8,179.3c-2,0-3.7,1.7-3.7,3.7v9.6h-32c-2,0-3.7,1.7-3.7,3.7c0,2,1.7,3.7,3.7,3.7h71.4c2,0,3.7-1.7,3.7-3.7
	c0-2-1.7-3.7-3.7-3.7h-32V183C103.5,180.9,101.9,179.3,99.8,179.3L99.8,179.3z M21.6,169.2H178c4.9,0,8.9-4,8.9-8.9V52.5
	c0-4.9-4-8.9-8.9-8.9h-43.8c-2,0-3.7,1.7-3.7,3.7s1.7,3.7,3.7,3.7H178c0.9,0,1.6,0.7,1.6,1.6v107.8c0,0.9-0.7,1.6-1.6,1.6H21.6
	c-0.9,0-1.6-0.7-1.6-1.6v-17.9h147.6c2,0,3.7-1.7,3.7-3.7s-1.7-3.7-3.7-3.7H149c-1.6-10.7-10.8-19-22-19c-2,0-3.7,1.7-3.7,3.7
	c0,2,1.7,3.7,3.7,3.7c7.1,0,13,5,14.5,11.6h-16.9c-1.4-11.4-10.5-20.5-21.9-21.9V87.2c0-2-1.7-3.7-3.7-3.7c-2,0-3.7,1.7-3.7,3.7
	v25.9c-10.9,1.8-19.5,10.7-21,21.8h-17c1.5-6.6,7.4-11.6,14.5-11.6c2,0,3.7-1.7,3.7-3.7c0-2-1.7-3.7-3.7-3.7c-11.2,0-20.4,8.3-22,19
	H18.1c-0.5-0.3-1.1-0.5-1.8-0.5c-2,0-3.7,1.7-3.7,3.7v22.1C12.6,165.2,16.7,169.2,21.6,169.2L21.6,169.2z M99.5,120.1
	c8.8,0,16.1,6.4,17.6,14.7H81.8C83.3,126.5,90.6,120.1,99.5,120.1z M16.3,126.8c2,0,3.7-1.7,3.7-3.7V52.5c0-0.9,0.7-1.6,1.6-1.6
	h43.9c2,0,3.7-1.7,3.7-3.7s-1.7-3.7-3.7-3.7h-44c-4.9,0-8.9,4-8.9,8.9v70.7C12.6,125.2,14.3,126.8,16.3,126.8z"/>
<path d="M95.2,152.5c0,2.4,1.9,4.3,4.3,4.3c2.4,0,4.3-1.9,4.3-4.3l0,0c0-2.4-1.9-4.3-4.3-4.3C97.1,148.2,95.2,150.2,95.2,152.5z"/>
<path d="M66.7,93c0,2,1.7,3.7,3.7,3.7H78v8.6c0,2,1.7,3.7,3.7,3.7c2,0,3.7-1.7,3.7-3.7v-8.6h0.5c2,0,3.7-1.7,3.7-3.7
	c0-2-1.7-3.7-3.7-3.7H74.1v-4.1c0-1.4,0.4-2.7,1.2-3.9l6.7-9.6c1.6-2.3,2.5-5,2.5-7.8V31.7c0-3,1.1-6,3.1-8.3L99.6,9.4l12.1,14.1
	c2,2.3,3.1,5.3,3.1,8.3v32.4c0,2.6,0.7,5.1,2.1,7.3l6.3,9.8c0.7,1.1,1.1,2.3,1.1,3.6v4.4H113c-2,0-3.7,1.7-3.7,3.7
	c0,1.9,1.4,3.4,3.3,3.7v8.6c0,2,1.7,3.7,3.7,3.7c2,0,3.7-1.7,3.7-3.7v-8.6h7.9c2,0,3.7-1.7,3.7-3.7v-8.1c0-2.7-0.8-5.3-2.2-7.6
	l-6.3-9.8c-0.7-1-1-2.2-1-3.3V31.8c0-4.8-1.8-9.5-4.9-13.2l-15-17.4c-0.7-0.8-1.7-1.3-2.8-1.3c-1.1,0-2.1,0.5-2.8,1.3L81.8,18.7
	C78.7,22.3,77,27,77,31.7v32.2c0,1.3-0.4,2.5-1.1,3.6l-6.7,9.6c-1.7,2.4-2.5,5.2-2.5,8.1C66.7,85.2,66.7,93,66.7,93z"/>
</svg>
