<?xml version="1.0" encoding="utf-8"?>
<!-- Generator: Adobe Illustrator 21.0.0, SVG Export Plug-In . SVG Version: 6.00 Build 0)  -->
<svg version="1.1" id="Camada_1" xmlns="http://www.w3.org/2000/svg" xmlns:xlink="http://www.w3.org/1999/xlink" x="0px" y="0px"
	 viewBox="0 0 200 200" enable-background="new 0 0 200 200" xml:space="preserve">
<path fill="#359BD3" d="M90.5,68.5h7.3c1.1,5.8,3.4,11.1,6.6,15.9l-5.1,5.1c-1.8,1.8-1.8,4.8,0,6.7l5.6,5.6c1.8,1.8,4.8,1.8,6.7,0
	l5.1-5.1c4.7,3.2,10.1,5.4,15.9,6.6v7.3c0,2.6,2.1,4.7,4.7,4.7h7.9c2.6,0,4.7-2.1,4.7-4.7v-7.3c5.8-1.1,11.1-3.4,15.9-6.6l5.1,5.1
	c1.8,1.8,4.8,1.8,6.7,0l5.6-5.6c1.8-1.8,1.8-4.8,0-6.7l-5.1-5.1c3.2-4.7,5.4-10.1,6.6-15.9h7.3c2.6,0,4.7-2.1,4.7-4.7v-7.9
	c0-2.6-2.1-4.7-4.7-4.7h-7.3c-1.1-5.8-3.4-11.1-6.6-15.9l5.1-5.1c1.8-1.8,1.8-4.8,0-6.7l-5.6-5.6c-1.8-1.8-4.8-1.8-6.7,0l-5.1,5.1
	c-4.7-3.2-10.1-5.4-15.9-6.6V9.3c0-2.6-2.1-4.7-4.7-4.7h-7.9c-2.6,0-4.7,2.1-4.7,4.7v7.3c-5.8,1.1-11.1,3.4-15.9,6.6l-5.1-5.1
	c-1.8-1.8-4.8-1.8-6.7,0l-5.6,5.6c-1.8,1.8-1.8,4.8,0,6.7l5.1,5.1c-3.2,4.7-5.4,10.1-6.6,15.9h-7.3c-2.6,0-4.7,2.1-4.7,4.7v7.9
	C85.8,66.4,87.9,68.5,90.5,68.5L90.5,68.5z M141,39.8c11.1,0,20,9,20,20s-9,20-20,20s-20-9-20-20S130,39.8,141,39.8z"/>
<path fill="#999999" d="M141.3,155.3c-0.6,1.4-2.2,2.1-3.6,1.5l-9.2-3.8c-1.6-0.7-3.5-0.1-4.5,1.3c-4.1,6.2-9.5,11.6-15.7,15.7
	c-1.5,1-2,2.9-1.3,4.5l3.8,9.2c0.6,1.4-0.1,3-1.5,3.6l-10,4.2c-1.4,0.6-3-0.1-3.6-1.5l-3.8-9.2c-0.7-1.6-2.4-2.6-4.1-2.2
	c-7.3,1.5-14.8,1.5-22.2,0c-1.7-0.3-3.5,0.6-4.1,2.2l-3.8,9.2c-0.6,1.4-2.2,2.1-3.6,1.5l-10-4.2c-0.7-0.3-1.2-0.8-1.5-1.5
	s-0.3-1.4,0-2.1l3.8-9.2c0.7-1.6,0.1-3.5-1.3-4.5c-6.2-4.1-11.6-9.5-15.7-15.7c-1-1.5-2.9-2-4.5-1.3l-9.2,3.8
	c-1.4,0.6-3-0.1-3.6-1.5l-4.2-10c-0.6-1.4,0.1-3,1.5-3.6l9.2-3.8c1.6-0.7,2.6-2.4,2.2-4.1c-1.5-7.3-1.5-14.8,0-22.2
	c0.3-1.7-0.6-3.5-2.2-4.1l-9.2-3.8c-0.7-0.3-1.2-0.8-1.5-1.5s-0.3-1.4,0-2.1l4.2-10c0.3-0.7,0.8-1.2,1.5-1.5c0.7-0.3,1.4-0.3,2.1,0
	l9.2,3.8c1.6,0.7,3.5,0.1,4.5-1.3c4.2-6.2,9.5-11.5,15.7-15.7c1.5-1,2-2.9,1.3-4.5l-3.8-9.2c-0.3-0.7-0.3-1.4,0-2.1
	c0.3-0.7,0.8-1.2,1.5-1.5l10-4.2c1.4-0.6,3,0.1,3.6,1.5l3.8,9.2c0.8,1.9,2.9,2.8,4.8,2c1.9-0.8,2.8-2.9,2-4.8l-3.8-9.2
	c-2.2-5.2-8.1-7.6-13.3-5.5l-10,4.2c-2.5,1-4.4,3-5.5,5.5c-1,2.5-1,5.3,0,7.8l2.7,6.5c-5.1,3.8-9.7,8.3-13.5,13.5l-6.5-2.7
	c-2.5-1-5.3-1-7.8,0c-2.5,1-4.4,3-5.5,5.5l-4.2,10c-1,2.5-1,5.3,0,7.8c1,2.5,3,4.4,5.5,5.5l6.5,2.7c-1,6.3-1,12.8,0,19.1l-6.5,2.7
	c-5.2,2.2-7.6,8.1-5.5,13.3l4.2,9.9c2.1,5.2,8.1,7.6,13.3,5.5l6.5-2.7c3.8,5.1,8.3,9.7,13.5,13.5l-2.7,6.5c-1,2.5-1,5.3,0,7.8
	c1,2.5,3,4.4,5.5,5.5l10,4.2c5.2,2.1,11.1-0.3,13.3-5.5l2.7-6.5c6.3,1,12.8,1,19.1,0l2.7,6.5c1.6,3.9,5.4,6.3,9.4,6.3
	c1.3,0,2.6-0.2,3.9-0.8l10-4.2c5.2-2.2,7.6-8.1,5.5-13.3l-2.7-6.5c5.1-3.8,9.7-8.3,13.5-13.5l6.5,2.7c5.2,2.2,11.1-0.3,13.3-5.5
	l4.2-10c1-2.5,1-5.3,0-7.8c-1-2.5-3-4.4-5.5-5.5l-9.2-3.8c-1.9-0.8-4,0.1-4.8,2s0.1,4,2,4.8l9.2,3.8c0.7,0.3,1.2,0.8,1.5,1.5
	c0.3,0.7,0.3,1.4,0,2.1L141.3,155.3L141.3,155.3z"/>
<path fill="#999999" d="M76.4,97.3c2,0,3.7-1.7,3.7-3.7c0-2-1.7-3.7-3.7-3.7h0c-8.7,0.1-16.9,3.5-23,9.7c-6.1,6.2-9.5,14.4-9.4,23.1
	c0.1,8.7,3.5,16.9,9.7,23c6.2,6.1,14.3,9.4,22.9,9.4h0.2c8.7-0.1,16.9-3.5,23-9.7c6.1-6.2,9.5-14.4,9.4-23.1c0-2-1.7-3.7-3.7-3.7h0
	c-2,0-3.7,1.7-3.7,3.7c0,6.7-2.5,13.1-7.3,17.9c-4.7,4.8-11.1,7.5-17.8,7.5h-0.2c-6.7,0-13-2.6-17.7-7.3c-4.8-4.7-7.5-11.1-7.5-17.8
	c0-6.7,2.5-13.1,7.3-17.9C63.3,100.1,69.6,97.4,76.4,97.3L76.4,97.3z M191.6,72.2c4.6,0,8.4-3.8,8.4-8.4v-7.9c0-4.6-3.8-8.4-8.4-8.4
	h-4.3c-1.1-4.1-2.7-8-4.8-11.6l3.1-3.1c3.3-3.3,3.3-8.6,0-11.9l-5.6-5.6c-1.6-1.6-3.7-2.4-5.9-2.4c-2.2,0-4.4,0.9-5.9,2.4l-3.1,3.1
	c-3.7-2.1-7.5-3.8-11.6-4.8V9.3c0-4.6-3.8-8.4-8.4-8.4h-7.9c-4.6,0-8.4,3.8-8.4,8.4v4.3c-4.1,1.1-8,2.7-11.6,4.8l-3.1-3.1
	c-1.6-1.6-3.7-2.4-5.9-2.4c-2.2,0-4.4,0.9-5.9,2.4l-5.6,5.6c-3.3,3.3-3.3,8.6,0,11.9l3.1,3.1c-2.1,3.7-3.8,7.5-4.8,11.6h-4.3
	c-4.6,0-8.4,3.8-8.4,8.4v7.9c0,4.6,3.8,8.4,8.4,8.4h4.3c1.1,4.1,2.7,8,4.8,11.6l-3.1,3.1c-3.3,3.3-3.3,8.6,0,11.9l5.6,5.6
	c1.6,1.6,3.7,2.4,5.9,2.4c2.2,0,4.4-0.9,5.9-2.4l3.1-3.1c3.7,2.1,7.5,3.8,11.6,4.8v4.3c0,4.6,3.8,8.4,8.4,8.4h7.9
	c4.6,0,8.4-3.8,8.4-8.4v-4.4c4.1-1.1,8-2.7,11.6-4.8l3.1,3.1c1.6,1.6,3.7,2.4,5.9,2.4c2.2,0,4.4-0.9,5.9-2.4l5.6-5.6
	c3.3-3.3,3.3-8.6,0-11.9l-3.1-3.1c2.1-3.7,3.8-7.5,4.8-11.6L191.6,72.2L191.6,72.2z M180.8,67.8c-1,5.2-3.1,10.1-6,14.6
	c-1,1.5-0.8,3.4,0.4,4.7l5.1,5.1c0.4,0.4,0.4,1,0,1.4l-5.6,5.6c-0.2,0.2-0.5,0.3-0.7,0.3c-0.2,0-0.4,0-0.7-0.3l-5.1-5.1
	c-1.3-1.3-3.2-1.4-4.7-0.4c-4.4,3-9.3,5-14.6,6c-1.7,0.3-3,1.9-3,3.6v7.3c0,0.5-0.4,1-1,1h-7.9c-0.5,0-1-0.4-1-1v-7.3
	c0-1.8-1.3-3.3-3-3.6c-5.2-1-10.1-3.1-14.6-6c-0.6-0.4-1.3-0.6-2-0.6c-0.9,0-1.9,0.4-2.6,1.1l-5.1,5.1c-0.2,0.2-0.5,0.3-0.7,0.3
	c-0.2,0-0.4,0-0.7-0.3l-5.6-5.6c-0.4-0.4-0.4-1,0-1.4L107,87c1.3-1.3,1.4-3.2,0.4-4.7c-3-4.4-5-9.3-6-14.6c-0.3-1.7-1.9-3-3.6-3
	h-7.3c-0.5,0-1-0.4-1-1v-8c0-0.5,0.4-1,1-1h7.3c1.8,0,3.3-1.3,3.6-3c1-5.2,3.1-10.1,6-14.6c1-1.5,0.8-3.4-0.4-4.7l-5.1-5.1
	c-0.2-0.2-0.3-0.5-0.3-0.7c0-0.2,0-0.4,0.3-0.7l5.5-5.6c0.2-0.2,0.5-0.3,0.7-0.3c0.2,0,0.4,0,0.7,0.3l5.1,5.1
	c1.3,1.3,3.2,1.4,4.7,0.4c4.4-3,9.3-5,14.6-6c1.7-0.3,3-1.9,3-3.6V9.3c0-0.5,0.4-1,1-1h7.9c0.5,0,1,0.4,1,1v7.3c0,1.8,1.3,3.3,3,3.6
	c5.2,1,10.1,3.1,14.6,6c1.5,1,3.4,0.8,4.7-0.4l5.1-5.1c0.2-0.2,0.5-0.3,0.7-0.3c0.2,0,0.4,0,0.7,0.3l5.6,5.6c0.4,0.4,0.4,1,0,1.4
	l-5.1,5.1c-1.3,1.3-1.4,3.2-0.4,4.7c3,4.4,5,9.3,6,14.6c0.3,1.7,1.9,3,3.6,3h7.3c0.5,0,1,0.4,1,1v7.9c0,0.5-0.4,1-1,1h-7.3
	C182.6,64.8,181.1,66,180.8,67.8L180.8,67.8z"/>
<path fill="#999999" d="M141.1,36.1c-13.1,0-23.7,10.6-23.7,23.7c0,13.1,10.6,23.7,23.7,23.7c13.1,0,23.7-10.6,23.7-23.7
	S154.1,36.1,141.1,36.1z M141.1,76.2c-9,0-16.3-7.3-16.3-16.3s7.3-16.3,16.3-16.3c9,0,16.3,7.3,16.3,16.3S150,76.2,141.1,76.2z"/>
</svg>
