<?xml version="1.0" encoding="utf-8"?>
<!-- Generator: Adobe Illustrator 21.0.0, SVG Export Plug-In . SVG Version: 6.00 Build 0)  -->
<svg version="1.1" id="Camada_1" xmlns="http://www.w3.org/2000/svg" xmlns:xlink="http://www.w3.org/1999/xlink" x="0px" y="0px"
	 viewBox="0 0 200 200" enable-background="new 0 0 200 200" xml:space="preserve">
<path fill="#3C92CA" d="M99.6,47.6c0.7-0.7,1.7-0.5,2.1,0.6c1,2.6,2,5.2,2.9,7.8c10.1,27,20.2,54,30.4,81c0.2,0.7,0.5,1.4-0.1,2
	c-0.6,0.6-1.3,0.3-2,0c-10.9-4.7-21.7-9.3-32.6-14c-10.8,4.7-21.7,9.3-32.5,13.9c-0.7,0.3-1.3,0.6-2,0c-0.7-0.6-0.4-1.3-0.2-2
	C76.9,107.5,88,78.2,99.1,48.7C99.2,48.4,99.3,48,99.6,47.6L99.6,47.6z"/>
<path d="M99.4,8c24.7-0.3,48.1,9.1,65.8,26.4l0.6,0.6l-11.2,0.1c-2,0-3.7,1.7-3.7,3.8c0,2,1.7,3.7,3.7,3.7h0l20.2-0.2
	c2,0,3.7-1.7,3.7-3.8l-0.2-20.2c0-2-1.7-3.6-3.8-3.7c-2,0-3.7,1.7-3.7,3.8l0.1,11.2l-0.6-0.6c-18.8-18.4-43.6-28.5-69.9-28.5h-1.2
	C72.7,0.9,47.6,11.6,29,30.7C15.6,44.4,6.5,61.5,2.6,80.1c-3.8,18.1-2.5,36.9,3.8,54.3c0.5,1.5,2,2.4,3.5,2.4c0.4,0,0.8-0.1,1.3-0.2
	c1.9-0.7,2.9-2.8,2.2-4.7C1.3,98.3,9.3,61.5,34.3,35.9C51.6,18.2,74.7,8.3,99.4,8L99.4,8z M100.5,200.6c26,0,52-10,71.5-30
	c13.4-13.7,22.5-30.8,26.4-49.4c3.8-18.1,2.5-36.9-3.8-54.3c-0.7-1.9-2.8-2.9-4.7-2.2c-1.9,0.7-2.9,2.8-2.2,4.7
	c12.1,33.7,4.1,70.5-20.9,96.1c-18.1,18.5-42.2,27.8-66.2,27.8c-23.3,0-46.7-8.8-64.7-26.3l-0.6-0.6l11.2-0.1c2,0,3.7-1.7,3.7-3.8
	c0-2-1.7-3.7-3.7-3.7h0L26.2,159c-1,0-1.9,0.4-2.6,1.1c-0.7,0.7-1.1,1.6-1.1,2.6l0.2,20.2c0,2,1.7,3.7,3.7,3.7h0
	c2,0,3.7-1.7,3.7-3.8l-0.1-11.2l0.6,0.6C50.1,191.1,75.3,200.6,100.5,200.6L100.5,200.6z"/>
<path d="M107.5,52.9c-0.7-2-1.5-4-2.2-6c-0.8-2.1-2.7-3.4-4.7-3.4c-1.3,0-2.5,0.5-3.5,1.5c-0.9,0.9-1.2,1.8-1.4,2.4l0,0.1
	c-7.2,19-14.4,38-21.5,57l-11.8,31.2c-0.9,2.5-0.6,4.6,1.1,6.1c0.9,0.9,2.1,1.3,3.3,1.3c1.1,0,2-0.4,2.6-0.6l10.9-4.7
	c6.7-2.9,13.4-5.7,20.1-8.6c7.4,3.2,14.8,6.4,22.2,9.5l8.9,3.8c0.5,0.2,1.5,0.6,2.6,0.6c1.3,0,2.5-0.5,3.4-1.4
	c1.6-1.5,1.9-3.5,1-5.9c-8.3-22.2-16.7-44.4-25-66.7L107.5,52.9L107.5,52.9z M125.5,131.9c-7.9-3.4-15.8-6.7-23.6-10.1
	c-0.4-0.2-1-0.3-1.5-0.3c-0.5,0-1,0.1-1.5,0.3c-7.2,3.1-14.4,6.2-21.6,9.2l-6.4,2.7l10-26.7c6.5-17.2,13-34.5,19.5-51.7v0l6.1,16.2
	c7.8,20.7,15.5,41.4,23.3,62L125.5,131.9z"/>
</svg>
