<svg xmlns="http://www.w3.org/2000/svg" viewBox="0 0 180 184.8"><defs><style>.terciary{fill:#e2e3e8;}.primary{fill:#3688ff;}</style></defs><title>logout</title><path class="terciary" d="M90.1,184.8A90.0854,90.0854,0,0,1,26.4,31a8.4853,8.4853,0,0,1,12,12A72.9734,72.9734,0,1,0,163,94.6,72.2946,72.2946,0,0,0,141.6,43a8.4853,8.4853,0,0,1,12-12,90.05,90.05,0,0,1,0,127.4A89.0212,89.0212,0,0,1,90.1,184.8Z"/><path class="primary" d="M90.1,99.9a8.28,8.28,0,0,1-8.3-8.3V8.3a8.3,8.3,0,0,1,16.6,0V91.6A8.2792,8.2792,0,0,1,90.1,99.9Z"/></svg>