<svg xmlns="http://www.w3.org/2000/svg" viewBox="0 0 172.8929 135"><defs><style>.white{fill:#e2e3e8;}</style></defs><title>menu</title><path class="white" d="M165.2259,20.84H46.4872c-4.2375,0-7.6669-3.73-7.6669-8.34S42.25,4.16,46.4872,4.16H165.2259c4.2375,0,7.6669,3.73,7.6669,8.34S169.4634,20.84,165.2259,20.84Zm0,110H46.4872c-4.2375,0-7.6669-3.73-7.6669-8.34s3.4295-8.34,7.6669-8.34H165.2259c4.2375,0,7.6669,3.73,7.6669,8.34S169.4634,130.84,165.2259,130.84Zm0-55H46.4872c-4.2375,0-7.6669-3.73-7.6669-8.34s3.4295-8.34,7.6669-8.34H165.2259c4.2375,0,7.6669,3.73,7.6669,8.34S169.4634,75.84,165.2259,75.84Z"/><path class="white" d="M0,12.5A12.5,12.5,0,1,0,12.5,0,12.5,12.5,0,0,0,0,12.5Z"/><path class="white" d="M0,67.5A12.5,12.5,0,1,0,12.5,55,12.5,12.5,0,0,0,0,67.5Z"/><path class="white" d="M0,122.5A12.5,12.5,0,1,0,12.5,110,12.5,12.5,0,0,0,0,122.5Z"/></svg>