<svg xmlns="http://www.w3.org/2000/svg" viewBox="0 0 166.6 192.7"><defs><style>.terciary{fill:#e2e3e8;}.primary{fill:#3688ff;}</style></defs><title>tracker</title><path class="terciary" d="M83.3,192.7l-3.7-1.9C76.4,189.2,0,150.2,0,83.3a83.3,83.3,0,1,1,166.6,0c0,66.9-76.3,105.8-79.6,107.5Zm0-176A66.7479,66.7479,0,0,0,16.6,83.4c0,48.9,52.1,82.1,66.7,90.5,14.6-8.3,66.7-41.6,66.7-90.5A66.8122,66.8122,0,0,0,83.3,16.7Z"/><path class="primary" d="M83.3,104.2a25,25,0,1,1,25-25A25.0091,25.0091,0,0,1,83.3,104.2Z"/></svg>