<svg class="card" width="264" height="188" viewBox="0 0 364 188" fill="none" xmlns="http://www.w3.org/2000/svg">
<g filter="url(#filter0_d)">
<path fill-rule="evenodd" clip-rule="evenodd" d="M4.91705 11.9246C4.91705 7.51619 8.48343 3.93857 12.8918 3.92467L351.892 2.85635C356.32 2.84239 359.917 6.42818 359.917 10.8563V173.831C359.917 178.249 356.335 181.831 351.917 181.831H12.9171C8.49877 181.831 4.91705 178.249 4.91705 173.831L4.91705 11.9246Z" fill="#212328" fill-opacity="0.9"/>
</g>
<path d="M272.714 144.214C272.61 144.098 272.489 144.04 272.349 144.04C272.279 144.04 272.132 144.105 271.908 144.233C271.683 144.361 271.445 144.503 271.195 144.662C270.944 144.82 270.647 144.963 270.304 145.091C269.961 145.218 269.644 145.283 269.352 145.283C269.083 145.283 268.845 145.225 268.64 145.109C267.96 144.75 267.368 144.482 266.866 144.305C266.364 144.129 265.824 144.04 265.246 144.04C264.248 144.04 263.111 144.406 261.837 145.137C261.574 145.285 261.385 145.399 261.263 145.483L261.142 144.482C261.416 144.214 261.592 143.824 261.592 143.383C261.592 142.576 261.012 141.921 260.296 141.921C259.58 141.921 259 142.576 259 143.383C259 143.91 259.25 144.367 259.62 144.625L261.371 159.103C261.423 159.534 261.75 159.847 262.125 159.847C262.16 159.847 262.194 159.844 262.229 159.839C262.647 159.774 262.939 159.341 262.882 158.871L262.178 153.052C263.455 152.337 264.56 151.977 265.489 151.977C265.883 151.977 266.268 152.043 266.643 152.178C267.018 152.312 267.33 152.458 267.578 152.616C267.827 152.774 268.12 152.921 268.457 153.054C268.795 153.188 269.128 153.255 269.457 153.255C270.289 153.255 271.285 152.902 272.445 152.196C272.591 152.11 272.698 152.027 272.765 151.944C272.833 151.862 272.867 151.745 272.867 151.593V144.625C272.867 144.467 272.816 144.33 272.714 144.214Z" fill="#3E414C"/>
<path d="M39 93.7474H326.504" stroke="#383C46" stroke-linecap="square" stroke-dasharray="3 3"/>
<path d="M120 73.4607C122.209 73.4607 124 75.2515 124 77.4607V97.218C124 98.307 123.556 99.3489 122.771 100.103L113.771 108.746C112.223 110.232 109.778 110.232 108.23 108.746L99.2295 100.103C98.444 99.3489 98 98.307 98 97.218V77.4607C98 75.2515 99.7909 73.4607 102 73.4607H120Z" fill="#212328" stroke="#3A3F4B" stroke-width="2"/>
<path d="M107.746 93.168C106.934 93.168 106.211 92.9673 105.576 92.566C104.941 92.1647 104.442 91.586 104.078 90.83C103.723 90.0647 103.546 89.1547 103.546 88.1C103.546 87.0453 103.723 86.14 104.078 85.384C104.442 84.6187 104.941 84.0353 105.576 83.634C106.211 83.2327 106.934 83.032 107.746 83.032C108.558 83.032 109.281 83.2327 109.916 83.634C110.551 84.0353 111.045 84.6187 111.4 85.384C111.764 86.14 111.946 87.0453 111.946 88.1C111.946 89.1547 111.764 90.0647 111.4 90.83C111.045 91.586 110.551 92.1647 109.916 92.566C109.281 92.9673 108.558 93.168 107.746 93.168ZM107.746 91.25C108.343 91.25 108.81 90.9933 109.146 90.48C109.491 89.9667 109.664 89.1733 109.664 88.1C109.664 87.0267 109.491 86.2333 109.146 85.72C108.81 85.2067 108.343 84.95 107.746 84.95C107.158 84.95 106.691 85.2067 106.346 85.72C106.01 86.2333 105.842 87.0267 105.842 88.1C105.842 89.1733 106.01 89.9667 106.346 90.48C106.691 90.9933 107.158 91.25 107.746 91.25ZM117.489 87.19C118.348 87.33 119.006 87.652 119.463 88.156C119.921 88.6507 120.149 89.2667 120.149 90.004C120.149 90.5733 120 91.1007 119.701 91.586C119.403 92.062 118.945 92.4447 118.329 92.734C117.723 93.0233 116.976 93.168 116.089 93.168C115.399 93.168 114.717 93.0793 114.045 92.902C113.383 92.7153 112.818 92.454 112.351 92.118L113.233 90.382C113.607 90.662 114.036 90.8813 114.521 91.04C115.016 91.1893 115.52 91.264 116.033 91.264C116.603 91.264 117.051 91.1567 117.377 90.942C117.704 90.718 117.867 90.4053 117.867 90.004C117.867 89.2013 117.256 88.8 116.033 88.8H114.997V87.302L117.013 85.02H112.841V83.2H119.701V84.67L117.489 87.19Z" fill="#3E414C"/>
<path d="M45.774 27.2V37H44.78V29.16L40.93 35.754H40.44L36.59 29.202V37H35.596V27.2H36.45L40.706 34.466L44.92 27.2H45.774ZM51.3331 29.58C52.2944 29.58 53.0318 29.8227 53.5451 30.308C54.0584 30.784 54.3151 31.4933 54.3151 32.436V37H53.3631V35.852C53.1391 36.2347 52.8078 36.5333 52.3691 36.748C51.9398 36.9627 51.4264 37.07 50.8291 37.07C50.0078 37.07 49.3544 36.874 48.8691 36.482C48.3838 36.09 48.1411 35.572 48.1411 34.928C48.1411 34.3027 48.3651 33.7987 48.8131 33.416C49.2704 33.0333 49.9938 32.842 50.9831 32.842H53.3211V32.394C53.3211 31.7593 53.1438 31.2787 52.7891 30.952C52.4344 30.616 51.9164 30.448 51.2351 30.448C50.7684 30.448 50.3204 30.5273 49.8911 30.686C49.4618 30.8353 49.0931 31.0453 48.7851 31.316L48.3371 30.574C48.7104 30.2567 49.1584 30.014 49.6811 29.846C50.2038 29.6687 50.7544 29.58 51.3331 29.58ZM50.9831 36.286C51.5431 36.286 52.0238 36.16 52.4251 35.908C52.8264 35.6467 53.1251 35.2733 53.3211 34.788V33.584H51.0111C49.7511 33.584 49.1211 34.0227 49.1211 34.9C49.1211 35.3293 49.2844 35.67 49.6111 35.922C49.9378 36.1647 50.3951 36.286 50.9831 36.286ZM57.9669 31.078C58.2002 30.5833 58.5456 30.21 59.0029 29.958C59.4696 29.706 60.0436 29.58 60.7249 29.58V30.546L60.4869 30.532C59.7122 30.532 59.1056 30.77 58.6669 31.246C58.2282 31.722 58.0089 32.3893 58.0089 33.248V37H57.0149V29.636H57.9669V31.078ZM62.5247 29.636H63.5187V37H62.5247V29.636ZM63.0287 28.026C62.8233 28.026 62.6507 27.956 62.5107 27.816C62.3707 27.676 62.3007 27.508 62.3007 27.312C62.3007 27.1253 62.3707 26.962 62.5107 26.822C62.6507 26.682 62.8233 26.612 63.0287 26.612C63.234 26.612 63.4067 26.682 63.5467 26.822C63.6867 26.9527 63.7567 27.1113 63.7567 27.298C63.7567 27.5033 63.6867 27.676 63.5467 27.816C63.4067 27.956 63.234 28.026 63.0287 28.026ZM68.8604 29.58C69.8218 29.58 70.5591 29.8227 71.0724 30.308C71.5858 30.784 71.8424 31.4933 71.8424 32.436V37H70.8904V35.852C70.6664 36.2347 70.3351 36.5333 69.8964 36.748C69.4671 36.9627 68.9538 37.07 68.3564 37.07C67.5351 37.07 66.8818 36.874 66.3964 36.482C65.9111 36.09 65.6684 35.572 65.6684 34.928C65.6684 34.3027 65.8924 33.7987 66.3404 33.416C66.7978 33.0333 67.5211 32.842 68.5104 32.842H70.8484V32.394C70.8484 31.7593 70.6711 31.2787 70.3164 30.952C69.9618 30.616 69.4438 30.448 68.7624 30.448C68.2958 30.448 67.8478 30.5273 67.4184 30.686C66.9891 30.8353 66.6204 31.0453 66.3124 31.316L65.8644 30.574C66.2378 30.2567 66.6858 30.014 67.2084 29.846C67.7311 29.6687 68.2818 29.58 68.8604 29.58ZM68.5104 36.286C69.0704 36.286 69.5511 36.16 69.9524 35.908C70.3538 35.6467 70.6524 35.2733 70.8484 34.788V33.584H68.5384C67.2784 33.584 66.6484 34.0227 66.6484 34.9C66.6484 35.3293 66.8118 35.67 67.1384 35.922C67.4651 36.1647 67.9224 36.286 68.5104 36.286ZM84.9263 26.612V37H83.9743V35.544C83.6756 36.0387 83.279 36.4167 82.7843 36.678C82.299 36.9393 81.7483 37.07 81.1323 37.07C80.4416 37.07 79.8163 36.9113 79.2563 36.594C78.6963 36.2767 78.2576 35.8333 77.9403 35.264C77.623 34.6947 77.4643 34.046 77.4643 33.318C77.4643 32.59 77.623 31.9413 77.9403 31.372C78.2576 30.8027 78.6963 30.364 79.2563 30.056C79.8163 29.7387 80.4416 29.58 81.1323 29.58C81.7296 29.58 82.2663 29.706 82.7423 29.958C83.2276 30.2007 83.6243 30.56 83.9323 31.036V26.612H84.9263ZM81.2163 36.188C81.7296 36.188 82.1916 36.0713 82.6023 35.838C83.0223 35.5953 83.349 35.2547 83.5823 34.816C83.825 34.3773 83.9463 33.878 83.9463 33.318C83.9463 32.758 83.825 32.2587 83.5823 31.82C83.349 31.3813 83.0223 31.0453 82.6023 30.812C82.1916 30.5693 81.7296 30.448 81.2163 30.448C80.6936 30.448 80.2223 30.5693 79.8023 30.812C79.3916 31.0453 79.065 31.3813 78.8223 31.82C78.589 32.2587 78.4723 32.758 78.4723 33.318C78.4723 33.878 78.589 34.3773 78.8223 34.816C79.065 35.2547 79.3916 35.5953 79.8023 35.838C80.2223 36.0713 80.6936 36.188 81.2163 36.188ZM90.2706 29.58C91.2319 29.58 91.9693 29.8227 92.4826 30.308C92.9959 30.784 93.2526 31.4933 93.2526 32.436V37H92.3006V35.852C92.0766 36.2347 91.7453 36.5333 91.3066 36.748C90.8773 36.9627 90.3639 37.07 89.7666 37.07C88.9453 37.07 88.2919 36.874 87.8066 36.482C87.3213 36.09 87.0786 35.572 87.0786 34.928C87.0786 34.3027 87.3026 33.7987 87.7506 33.416C88.2079 33.0333 88.9313 32.842 89.9206 32.842H92.2586V32.394C92.2586 31.7593 92.0813 31.2787 91.7266 30.952C91.3719 30.616 90.8539 30.448 90.1726 30.448C89.7059 30.448 89.2579 30.5273 88.8286 30.686C88.3993 30.8353 88.0306 31.0453 87.7226 31.316L87.2746 30.574C87.6479 30.2567 88.0959 30.014 88.6186 29.846C89.1413 29.6687 89.6919 29.58 90.2706 29.58ZM89.9206 36.286C90.4806 36.286 90.9613 36.16 91.3626 35.908C91.7639 35.6467 92.0626 35.2733 92.2586 34.788V33.584H89.9486C88.6886 33.584 88.0586 34.0227 88.0586 34.9C88.0586 35.3293 88.2219 35.67 88.5486 35.922C88.8753 36.1647 89.3326 36.286 89.9206 36.286ZM102.528 37.084C101.8 37.084 101.1 36.9673 100.428 36.734C99.7658 36.5007 99.2525 36.1927 98.8885 35.81L99.2945 35.012C99.6491 35.3667 100.12 35.656 100.708 35.88C101.296 36.0947 101.903 36.202 102.528 36.202C103.406 36.202 104.064 36.0433 104.502 35.726C104.941 35.3993 105.16 34.9793 105.16 34.466C105.16 34.074 105.039 33.7613 104.796 33.528C104.563 33.2947 104.274 33.1173 103.928 32.996C103.583 32.8653 103.102 32.7253 102.486 32.576C101.749 32.3893 101.161 32.212 100.722 32.044C100.284 31.8667 99.9058 31.6007 99.5885 31.246C99.2805 30.8913 99.1265 30.4107 99.1265 29.804C99.1265 29.3093 99.2571 28.8613 99.5185 28.46C99.7798 28.0493 100.181 27.7227 100.722 27.48C101.264 27.2373 101.936 27.116 102.738 27.116C103.298 27.116 103.844 27.1953 104.376 27.354C104.918 27.5033 105.384 27.7133 105.776 27.984L105.426 28.81C105.016 28.5393 104.577 28.3387 104.11 28.208C103.644 28.068 103.186 27.998 102.738 27.998C101.88 27.998 101.231 28.166 100.792 28.502C100.363 28.8287 100.148 29.2533 100.148 29.776C100.148 30.168 100.265 30.4853 100.498 30.728C100.741 30.9613 101.04 31.1433 101.394 31.274C101.758 31.3953 102.244 31.5307 102.85 31.68C103.569 31.8573 104.148 32.0347 104.586 32.212C105.034 32.38 105.412 32.6413 105.72 32.996C106.028 33.3413 106.182 33.8127 106.182 34.41C106.182 34.9047 106.047 35.3573 105.776 35.768C105.515 36.1693 105.109 36.4913 104.558 36.734C104.008 36.9673 103.331 37.084 102.528 37.084ZM108.23 29.636H109.224V37H108.23V29.636ZM108.734 28.026C108.528 28.026 108.356 27.956 108.216 27.816C108.076 27.676 108.006 27.508 108.006 27.312C108.006 27.1253 108.076 26.962 108.216 26.822C108.356 26.682 108.528 26.612 108.734 26.612C108.939 26.612 109.112 26.682 109.252 26.822C109.392 26.9527 109.462 27.1113 109.462 27.298C109.462 27.5033 109.392 27.676 109.252 27.816C109.112 27.956 108.939 28.026 108.734 28.026ZM111.99 26.612H112.984V37H111.99V26.612ZM121.937 29.636L118.661 37H117.639L114.377 29.636H115.413L118.171 35.908L120.957 29.636H121.937ZM125.694 29.58C126.656 29.58 127.393 29.8227 127.906 30.308C128.42 30.784 128.676 31.4933 128.676 32.436V37H127.724V35.852C127.5 36.2347 127.169 36.5333 126.73 36.748C126.301 36.9627 125.788 37.07 125.19 37.07C124.369 37.07 123.716 36.874 123.23 36.482C122.745 36.09 122.502 35.572 122.502 34.928C122.502 34.3027 122.726 33.7987 123.174 33.416C123.632 33.0333 124.355 32.842 125.344 32.842H127.682V32.394C127.682 31.7593 127.505 31.2787 127.15 30.952C126.796 30.616 126.278 30.448 125.596 30.448C125.13 30.448 124.682 30.5273 124.252 30.686C123.823 30.8353 123.454 31.0453 123.146 31.316L122.698 30.574C123.072 30.2567 123.52 30.014 124.042 29.846C124.565 29.6687 125.116 29.58 125.694 29.58ZM125.344 36.286C125.904 36.286 126.385 36.16 126.786 35.908C127.188 35.6467 127.486 35.2733 127.682 34.788V33.584H125.372C124.112 33.584 123.482 34.0227 123.482 34.9C123.482 35.3293 123.646 35.67 123.972 35.922C124.299 36.1647 124.756 36.286 125.344 36.286Z" fill="white"/>
<path d="M273.952 37L271.712 33.85C271.46 33.878 271.199 33.892 270.928 33.892H268.296V37H267.26V27.2H270.928C272.179 27.2 273.159 27.4987 273.868 28.096C274.577 28.6933 274.932 29.5147 274.932 30.56C274.932 31.3253 274.736 31.974 274.344 32.506C273.961 33.0287 273.411 33.4067 272.692 33.64L275.086 37H273.952ZM270.9 33.01C271.871 33.01 272.613 32.7953 273.126 32.366C273.639 31.9367 273.896 31.3347 273.896 30.56C273.896 29.7667 273.639 29.16 273.126 28.74C272.613 28.3107 271.871 28.096 270.9 28.096H268.296V33.01H270.9ZM283.733 34.41C283.733 35.1287 283.458 35.74 282.907 36.244C282.357 36.7387 281.549 37.014 280.485 37.07V38.68H279.785V37.084C279.104 37.0467 278.46 36.916 277.853 36.692C277.256 36.4587 276.785 36.1647 276.439 35.81L276.845 35.012C277.172 35.3293 277.597 35.5953 278.119 35.81C278.651 36.0247 279.207 36.1507 279.785 36.188V32.506C279.141 32.3473 278.605 32.1793 278.175 32.002C277.746 31.8153 277.387 31.5493 277.097 31.204C276.817 30.8493 276.677 30.3827 276.677 29.804C276.677 29.0853 276.939 28.4833 277.461 27.998C277.984 27.5033 278.759 27.214 279.785 27.13V25.52H280.485V27.116C281.017 27.1347 281.531 27.2233 282.025 27.382C282.529 27.5313 282.963 27.732 283.327 27.984L282.977 28.81C282.595 28.5673 282.189 28.376 281.759 28.236C281.33 28.096 280.905 28.0167 280.485 27.998V31.708C281.176 31.876 281.741 32.0487 282.179 32.226C282.618 32.394 282.987 32.6553 283.285 33.01C283.584 33.3647 283.733 33.8313 283.733 34.41ZM277.699 29.776C277.699 30.2613 277.877 30.63 278.231 30.882C278.595 31.134 279.113 31.3487 279.785 31.526V28.026C279.095 28.082 278.572 28.2733 278.217 28.6C277.872 28.9173 277.699 29.3093 277.699 29.776ZM280.485 36.188C281.223 36.132 281.778 35.95 282.151 35.642C282.525 35.334 282.711 34.942 282.711 34.466C282.711 33.962 282.52 33.584 282.137 33.332C281.755 33.08 281.204 32.8653 280.485 32.688V36.188ZM290.737 31.862C291.353 32.0673 291.824 32.3753 292.151 32.786C292.487 33.1967 292.655 33.6913 292.655 34.27C292.655 34.8393 292.501 35.3387 292.193 35.768C291.885 36.188 291.441 36.5147 290.863 36.748C290.293 36.972 289.621 37.084 288.847 37.084C287.671 37.084 286.747 36.832 286.075 36.328C285.403 35.824 285.067 35.138 285.067 34.27C285.067 33.682 285.225 33.1873 285.543 32.786C285.869 32.3753 286.341 32.0673 286.957 31.862C286.453 31.666 286.07 31.386 285.809 31.022C285.547 30.6487 285.417 30.21 285.417 29.706C285.417 28.9127 285.725 28.2827 286.341 27.816C286.966 27.3493 287.801 27.116 288.847 27.116C289.537 27.116 290.139 27.2233 290.653 27.438C291.175 27.6433 291.581 27.942 291.871 28.334C292.16 28.726 292.305 29.1833 292.305 29.706C292.305 30.21 292.169 30.6487 291.899 31.022C291.628 31.386 291.241 31.666 290.737 31.862ZM286.425 29.734C286.425 30.2753 286.639 30.7047 287.069 31.022C287.498 31.3393 288.091 31.498 288.847 31.498C289.603 31.498 290.195 31.3393 290.625 31.022C291.063 30.7047 291.283 30.28 291.283 29.748C291.283 29.1973 291.059 28.7633 290.611 28.446C290.172 28.1287 289.584 27.97 288.847 27.97C288.1 27.97 287.507 28.1287 287.069 28.446C286.639 28.7633 286.425 29.1927 286.425 29.734ZM288.847 36.23C289.715 36.23 290.391 36.0527 290.877 35.698C291.371 35.3433 291.619 34.8627 291.619 34.256C291.619 33.6493 291.371 33.1733 290.877 32.828C290.391 32.4733 289.715 32.296 288.847 32.296C287.988 32.296 287.311 32.4733 286.817 32.828C286.331 33.1733 286.089 33.6493 286.089 34.256C286.089 34.872 286.331 35.3573 286.817 35.712C287.302 36.0573 287.979 36.23 288.847 36.23ZM300.742 36.104V37H293.868V36.286L297.942 32.296C298.456 31.792 298.801 31.358 298.978 30.994C299.165 30.6207 299.258 30.2473 299.258 29.874C299.258 29.2953 299.058 28.8473 298.656 28.53C298.264 28.2033 297.7 28.04 296.962 28.04C295.814 28.04 294.923 28.404 294.288 29.132L293.574 28.516C293.957 28.068 294.442 27.7227 295.03 27.48C295.628 27.2373 296.3 27.116 297.046 27.116C298.045 27.116 298.834 27.354 299.412 27.83C300 28.2967 300.294 28.9407 300.294 29.762C300.294 30.266 300.182 30.7513 299.958 31.218C299.734 31.6847 299.31 32.2213 298.684 32.828L295.352 36.104H300.742ZM302.914 35.544C303.129 35.544 303.306 35.6187 303.446 35.768C303.586 35.908 303.656 36.0853 303.656 36.3C303.656 36.412 303.637 36.5333 303.6 36.664C303.572 36.7947 303.525 36.944 303.46 37.112L302.872 39.044H302.2L302.676 37.014C302.527 36.9673 302.405 36.8833 302.312 36.762C302.219 36.6313 302.172 36.4773 302.172 36.3C302.172 36.0853 302.242 35.908 302.382 35.768C302.522 35.6187 302.699 35.544 302.914 35.544ZM308.163 27.116C309.46 27.116 310.454 27.5453 311.145 28.404C311.835 29.2533 312.181 30.4573 312.181 32.016C312.181 33.108 311.994 34.032 311.621 34.788C311.247 35.544 310.725 36.118 310.053 36.51C309.381 36.8927 308.597 37.084 307.701 37.084C306.73 37.084 305.955 36.9067 305.377 36.552L305.783 35.74C306.249 36.048 306.884 36.202 307.687 36.202C308.769 36.202 309.619 35.8613 310.235 35.18C310.851 34.4893 311.159 33.4907 311.159 32.184C311.159 31.9413 311.145 31.6753 311.117 31.386C310.874 31.918 310.487 32.3333 309.955 32.632C309.423 32.9213 308.811 33.066 308.121 33.066C307.477 33.066 306.903 32.9447 306.399 32.702C305.904 32.4593 305.517 32.1187 305.237 31.68C304.957 31.232 304.817 30.714 304.817 30.126C304.817 29.5287 304.961 29.0013 305.251 28.544C305.54 28.0867 305.937 27.7367 306.441 27.494C306.954 27.242 307.528 27.116 308.163 27.116ZM308.275 32.212C308.769 32.212 309.203 32.1187 309.577 31.932C309.959 31.7453 310.258 31.4887 310.473 31.162C310.687 30.8353 310.795 30.4713 310.795 30.07C310.795 29.6967 310.692 29.3513 310.487 29.034C310.291 28.7167 309.997 28.46 309.605 28.264C309.213 28.068 308.746 27.97 308.205 27.97C307.495 27.97 306.917 28.166 306.469 28.558C306.03 28.9407 305.811 29.454 305.811 30.098C305.811 30.742 306.03 31.2553 306.469 31.638C306.917 32.0207 307.519 32.212 308.275 32.212ZM317.548 37.084C316.792 37.084 316.115 36.8833 315.518 36.482C314.93 36.0807 314.468 35.5067 314.132 34.76C313.805 34.004 313.642 33.1173 313.642 32.1C313.642 31.0827 313.805 30.2007 314.132 29.454C314.468 28.698 314.93 28.1193 315.518 27.718C316.115 27.3167 316.792 27.116 317.548 27.116C318.304 27.116 318.976 27.3167 319.564 27.718C320.161 28.1193 320.628 28.698 320.964 29.454C321.3 30.2007 321.468 31.0827 321.468 32.1C321.468 33.1173 321.3 34.004 320.964 34.76C320.628 35.5067 320.161 36.0807 319.564 36.482C318.976 36.8833 318.304 37.084 317.548 37.084ZM317.548 36.16C318.117 36.16 318.617 36.0013 319.046 35.684C319.485 35.3667 319.825 34.9047 320.068 34.298C320.311 33.6913 320.432 32.9587 320.432 32.1C320.432 31.2413 320.311 30.5087 320.068 29.902C319.825 29.2953 319.485 28.8333 319.046 28.516C318.617 28.1987 318.117 28.04 317.548 28.04C316.979 28.04 316.475 28.1987 316.036 28.516C315.607 28.8333 315.271 29.2953 315.028 29.902C314.785 30.5087 314.664 31.2413 314.664 32.1C314.664 32.9587 314.785 33.6913 315.028 34.298C315.271 34.9047 315.607 35.3667 316.036 35.684C316.475 36.0013 316.979 36.16 317.548 36.16Z" fill="#29848B"/>
<path d="M210 72.9607C212.485 72.9607 214.5 74.9754 214.5 77.4607V97.218C214.5 98.4431 214.001 99.6153 213.117 100.464L204.117 109.106C202.376 110.779 199.625 110.779 197.883 109.106L188.883 100.464C187.999 99.6153 187.5 98.4431 187.5 97.218V77.4607C187.5 74.9754 189.515 72.9607 192 72.9607H210Z" fill="#197379" stroke="#197379"/>
<path d="M196.746 93.168C195.934 93.168 195.211 92.9673 194.576 92.566C193.941 92.1647 193.442 91.586 193.078 90.83C192.723 90.0647 192.546 89.1547 192.546 88.1C192.546 87.0453 192.723 86.14 193.078 85.384C193.442 84.6187 193.941 84.0353 194.576 83.634C195.211 83.2327 195.934 83.032 196.746 83.032C197.558 83.032 198.281 83.2327 198.916 83.634C199.551 84.0353 200.045 84.6187 200.4 85.384C200.764 86.14 200.946 87.0453 200.946 88.1C200.946 89.1547 200.764 90.0647 200.4 90.83C200.045 91.586 199.551 92.1647 198.916 92.566C198.281 92.9673 197.558 93.168 196.746 93.168ZM196.746 91.25C197.343 91.25 197.81 90.9933 198.146 90.48C198.491 89.9667 198.664 89.1733 198.664 88.1C198.664 87.0267 198.491 86.2333 198.146 85.72C197.81 85.2067 197.343 84.95 196.746 84.95C196.158 84.95 195.691 85.2067 195.346 85.72C195.01 86.2333 194.842 87.0267 194.842 88.1C194.842 89.1733 195.01 89.9667 195.346 90.48C195.691 90.9933 196.158 91.25 196.746 91.25ZM208.754 87.848C209.239 88.0907 209.608 88.408 209.86 88.8C210.121 89.192 210.252 89.6447 210.252 90.158C210.252 90.7647 210.079 91.2967 209.734 91.754C209.389 92.202 208.903 92.552 208.278 92.804C207.653 93.0467 206.929 93.168 206.108 93.168C205.287 93.168 204.563 93.0467 203.938 92.804C203.322 92.552 202.841 92.202 202.496 91.754C202.16 91.2967 201.992 90.7647 201.992 90.158C201.992 89.6447 202.118 89.192 202.37 88.8C202.631 88.408 203 88.0907 203.476 87.848C203.112 87.624 202.832 87.344 202.636 87.008C202.44 86.6627 202.342 86.2707 202.342 85.832C202.342 85.2627 202.501 84.768 202.818 84.348C203.135 83.928 203.579 83.606 204.148 83.382C204.717 83.1487 205.371 83.032 206.108 83.032C206.855 83.032 207.513 83.1487 208.082 83.382C208.661 83.606 209.109 83.928 209.426 84.348C209.743 84.768 209.902 85.2627 209.902 85.832C209.902 86.2707 209.804 86.6627 209.608 87.008C209.412 87.344 209.127 87.624 208.754 87.848ZM206.108 84.698C205.651 84.698 205.282 84.81 205.002 85.034C204.731 85.2487 204.596 85.5473 204.596 85.93C204.596 86.3033 204.731 86.5973 205.002 86.812C205.273 87.0267 205.641 87.134 206.108 87.134C206.575 87.134 206.948 87.0267 207.228 86.812C207.508 86.5973 207.648 86.3033 207.648 85.93C207.648 85.5473 207.508 85.2487 207.228 85.034C206.948 84.81 206.575 84.698 206.108 84.698ZM206.108 91.502C206.677 91.502 207.125 91.376 207.452 91.124C207.788 90.8627 207.956 90.5173 207.956 90.088C207.956 89.6587 207.788 89.318 207.452 89.066C207.125 88.814 206.677 88.688 206.108 88.688C205.548 88.688 205.105 88.814 204.778 89.066C204.451 89.318 204.288 89.6587 204.288 90.088C204.288 90.5267 204.451 90.872 204.778 91.124C205.105 91.376 205.548 91.502 206.108 91.502Z" fill="white"/>
<path d="M289 75.22C289 73.0109 290.791 71.22 293 71.22H319C321.209 71.22 323 73.0109 323 75.22V112.274C323 114.483 321.209 116.274 319 116.274H293C290.791 116.274 289 114.483 289 112.274V75.22Z" fill="#212328" stroke="#3A3F4B" stroke-width="2"/>
<path d="M42.6561 148.468L44.6163 143.359C44.7553 143.051 44.7387 142.686 44.5722 142.394C44.4058 142.102 44.1129 141.924 43.7967 141.921C43.5899 141.921 43.3891 141.996 43.2264 142.134L43.1622 142.194L36.2861 149.264C36.0765 149.48 35.9728 149.79 36.0061 150.102C36.0395 150.414 36.206 150.69 36.4557 150.849L40.3448 153.298L38.3617 158.466C38.1931 158.9 38.3286 159.404 38.6861 159.671C39.0436 159.939 39.5249 159.897 39.8387 159.571L46.7149 152.5C46.924 152.283 47.0273 151.973 46.9938 151.661C46.9602 151.35 46.7938 151.073 46.5444 150.915L42.6561 148.468Z" fill="#4D76C8"/>
<path d="M60.526 157.104V158H53.596V148.2H60.316V149.096H54.632V152.582H59.7V153.464H54.632V157.104H60.526ZM71.9352 150.58C72.8592 150.58 73.5826 150.846 74.1052 151.378C74.6372 151.91 74.9032 152.694 74.9032 153.73V158H73.9092V153.828C73.9092 153.063 73.7226 152.479 73.3492 152.078C72.9852 151.677 72.4672 151.476 71.7952 151.476C71.0299 151.476 70.4279 151.714 69.9892 152.19C69.5506 152.657 69.3312 153.305 69.3312 154.136V158H68.3372V153.828C68.3372 153.063 68.1506 152.479 67.7772 152.078C67.4132 151.677 66.8906 151.476 66.2092 151.476C65.4532 151.476 64.8512 151.714 64.4032 152.19C63.9646 152.657 63.7452 153.305 63.7452 154.136V158H62.7512V150.636H63.7032V151.98C63.9646 151.532 64.3286 151.187 64.7952 150.944C65.2619 150.701 65.7986 150.58 66.4052 150.58C67.0212 150.58 67.5532 150.711 68.0012 150.972C68.4586 151.233 68.7992 151.621 69.0232 152.134C69.2939 151.649 69.6812 151.271 70.1852 151C70.6986 150.72 71.2819 150.58 71.9352 150.58ZM87.983 147.612V158H87.031V156.544C86.7323 157.039 86.3356 157.417 85.841 157.678C85.3556 157.939 84.805 158.07 84.189 158.07C83.4983 158.07 82.873 157.911 82.313 157.594C81.753 157.277 81.3143 156.833 80.997 156.264C80.6796 155.695 80.521 155.046 80.521 154.318C80.521 153.59 80.6796 152.941 80.997 152.372C81.3143 151.803 81.753 151.364 82.313 151.056C82.873 150.739 83.4983 150.58 84.189 150.58C84.7863 150.58 85.323 150.706 85.799 150.958C86.2843 151.201 86.681 151.56 86.989 152.036V147.612H87.983ZM84.273 157.188C84.7863 157.188 85.2483 157.071 85.659 156.838C86.079 156.595 86.4056 156.255 86.639 155.816C86.8816 155.377 87.003 154.878 87.003 154.318C87.003 153.758 86.8816 153.259 86.639 152.82C86.4056 152.381 86.079 152.045 85.659 151.812C85.2483 151.569 84.7863 151.448 84.273 151.448C83.7503 151.448 83.279 151.569 82.859 151.812C82.4483 152.045 82.1216 152.381 81.879 152.82C81.6456 153.259 81.529 153.758 81.529 154.318C81.529 154.878 81.6456 155.377 81.879 155.816C82.1216 156.255 82.4483 156.595 82.859 156.838C83.279 157.071 83.7503 157.188 84.273 157.188ZM97.1632 154.626H91.0032C91.0592 155.391 91.3532 156.012 91.8852 156.488C92.4172 156.955 93.0892 157.188 93.9012 157.188C94.3586 157.188 94.7786 157.109 95.1612 156.95C95.5439 156.782 95.8752 156.539 96.1552 156.222L96.7152 156.866C96.3886 157.258 95.9779 157.557 95.4832 157.762C94.9979 157.967 94.4612 158.07 93.8732 158.07C93.1172 158.07 92.4452 157.911 91.8572 157.594C91.2786 157.267 90.8259 156.819 90.4992 156.25C90.1726 155.681 90.0092 155.037 90.0092 154.318C90.0092 153.599 90.1632 152.955 90.4712 152.386C90.7886 151.817 91.2179 151.373 91.7592 151.056C92.3099 150.739 92.9259 150.58 93.6072 150.58C94.2886 150.58 94.8999 150.739 95.4412 151.056C95.9826 151.373 96.4072 151.817 96.7152 152.386C97.0232 152.946 97.1772 153.59 97.1772 154.318L97.1632 154.626ZM93.6072 151.434C92.8979 151.434 92.3006 151.663 91.8152 152.12C91.3392 152.568 91.0686 153.156 91.0032 153.884H96.2252C96.1599 153.156 95.8846 152.568 95.3992 152.12C94.9232 151.663 94.3259 151.434 93.6072 151.434ZM101.174 158.07C100.577 158.07 100.003 157.986 99.4525 157.818C98.9111 157.641 98.4865 157.421 98.1785 157.16L98.6265 156.376C98.9345 156.619 99.3218 156.819 99.7885 156.978C100.255 157.127 100.74 157.202 101.244 157.202C101.916 157.202 102.411 157.099 102.728 156.894C103.055 156.679 103.218 156.381 103.218 155.998C103.218 155.727 103.13 155.517 102.952 155.368C102.775 155.209 102.551 155.093 102.28 155.018C102.01 154.934 101.65 154.855 101.202 154.78C100.605 154.668 100.124 154.556 99.7605 154.444C99.3965 154.323 99.0838 154.122 98.8225 153.842C98.5705 153.562 98.4445 153.175 98.4445 152.68C98.4445 152.064 98.7011 151.56 99.2145 151.168C99.7278 150.776 100.442 150.58 101.356 150.58C101.832 150.58 102.308 150.645 102.784 150.776C103.26 150.897 103.652 151.061 103.96 151.266L103.526 152.064C102.92 151.644 102.196 151.434 101.356 151.434C100.722 151.434 100.241 151.546 99.9145 151.77C99.5971 151.994 99.4385 152.288 99.4385 152.652C99.4385 152.932 99.5271 153.156 99.7045 153.324C99.8911 153.492 100.12 153.618 100.39 153.702C100.661 153.777 101.034 153.856 101.51 153.94C102.098 154.052 102.57 154.164 102.924 154.276C103.279 154.388 103.582 154.579 103.834 154.85C104.086 155.121 104.212 155.494 104.212 155.97C104.212 156.614 103.942 157.127 103.4 157.51C102.868 157.883 102.126 158.07 101.174 158.07ZM106.05 147.612H107.044V158H106.05V147.612ZM112.82 158.07C112.11 158.07 111.471 157.911 110.902 157.594C110.332 157.267 109.884 156.819 109.558 156.25C109.231 155.681 109.068 155.037 109.068 154.318C109.068 153.599 109.231 152.955 109.558 152.386C109.884 151.817 110.332 151.373 110.902 151.056C111.471 150.739 112.11 150.58 112.82 150.58C113.529 150.58 114.168 150.739 114.738 151.056C115.307 151.373 115.75 151.817 116.068 152.386C116.394 152.955 116.558 153.599 116.558 154.318C116.558 155.037 116.394 155.681 116.068 156.25C115.75 156.819 115.307 157.267 114.738 157.594C114.168 157.911 113.529 158.07 112.82 158.07ZM112.82 157.188C113.342 157.188 113.809 157.071 114.22 156.838C114.64 156.595 114.966 156.255 115.2 155.816C115.433 155.377 115.55 154.878 115.55 154.318C115.55 153.758 115.433 153.259 115.2 152.82C114.966 152.381 114.64 152.045 114.22 151.812C113.809 151.569 113.342 151.448 112.82 151.448C112.297 151.448 111.826 151.569 111.406 151.812C110.995 152.045 110.668 152.381 110.426 152.82C110.192 153.259 110.076 153.758 110.076 154.318C110.076 154.878 110.192 155.377 110.426 155.816C110.668 156.255 110.995 156.595 111.406 156.838C111.826 157.071 112.297 157.188 112.82 157.188ZM121.639 158.07C120.911 158.07 120.258 157.911 119.679 157.594C119.11 157.277 118.662 156.833 118.335 156.264C118.009 155.685 117.845 155.037 117.845 154.318C117.845 153.599 118.009 152.955 118.335 152.386C118.662 151.817 119.11 151.373 119.679 151.056C120.258 150.739 120.911 150.58 121.639 150.58C122.274 150.58 122.839 150.706 123.333 150.958C123.837 151.201 124.234 151.56 124.523 152.036L123.781 152.54C123.539 152.176 123.231 151.905 122.857 151.728C122.484 151.541 122.078 151.448 121.639 151.448C121.107 151.448 120.627 151.569 120.197 151.812C119.777 152.045 119.446 152.381 119.203 152.82C118.97 153.259 118.853 153.758 118.853 154.318C118.853 154.887 118.97 155.391 119.203 155.83C119.446 156.259 119.777 156.595 120.197 156.838C120.627 157.071 121.107 157.188 121.639 157.188C122.078 157.188 122.484 157.099 122.857 156.922C123.231 156.745 123.539 156.474 123.781 156.11L124.523 156.614C124.234 157.09 123.837 157.454 123.333 157.706C122.829 157.949 122.265 158.07 121.639 158.07ZM129.052 150.58C130.013 150.58 130.751 150.823 131.264 151.308C131.777 151.784 132.034 152.493 132.034 153.436V158H131.082V156.852C130.858 157.235 130.527 157.533 130.088 157.748C129.659 157.963 129.145 158.07 128.548 158.07C127.727 158.07 127.073 157.874 126.588 157.482C126.103 157.09 125.86 156.572 125.86 155.928C125.86 155.303 126.084 154.799 126.532 154.416C126.989 154.033 127.713 153.842 128.702 153.842H131.04V153.394C131.04 152.759 130.863 152.279 130.508 151.952C130.153 151.616 129.635 151.448 128.954 151.448C128.487 151.448 128.039 151.527 127.61 151.686C127.181 151.835 126.812 152.045 126.504 152.316L126.056 151.574C126.429 151.257 126.877 151.014 127.4 150.846C127.923 150.669 128.473 150.58 129.052 150.58ZM128.702 157.286C129.262 157.286 129.743 157.16 130.144 156.908C130.545 156.647 130.844 156.273 131.04 155.788V154.584H128.73C127.47 154.584 126.84 155.023 126.84 155.9C126.84 156.329 127.003 156.67 127.33 156.922C127.657 157.165 128.114 157.286 128.702 157.286ZM143.918 150.58C144.842 150.58 145.565 150.846 146.088 151.378C146.62 151.91 146.886 152.694 146.886 153.73V158H145.892V153.828C145.892 153.063 145.705 152.479 145.332 152.078C144.968 151.677 144.45 151.476 143.778 151.476C143.012 151.476 142.41 151.714 141.972 152.19C141.533 152.657 141.314 153.305 141.314 154.136V158H140.32V153.828C140.32 153.063 140.133 152.479 139.76 152.078C139.396 151.677 138.873 151.476 138.192 151.476C137.436 151.476 136.834 151.714 136.386 152.19C135.947 152.657 135.728 153.305 135.728 154.136V158H134.734V150.636H135.686V151.98C135.947 151.532 136.311 151.187 136.778 150.944C137.244 150.701 137.781 150.58 138.388 150.58C139.004 150.58 139.536 150.711 139.984 150.972C140.441 151.233 140.782 151.621 141.006 152.134C141.276 151.649 141.664 151.271 142.168 151C142.681 150.72 143.264 150.58 143.918 150.58ZM156.021 154.626H149.861C149.917 155.391 150.211 156.012 150.743 156.488C151.275 156.955 151.947 157.188 152.759 157.188C153.216 157.188 153.636 157.109 154.019 156.95C154.401 156.782 154.733 156.539 155.013 156.222L155.573 156.866C155.246 157.258 154.835 157.557 154.341 157.762C153.855 157.967 153.319 158.07 152.731 158.07C151.975 158.07 151.303 157.911 150.715 157.594C150.136 157.267 149.683 156.819 149.357 156.25C149.03 155.681 148.867 155.037 148.867 154.318C148.867 153.599 149.021 152.955 149.329 152.386C149.646 151.817 150.075 151.373 150.617 151.056C151.167 150.739 151.783 150.58 152.465 150.58C153.146 150.58 153.757 150.739 154.299 151.056C154.84 151.373 155.265 151.817 155.573 152.386C155.881 152.946 156.035 153.59 156.035 154.318L156.021 154.626ZM152.465 151.434C151.755 151.434 151.158 151.663 150.673 152.12C150.197 152.568 149.926 153.156 149.861 153.884H155.083C155.017 153.156 154.742 152.568 154.257 152.12C153.781 151.663 153.183 151.434 152.465 151.434ZM161.81 150.58C162.734 150.58 163.467 150.851 164.008 151.392C164.559 151.924 164.834 152.703 164.834 153.73V158H163.84V153.828C163.84 153.063 163.649 152.479 163.266 152.078C162.883 151.677 162.337 151.476 161.628 151.476C160.835 151.476 160.205 151.714 159.738 152.19C159.281 152.657 159.052 153.305 159.052 154.136V158H158.058V150.636H159.01V151.994C159.281 151.546 159.654 151.201 160.13 150.958C160.615 150.706 161.175 150.58 161.81 150.58ZM171.41 157.552C171.224 157.72 170.99 157.851 170.71 157.944C170.44 158.028 170.155 158.07 169.856 158.07C169.166 158.07 168.634 157.883 168.26 157.51C167.887 157.137 167.7 156.609 167.7 155.928V151.476H166.384V150.636H167.7V149.026H168.694V150.636H170.934V151.476H168.694V155.872C168.694 156.311 168.802 156.647 169.016 156.88C169.24 157.104 169.558 157.216 169.968 157.216C170.174 157.216 170.37 157.183 170.556 157.118C170.752 157.053 170.92 156.959 171.06 156.838L171.41 157.552ZM175.97 158.07C175.261 158.07 174.622 157.911 174.052 157.594C173.483 157.267 173.035 156.819 172.708 156.25C172.382 155.681 172.218 155.037 172.218 154.318C172.218 153.599 172.382 152.955 172.708 152.386C173.035 151.817 173.483 151.373 174.052 151.056C174.622 150.739 175.261 150.58 175.97 150.58C176.68 150.58 177.319 150.739 177.888 151.056C178.458 151.373 178.901 151.817 179.218 152.386C179.545 152.955 179.708 153.599 179.708 154.318C179.708 155.037 179.545 155.681 179.218 156.25C178.901 156.819 178.458 157.267 177.888 157.594C177.319 157.911 176.68 158.07 175.97 158.07ZM175.97 157.188C176.493 157.188 176.96 157.071 177.37 156.838C177.79 156.595 178.117 156.255 178.35 155.816C178.584 155.377 178.7 154.878 178.7 154.318C178.7 153.758 178.584 153.259 178.35 152.82C178.117 152.381 177.79 152.045 177.37 151.812C176.96 151.569 176.493 151.448 175.97 151.448C175.448 151.448 174.976 151.569 174.556 151.812C174.146 152.045 173.819 152.381 173.576 152.82C173.343 153.259 173.226 153.758 173.226 154.318C173.226 154.878 173.343 155.377 173.576 155.816C173.819 156.255 174.146 156.595 174.556 156.838C174.976 157.071 175.448 157.188 175.97 157.188Z" fill="#29848B"/>
<path d="M287.88 158L285.64 154.85C285.388 154.878 285.126 154.892 284.856 154.892H282.224V158H281.188V148.2H284.856C286.106 148.2 287.086 148.499 287.796 149.096C288.505 149.693 288.86 150.515 288.86 151.56C288.86 152.325 288.664 152.974 288.272 153.506C287.889 154.029 287.338 154.407 286.62 154.64L289.014 158H287.88ZM284.828 154.01C285.798 154.01 286.54 153.795 287.054 153.366C287.567 152.937 287.824 152.335 287.824 151.56C287.824 150.767 287.567 150.16 287.054 149.74C286.54 149.311 285.798 149.096 284.828 149.096H282.224V154.01H284.828ZM293.603 150.58C294.564 150.58 295.301 150.823 295.815 151.308C296.328 151.784 296.585 152.493 296.585 153.436V158H295.633V156.852C295.409 157.235 295.077 157.533 294.639 157.748C294.209 157.963 293.696 158.07 293.099 158.07C292.277 158.07 291.624 157.874 291.139 157.482C290.653 157.09 290.411 156.572 290.411 155.928C290.411 155.303 290.635 154.799 291.083 154.416C291.54 154.033 292.263 153.842 293.253 153.842H295.591V153.394C295.591 152.759 295.413 152.279 295.059 151.952C294.704 151.616 294.186 151.448 293.505 151.448C293.038 151.448 292.59 151.527 292.161 151.686C291.731 151.835 291.363 152.045 291.055 152.316L290.607 151.574C290.98 151.257 291.428 151.014 291.951 150.846C292.473 150.669 293.024 150.58 293.603 150.58ZM293.253 157.286C293.813 157.286 294.293 157.16 294.695 156.908C295.096 156.647 295.395 156.273 295.591 155.788V154.584H293.281C292.021 154.584 291.391 155.023 291.391 155.9C291.391 156.329 291.554 156.67 291.881 156.922C292.207 157.165 292.665 157.286 293.253 157.286ZM301.72 148.382C301.291 148.382 300.964 148.499 300.74 148.732C300.526 148.965 300.418 149.311 300.418 149.768V150.636H302.686V151.476H300.446V158H299.452V151.476H298.136V150.636H299.452V149.726C299.452 149.054 299.644 148.522 300.026 148.13C300.418 147.738 300.969 147.542 301.678 147.542C301.958 147.542 302.229 147.584 302.49 147.668C302.752 147.743 302.971 147.855 303.148 148.004L302.812 148.746C302.523 148.503 302.159 148.382 301.72 148.382ZM306.468 150.58C307.429 150.58 308.167 150.823 308.68 151.308C309.193 151.784 309.45 152.493 309.45 153.436V158H308.498V156.852C308.274 157.235 307.943 157.533 307.504 157.748C307.075 157.963 306.561 158.07 305.964 158.07C305.143 158.07 304.489 157.874 304.004 157.482C303.519 157.09 303.276 156.572 303.276 155.928C303.276 155.303 303.5 154.799 303.948 154.416C304.405 154.033 305.129 153.842 306.118 153.842H308.456V153.394C308.456 152.759 308.279 152.279 307.924 151.952C307.569 151.616 307.051 151.448 306.37 151.448C305.903 151.448 305.455 151.527 305.026 151.686C304.597 151.835 304.228 152.045 303.92 152.316L303.472 151.574C303.845 151.257 304.293 151.014 304.816 150.846C305.339 150.669 305.889 150.58 306.468 150.58ZM306.118 157.286C306.678 157.286 307.159 157.16 307.56 156.908C307.961 156.647 308.26 156.273 308.456 155.788V154.584H306.146C304.886 154.584 304.256 155.023 304.256 155.9C304.256 156.329 304.419 156.67 304.746 156.922C305.073 157.165 305.53 157.286 306.118 157.286ZM318.589 154.626H312.429C312.485 155.391 312.779 156.012 313.311 156.488C313.843 156.955 314.515 157.188 315.327 157.188C315.784 157.188 316.204 157.109 316.587 156.95C316.97 156.782 317.301 156.539 317.581 156.222L318.141 156.866C317.814 157.258 317.404 157.557 316.909 157.762C316.424 157.967 315.887 158.07 315.299 158.07C314.543 158.07 313.871 157.911 313.283 157.594C312.704 157.267 312.252 156.819 311.925 156.25C311.598 155.681 311.435 155.037 311.435 154.318C311.435 153.599 311.589 152.955 311.897 152.386C312.214 151.817 312.644 151.373 313.185 151.056C313.736 150.739 314.352 150.58 315.033 150.58C315.714 150.58 316.326 150.739 316.867 151.056C317.408 151.373 317.833 151.817 318.141 152.386C318.449 152.946 318.603 153.59 318.603 154.318L318.589 154.626ZM315.033 151.434C314.324 151.434 313.726 151.663 313.241 152.12C312.765 152.568 312.494 153.156 312.429 153.884H317.651C317.586 153.156 317.31 152.568 316.825 152.12C316.349 151.663 315.752 151.434 315.033 151.434ZM320.626 147.612H321.62V158H320.626V147.612Z" fill="#29848B"/>
<path d="M303.521 98.7C304.181 98.7 304.697 98.89 305.071 99.27C305.451 99.65 305.641 100.21 305.641 100.95V104H304.931V101.02C304.931 100.473 304.797 100.057 304.531 99.77C304.271 99.4833 303.901 99.34 303.421 99.34C302.874 99.34 302.444 99.51 302.131 99.85C301.817 100.183 301.661 100.647 301.661 101.24V104H300.951V101.02C300.951 100.473 300.817 100.057 300.551 99.77C300.291 99.4833 299.917 99.34 299.431 99.34C298.891 99.34 298.461 99.51 298.141 99.85C297.827 100.183 297.671 100.647 297.671 101.24V104H296.961V98.74H297.641V99.7C297.827 99.38 298.087 99.1333 298.421 98.96C298.754 98.7867 299.137 98.7 299.571 98.7C300.011 98.7 300.391 98.7933 300.711 98.98C301.037 99.1667 301.281 99.4433 301.441 99.81C301.634 99.4633 301.911 99.1933 302.271 99C302.637 98.8 303.054 98.7 303.521 98.7ZM307.566 98.74H308.276V104H307.566V98.74ZM307.926 97.59C307.78 97.59 307.656 97.54 307.556 97.44C307.456 97.34 307.406 97.22 307.406 97.08C307.406 96.9467 307.456 96.83 307.556 96.73C307.656 96.63 307.78 96.58 307.926 96.58C308.073 96.58 308.196 96.63 308.296 96.73C308.396 96.8233 308.446 96.9367 308.446 97.07C308.446 97.2167 308.396 97.34 308.296 97.44C308.196 97.54 308.073 97.59 307.926 97.59ZM312.932 98.7C313.592 98.7 314.115 98.8933 314.502 99.28C314.895 99.66 315.092 100.217 315.092 100.95V104H314.382V101.02C314.382 100.473 314.245 100.057 313.972 99.77C313.698 99.4833 313.308 99.34 312.802 99.34C312.235 99.34 311.785 99.51 311.452 99.85C311.125 100.183 310.962 100.647 310.962 101.24V104H310.252V98.74H310.932V99.71C311.125 99.39 311.392 99.1433 311.732 98.97C312.078 98.79 312.478 98.7 312.932 98.7Z" fill="white"/>
<path d="M303.422 83.2V93H301.154V85.02H299.194V83.2H303.422ZM308.484 86.882C309.865 86.882 310.883 87.1573 311.536 87.708C312.199 88.2587 312.53 88.996 312.53 89.92C312.53 90.5173 312.381 91.0633 312.082 91.558C311.783 92.0433 311.326 92.4353 310.71 92.734C310.103 93.0233 309.352 93.168 308.456 93.168C307.765 93.168 307.084 93.0793 306.412 92.902C305.749 92.7153 305.185 92.454 304.718 92.118L305.614 90.382C305.987 90.662 306.417 90.8813 306.902 91.04C307.387 91.1893 307.887 91.264 308.4 91.264C308.969 91.264 309.417 91.152 309.744 90.928C310.071 90.704 310.234 90.3913 310.234 89.99C310.234 89.57 310.061 89.2527 309.716 89.038C309.38 88.8233 308.792 88.716 307.952 88.716H305.446L305.95 83.2H311.928V85.02H307.84L307.686 86.882H308.484Z" fill="white"/>
<path d="M54 70.22V72.4614" stroke="#3A3F4B" stroke-width="2" stroke-linecap="round"/>
<path d="M71 92.6274C71 103.322 63.285 111.793 54 111.793C44.715 111.793 37 103.322 37 92.6274C37 81.9324 44.715 73.4614 54 73.4614C63.285 73.4614 71 81.9324 71 92.6274Z" fill="#212328" stroke="#3A3F4B" stroke-width="2"/>
<path d="M68.3739 75.1483L66.6059 77.1292" stroke="#3A3F4B" stroke-width="2" stroke-linecap="round"/>
<path d="M70.3284 77.1762L66.7929 73.214" stroke="#3A3F4B" stroke-width="2" stroke-linecap="round"/>
<path d="M51.4526 90.06C50.9126 90.06 50.4292 89.9167 50.0026 89.63C49.5826 89.3433 49.2526 88.9333 49.0126 88.4C48.7792 87.86 48.6626 87.2267 48.6626 86.5C48.6626 85.7733 48.7792 85.1433 49.0126 84.61C49.2526 84.07 49.5826 83.6567 50.0026 83.37C50.4292 83.0833 50.9126 82.94 51.4526 82.94C51.9926 82.94 52.4726 83.0833 52.8926 83.37C53.3192 83.6567 53.6526 84.07 53.8926 84.61C54.1326 85.1433 54.2526 85.7733 54.2526 86.5C54.2526 87.2267 54.1326 87.86 53.8926 88.4C53.6526 88.9333 53.3192 89.3433 52.8926 89.63C52.4726 89.9167 51.9926 90.06 51.4526 90.06ZM51.4526 89.4C51.8592 89.4 52.2159 89.2867 52.5226 89.06C52.8359 88.8333 53.0792 88.5033 53.2526 88.07C53.4259 87.6367 53.5126 87.1133 53.5126 86.5C53.5126 85.8867 53.4259 85.3633 53.2526 84.93C53.0792 84.4967 52.8359 84.1667 52.5226 83.94C52.2159 83.7133 51.8592 83.6 51.4526 83.6C51.0459 83.6 50.6859 83.7133 50.3726 83.94C50.0659 84.1667 49.8259 84.4967 49.6526 84.93C49.4792 85.3633 49.3926 85.8867 49.3926 86.5C49.3926 87.1133 49.4792 87.6367 49.6526 88.07C49.8259 88.5033 50.0659 88.8333 50.3726 89.06C50.6859 89.2867 51.0459 89.4 51.4526 89.4ZM57.4637 82.94C58.3903 82.94 59.1003 83.2467 59.5937 83.86C60.087 84.4667 60.3337 85.3267 60.3337 86.44C60.3337 87.22 60.2003 87.88 59.9337 88.42C59.667 88.96 59.2937 89.37 58.8137 89.65C58.3337 89.9233 57.7737 90.06 57.1337 90.06C56.4403 90.06 55.887 89.9333 55.4737 89.68L55.7637 89.1C56.097 89.32 56.5503 89.43 57.1237 89.43C57.897 89.43 58.5037 89.1867 58.9437 88.7C59.3837 88.2067 59.6037 87.4933 59.6037 86.56C59.6037 86.3867 59.5937 86.1967 59.5737 85.99C59.4003 86.37 59.1237 86.6667 58.7437 86.88C58.3637 87.0867 57.927 87.19 57.4337 87.19C56.9737 87.19 56.5637 87.1033 56.2037 86.93C55.8503 86.7567 55.5737 86.5133 55.3737 86.2C55.1737 85.88 55.0737 85.51 55.0737 85.09C55.0737 84.6633 55.177 84.2867 55.3837 83.96C55.5903 83.6333 55.8737 83.3833 56.2337 83.21C56.6003 83.03 57.0103 82.94 57.4637 82.94ZM57.5437 86.58C57.897 86.58 58.207 86.5133 58.4737 86.38C58.747 86.2467 58.9603 86.0633 59.1137 85.83C59.267 85.5967 59.3437 85.3367 59.3437 85.05C59.3437 84.7833 59.2703 84.5367 59.1237 84.31C58.9837 84.0833 58.7737 83.9 58.4937 83.76C58.2137 83.62 57.8803 83.55 57.4937 83.55C56.987 83.55 56.5737 83.69 56.2537 83.97C55.9403 84.2433 55.7837 84.61 55.7837 85.07C55.7837 85.53 55.9403 85.8967 56.2537 86.17C56.5737 86.4433 57.0037 86.58 57.5437 86.58Z" fill="white"/>
<path d="M54.703 100.236H53.335V102H51.439V100.236H46.915V98.928L50.875 93.6H52.915L49.243 98.652H51.499V97.08H53.335V98.652H54.703V100.236ZM59.3284 96.732C59.8644 96.732 60.3524 96.84 60.7924 97.056C61.2324 97.272 61.5804 97.58 61.8364 97.98C62.0924 98.372 62.2204 98.828 62.2204 99.348C62.2204 99.908 62.0804 100.4 61.8004 100.824C61.5204 101.248 61.1364 101.576 60.6484 101.808C60.1684 102.032 59.6324 102.144 59.0404 102.144C57.8644 102.144 56.9444 101.784 56.2804 101.064C55.6164 100.344 55.2844 99.316 55.2844 97.98C55.2844 97.028 55.4644 96.212 55.8244 95.532C56.1844 94.852 56.6844 94.336 57.3244 93.984C57.9724 93.632 58.7204 93.456 59.5684 93.456C60.0164 93.456 60.4444 93.508 60.8524 93.612C61.2684 93.708 61.6204 93.848 61.9084 94.032L61.1884 95.46C60.7724 95.18 60.2484 95.04 59.6164 95.04C58.9044 95.04 58.3404 95.248 57.9244 95.664C57.5084 96.08 57.2844 96.684 57.2524 97.476C57.7484 96.98 58.4404 96.732 59.3284 96.732ZM58.9324 100.692C59.3484 100.692 59.6844 100.58 59.9404 100.356C60.2044 100.132 60.3364 99.828 60.3364 99.444C60.3364 99.06 60.2044 98.756 59.9404 98.532C59.6844 98.3 59.3404 98.184 58.9084 98.184C58.4844 98.184 58.1364 98.304 57.8644 98.544C57.5924 98.776 57.4564 99.076 57.4564 99.444C57.4564 99.812 57.5884 100.112 57.8524 100.344C58.1164 100.576 58.4764 100.692 58.9324 100.692Z" fill="white"/>
<defs>
<filter id="filter0_d" x="0.917053" y="0.856308" width="363" height="186.975" filterUnits="userSpaceOnUse" color-interpolation-filters="sRGB">
<feFlood flood-opacity="0" result="BackgroundImageFix"/>
<feColorMatrix in="SourceAlpha" type="matrix" values="0 0 0 0 0 0 0 0 0 0 0 0 0 0 0 0 0 0 127 0"/>
<feOffset dy="2"/>
<feGaussianBlur stdDeviation="2"/>
<feColorMatrix type="matrix" values="0 0 0 0 0 0 0 0 0 0 0 0 0 0 0 0 0 0 0.252151 0"/>
<feBlend mode="normal" in2="BackgroundImageFix" result="effect1_dropShadow"/>
<feBlend mode="normal" in="SourceGraphic" in2="effect1_dropShadow" result="shape"/>
</filter>
</defs>
</svg>
