<svg width="49" height="51" viewBox="0 0 49 51" fill="none" xmlns="http://www.w3.org/2000/svg">
<path d="M48.4256 25.8637C48.448 32.0815 46.1988 38.0806 42.1243 42.6704C38.0498 47.2602 32.448 50.1052 26.4306 50.6406H24.3578C22.5773 50.6261 20.8026 50.4275 19.0606 50.0479C14.582 49.0349 10.4754 46.732 7.21979 43.4077C3.96419 40.0834 1.69377 35.8748 0.673323 31.2726C-0.347125 26.6704 -0.0755419 21.8644 1.4564 17.4151C2.98834 12.9658 5.7175 9.05655 9.32557 6.1433C12.9336 3.23006 17.2719 1.4329 21.8344 0.961416C26.397 0.489931 30.9957 1.36356 35.0942 3.4804C39.1928 5.59725 42.6222 8.87007 44.9826 12.9172C47.3431 16.9642 48.5371 21.6188 48.4256 26.3379V25.8637Z" fill="url(#paint0_linear)"/>
<path d="M27.1215 20.6465C27.4229 20.3857 27.7712 20.1886 28.1467 20.0665C28.5221 19.9445 28.9172 19.8999 29.3095 19.9352C30.3789 19.7795 31.4644 19.7795 32.5338 19.9352L33.4551 14.719C31.5295 14.0397 29.5018 13.7186 27.467 13.7706C25.7416 13.6862 24.0274 14.0966 22.5153 14.9561C21.3453 15.5115 20.4062 16.4783 19.8667 17.6828C19.2804 19.3945 19.007 21.2033 19.0606 23.0175V25.0329H15.1453V30.9604H19.0606V50.1655C20.8026 50.5451 22.5772 50.7437 24.3577 50.7583H26.4306V31.4346H31.7277V25.5071H26.4306V23.6103C26.4306 22.0691 26.5457 21.2393 27.1215 20.6465Z" fill="white"/>
<defs>
<linearGradient id="paint0_linear" x1="37.8779" y1="-19.639" x2="-12.7162" y2="24.2728" gradientUnits="userSpaceOnUse">
<stop stop-color="#BE668D"/>
<stop stop-color="#A46A9F"/>
<stop offset="0.543719" stop-color="#3E759E"/>
<stop offset="1" stop-color="#28748E"/>
</linearGradient>
</defs>
</svg>
