<svg width="50" height="48" viewBox="0 0 50 48" fill="none" xmlns="http://www.w3.org/2000/svg">
<path d="M49.2183 24.0067C49.2407 29.9709 46.9915 35.7255 42.917 40.1282C38.8426 44.5309 33.2407 47.2599 27.2234 47.7736H25.1505C23.37 47.7596 21.5953 47.5691 19.8533 47.205C15.3747 46.2333 11.2681 44.0243 8.01251 40.8355C4.75691 37.6467 2.4865 33.6096 1.46605 29.195C0.445599 24.7805 0.717183 20.1704 2.24912 15.9024C3.78106 11.6345 6.51022 7.88458 10.1183 5.09009C13.7264 2.2956 18.0646 0.571693 22.6272 0.119427C27.1897 -0.332839 31.7884 0.505175 35.8869 2.53573C39.9855 4.56629 43.415 7.7057 45.7754 11.5878C48.1358 15.4699 49.3298 19.9348 49.2183 24.4615V24.0067Z" fill="#494D56"/>
<path d="M27.9142 19.0025C28.2156 18.7523 28.564 18.5632 28.9394 18.4461C29.3148 18.3291 29.71 18.2863 30.1022 18.3202C31.1717 18.1709 32.2571 18.1709 33.3266 18.3202L34.2479 13.3166C32.3222 12.665 30.2946 12.357 28.2597 12.4069C26.5343 12.3259 24.8201 12.7196 23.308 13.5441C22.138 14.0768 21.1988 15.0042 20.6594 16.1595C20.073 17.8015 19.7997 19.5366 19.8533 21.2768V23.21H15.9379V28.8959H19.8533V47.3181C21.5953 47.6822 23.3699 47.8727 25.1505 47.8867H27.2233V29.3508H32.5205V23.6649H27.2233V21.8454C27.2233 20.3671 27.3384 19.5711 27.9142 19.0025Z" fill="white"/>
</svg>
