<svg width="24" height="24" viewBox="0 0 24 24" fill="none" xmlns="http://www.w3.org/2000/svg">
<path fill-rule="evenodd" clip-rule="evenodd" d="M0.67926 0H23.3207C23.6943 0 24 0.332458 24 0.7388V19.455C24 19.8613 23.6943 20.1938 23.3207 20.1938H14.2642V21.9176H16.9811C17.3547 21.9176 17.6604 22.2501 17.6604 22.6564V23.6415H6.3396V22.6564C6.3396 22.2501 6.64526 21.9176 7.01886 21.9176H9.73584V20.1938H0.67926C0.305664 20.1938 0 19.8613 0 19.455V0.7388C0 0.332458 0.305664 0 0.67926 0ZM1.59363 18.8491H22.4182V2H1.59363V18.8491Z" fill="#6C7077"/>
<path fill-rule="evenodd" clip-rule="evenodd" d="M13.8553 4.0094H4.2453V8.72638H13.8553V4.0094ZM4.2453 10.9056H7.9653V15.6226H4.2453V10.9056ZM16.0378 10.9056H19.7578V15.6226H16.0378V10.9056Z" fill="#6C7077"/>
<path fill-rule="evenodd" clip-rule="evenodd" d="M16.0377 4.0094H19.7577V8.72638H16.0377V4.0094Z" fill="#4D76C8"/>
<path fill-rule="evenodd" clip-rule="evenodd" d="M10.1415 10.9056H13.8615V15.6226H10.1415V10.9056Z" fill="#4D76C8"/>
</svg>
