<svg width="48" height="48" viewBox="0 0 48 48" fill="none" xmlns="http://www.w3.org/2000/svg">
<path d="M47.913 24.1194C47.913 28.8425 46.5124 33.4596 43.8884 37.3868C41.2643 41.3139 37.5347 44.3748 33.1711 46.1822C28.8074 47.9897 24.0059 48.4626 19.3735 47.5412C14.7411 46.6197 10.486 44.3453 7.14619 41.0056C3.80642 37.6658 1.53201 33.4107 0.610573 28.7783C-0.310866 24.1459 0.16205 19.3443 1.96952 14.9807C3.77699 10.6171 6.83783 6.88742 10.765 4.26338C14.6921 1.63934 19.3092 0.23877 24.0323 0.23877C27.1684 0.23877 30.2737 0.85646 33.1711 2.05657C36.0684 3.25669 38.701 5.01572 40.9185 7.23324C43.136 9.45077 44.8951 12.0833 46.0952 14.9807C47.2953 17.878 47.913 20.9834 47.913 24.1194Z" fill="#494D56"/>
<path fill-rule="evenodd" clip-rule="evenodd" d="M33.5846 11.6101H14.5938C14.1326 11.5553 13.6649 11.6058 13.226 11.7578C12.7871 11.9098 12.3885 12.1595 12.0601 12.4879C11.7316 12.8163 11.482 13.215 11.3299 13.6539C11.1779 14.0928 11.1274 14.5604 11.1823 15.0216V33.5576C11.1304 34.0083 11.179 34.465 11.3247 34.8947C11.4704 35.3244 11.7096 35.7164 12.0249 36.0427C12.3403 36.3689 12.724 36.6212 13.1485 36.7814C13.5731 36.9416 14.0278 37.0057 14.4801 36.9691H33.5846C34.0458 37.0239 34.5134 36.9734 34.9523 36.8214C35.3912 36.6693 35.7899 36.4197 36.1183 36.0913C36.4467 35.7628 36.6964 35.3642 36.8484 34.9253C37.0004 34.4864 37.0509 34.0188 36.9961 33.5576V14.5668C36.983 14.1428 36.8823 13.7262 36.7002 13.3431C36.5181 12.96 36.2586 12.6189 35.938 12.3411C35.6175 12.0633 35.2429 11.8549 34.8379 11.7291C34.4328 11.6033 34.0061 11.5628 33.5846 11.6101ZM31.5377 14.453C34.0394 14.453 34.0394 14.453 34.0394 17.0685C34.0394 19.684 34.0394 19.4566 31.5377 19.4566C29.0359 19.4566 29.0359 19.4566 29.0359 16.9548C29.0359 14.453 29.0359 14.1119 31.5377 14.1119V14.453ZM24.146 19.4566C25.4532 19.4863 26.6969 20.0266 27.6108 20.9617C28.5247 21.8969 29.0362 23.1526 29.0359 24.4602C28.856 25.6433 28.258 26.7227 27.3505 27.5027C26.4429 28.2827 25.2859 28.7116 24.0892 28.7116C22.8925 28.7116 21.7354 28.2827 20.8279 27.5027C19.9203 26.7227 19.3224 25.6433 19.1425 24.4602C19.0956 23.775 19.1904 23.0875 19.4208 22.4405C19.6512 21.7935 20.0123 21.2008 20.4817 20.6994C20.9511 20.1981 21.5186 19.7987 22.149 19.5262C22.7795 19.2537 23.4592 19.1139 24.146 19.1155V19.4566ZM34.3806 32.4204C34.3806 33.6713 34.3806 34.0124 32.9023 34.0124H15.6172C14.4801 34.0124 14.1389 34.0124 14.1389 32.4204V22.9818C14.1389 22.0721 14.1389 21.8447 15.1624 21.9584C16.1858 22.0721 16.4133 21.9584 16.2995 23.0956C16.0704 25.1391 16.6409 27.192 17.8916 28.8243C19.1423 30.4565 20.9761 31.5415 23.0089 31.8518C24.9607 32.2185 26.9793 31.8529 28.6786 30.8249C30.3779 29.7969 31.6387 28.1787 32.22 26.2796C32.5009 25.0829 32.5009 23.8374 32.22 22.6407V22.0721C32.22 22.0721 34.0394 22.0721 34.0394 23.7779L34.3806 32.4204Z" fill="white"/>
</svg>
