<svg width="49" height="50" viewBox="0 0 49 50" fill="none" xmlns="http://www.w3.org/2000/svg">
<path d="M48.1202 24.9812C48.1202 29.905 46.7197 34.7183 44.0956 38.8123C41.4716 42.9063 37.742 46.0971 33.3783 47.9814C29.0147 49.8657 24.2131 50.3587 19.5808 49.3981C14.9484 48.4375 10.6933 46.0665 7.35349 42.5848C4.01373 39.1031 1.73932 34.6672 0.817879 29.838C-0.10356 25.0088 0.369356 20.0032 2.17682 15.4542C3.98429 10.9052 7.04513 7.01707 10.9723 4.28155C14.8994 1.54602 19.5165 0.0859375 24.2396 0.0859375C27.3757 0.0859375 30.481 0.729872 33.3783 1.98098C36.2757 3.23208 38.9082 5.06585 41.1258 7.37759C43.3433 9.68933 45.1023 12.4338 46.3024 15.4542C47.5025 18.4746 48.1202 21.7119 48.1202 24.9812Z" fill="url(#paint0_linear)"/>
<path fill-rule="evenodd" clip-rule="evenodd" d="M33.7918 11.9404H14.8011C14.3398 11.8832 13.8722 11.9358 13.4333 12.0943C12.9944 12.2528 12.5958 12.5131 12.2673 12.8555C11.9389 13.1979 11.6893 13.6135 11.5372 14.071C11.3852 14.5286 11.3347 15.0161 11.3895 15.4969V34.8209C11.3376 35.2909 11.3863 35.7669 11.532 36.2149C11.6777 36.6629 11.9168 37.0716 12.2322 37.4117C12.5476 37.7518 12.9313 38.0148 13.3558 38.1818C13.7803 38.3488 14.2351 38.4156 14.6873 38.3775H33.7918C34.2531 38.4347 34.7207 38.382 35.1596 38.2235C35.5985 38.065 35.9971 37.8048 36.3256 37.4624C36.654 37.12 36.9036 36.7044 37.0557 36.2468C37.2077 35.7893 37.2582 35.3018 37.2034 34.8209V15.0227C37.1903 14.5808 37.0895 14.1464 36.9074 13.747C36.7253 13.3477 36.4659 12.992 36.1453 12.7024C35.8248 12.4128 35.4502 12.1956 35.0451 12.0644C34.6401 11.9333 34.2133 11.891 33.7918 11.9404ZM31.7449 14.9042C34.2467 14.9042 34.2467 14.9042 34.2467 17.6309C34.2467 20.3576 34.2467 20.1205 31.7449 20.1205C29.2432 20.1205 29.2432 20.1205 29.2432 17.5123C29.2432 14.9042 29.2432 14.5485 31.7449 14.5485V14.9042ZM24.3533 20.1205C25.6605 20.1515 26.9042 20.7147 27.8181 21.6896C28.732 22.6645 29.2435 23.9736 29.2432 25.3368C29.0633 26.5701 28.4653 27.6955 27.5577 28.5086C26.6502 29.3218 25.4931 29.7689 24.2964 29.7689C23.0998 29.7689 21.9427 29.3218 21.0352 28.5086C20.1276 27.6955 19.5296 26.5701 19.3497 25.3368C19.3029 24.6224 19.3977 23.9057 19.6281 23.2312C19.8584 22.5567 20.2196 21.9388 20.689 21.4162C21.1583 20.8935 21.7259 20.4771 22.3563 20.193C22.9867 19.9089 23.6665 19.7631 24.3533 19.7648V20.1205ZM34.5879 33.6354C34.5879 34.9395 34.5879 35.2951 33.1095 35.2951H15.8245C14.6873 35.2951 14.3462 35.2951 14.3462 33.6354V23.7956C14.3462 22.8472 14.3462 22.6101 15.3696 22.7286C16.3931 22.8472 16.6205 22.7286 16.5068 23.9141C16.2776 26.0445 16.8481 28.1848 18.0988 29.8864C19.3495 31.5881 21.1834 32.7191 23.2161 33.0427C25.168 33.4249 27.1866 33.0438 28.8859 31.9721C30.5852 30.9004 31.846 29.2134 32.4272 27.2336C32.7082 25.986 32.7082 24.6875 32.4272 23.4399V22.8472C32.4272 22.8472 34.2467 22.8472 34.2467 24.6255L34.5879 33.6354Z" fill="white"/>
<defs>
<linearGradient id="paint0_linear" x1="37.6973" y1="-20.3846" x2="-12.7921" y2="22.9" gradientUnits="userSpaceOnUse">
<stop stop-color="#BE668D"/>
<stop stop-color="#A46A9F"/>
<stop offset="0.543719" stop-color="#3E759E"/>
<stop offset="1" stop-color="#28748E"/>
</linearGradient>
</defs>
</svg>
