<svg width="78" height="148" viewBox="0 0 128 148" fill="none" xmlns="http://www.w3.org/2000/svg">
<path opacity="0.5" d="M69.8519 14.5631C96.7531 29.916 120.466 66.6865 120.466 97.3922C120.466 109.477 112.577 150.424 68.3109 126.757C40.996 112.153 20.9906 72.6846 20.9906 41.9789C20.9906 11.2732 42.9507 -0.789719 69.8519 14.5631Z" fill="#161A1D"/>
<path d="M93.3351 56.6443C102.104 71.6257 106.444 87.1492 106.477 100.062C106.51 113.048 102.231 122.867 94.4208 127.427C86.6466 131.967 76.34 130.695 65.3567 124.086C54.4273 117.509 43.3218 105.891 34.5309 90.8723C25.74 75.8541 21.0745 60.5304 20.7205 47.8345C20.3648 35.0798 24.3291 25.5188 32.1094 20.976C39.9192 16.4159 50.5859 17.5087 61.8996 23.9078C73.1501 30.2712 84.5657 41.6628 93.3351 56.6443Z" stroke="url(#paint0_linear)" stroke-width="5"/>
<path d="M101.182 128.948C127.479 109.226 105.126 46.5518 62.6132 21.5698V76.3548L42.8906 109.226C74.0085 140.344 92.8201 135.22 101.182 128.948Z" fill="url(#paint1_linear)" stroke="url(#paint2_linear)"/>
<path d="M94.1694 60.5766L64.3664 77.2312L63.2638 75.4263L93.2929 58.8235L94.1694 60.5766Z" fill="#DCE5FD" fill-opacity="0.5"/>
<path d="M48.15 55.3175L60.8601 75.9747H62.7147L49.4649 53.5643L48.15 55.3175Z" fill="#DCE5FD" fill-opacity="0.5"/>
<path d="M63.4898 77.6696L42.0141 111.417L38.9462 107.473L62.175 75.4782L63.4898 77.6696Z" fill="#CA3F23"/>
<path d="M70.064 128.51C70.064 128.51 61.2984 125.442 44.2054 108.349L46.3968 104.843C57.7921 119.745 70.064 128.51 70.064 128.51Z" fill="#0956AA" stroke="#08509E" stroke-width="0.25"/>
<path d="M59.9698 72.1365C61.6168 71.0398 63.8128 72.6848 65.4598 75.4264C67.1068 78.168 67.1068 80.9095 65.4598 81.4578C63.8128 82.5545 61.6168 80.9095 59.9698 78.168C58.3227 75.4264 58.3227 72.6848 59.9698 72.1365Z" fill="#212121"/>
<path d="M60.0592 20.5257C61.3287 19.6613 63.0213 20.9579 64.2908 23.1189C65.5603 25.28 65.5603 27.441 64.2908 27.8732C63.0213 28.7376 61.3287 27.441 60.0592 25.28C58.7897 23.1189 58.7897 20.9579 60.0592 20.5257Z" fill="#CA3F23"/>
<defs>
<linearGradient id="paint0_linear" x1="44.2664" y1="-32.1326" x2="-29.3793" y2="47.0137" gradientUnits="userSpaceOnUse">
<stop stop-color="#49DFEA"/>
<stop stop-color="#BE668D"/>
<stop offset="1" stop-color="#0072E4"/>
</linearGradient>
<linearGradient id="paint1_linear" x1="112.485" y1="-10.9532" x2="15.3304" y2="20.891" gradientUnits="userSpaceOnUse">
<stop stop-color="#49DFEA"/>
<stop offset="1" stop-color="#0072E4"/>
</linearGradient>
<linearGradient id="paint2_linear" x1="112.485" y1="-10.9532" x2="15.3304" y2="20.891" gradientUnits="userSpaceOnUse">
<stop stop-color="#49DFEA"/>
<stop stop-color="#BE668D"/>
<stop offset="1" stop-color="#0072E4"/>
</linearGradient>
</defs>
</svg>
