<svg width="49" height="50" viewBox="0 0 49 50" fill="none" xmlns="http://www.w3.org/2000/svg">
<path d="M48.418 24.9815C48.4179 29.9103 47.0144 34.7283 44.3853 38.8248C41.7562 42.9213 38.0199 46.1121 33.6496 47.9928C29.2794 49.8736 24.472 50.3596 19.8365 49.3894C15.201 48.4191 10.9462 46.0363 7.61097 42.5427C4.27577 39.0492 2.01038 34.6022 1.10183 29.7652C0.193271 24.9282 0.682441 19.9189 2.50736 15.372C4.33227 10.8252 7.4108 6.94529 11.3529 4.22408C15.295 1.50286 19.9232 0.0627492 24.6511 0.0862199C30.9649 0.117563 37.0098 2.75428 41.4638 7.41965C45.9177 12.085 48.418 18.3993 48.418 24.9815Z" fill="url(#paint0_linear)"/>
<path fill-rule="evenodd" clip-rule="evenodd" d="M10.2089 35.6523C12.4292 35.8002 14.6513 35.3937 16.6907 34.4668C17.625 34.0283 18.5035 33.4708 19.3062 32.807C18.3537 32.812 17.4152 32.5674 16.577 32.0957C15.2086 31.3824 14.1516 30.1534 13.6204 28.6577C14.3674 28.8486 15.1477 28.8486 15.8947 28.6577H14.4164C13.2017 27.9849 12.2387 26.9065 11.682 25.5952C11.1253 24.2839 11.007 22.8157 11.346 21.426C12.1231 21.8427 12.9754 22.085 13.8478 22.1373L12.8244 21.1889C11.9674 20.1319 11.4424 18.826 11.3203 17.4478C11.1983 16.0697 11.4851 14.6857 12.1421 13.483C15.0302 17.0062 19.0956 19.2525 23.5138 19.7662H24.8784C24.6384 18.4295 24.8053 17.0479 25.3559 15.8149C25.9065 14.582 26.813 13.5594 27.9487 12.8902C29.1204 12.2196 30.4648 11.9503 31.7914 12.1205C33.118 12.2907 34.3596 12.8918 35.3403 13.8386C35.3403 13.8386 35.3403 13.8386 36.0226 13.8386C37.1803 13.5854 38.2929 13.1454 39.3204 12.5345C38.9286 14.0312 37.9896 15.3081 36.7049 16.0911C37.867 15.9407 39.0105 15.6625 40.1165 15.2613C39.4234 16.3391 38.5349 17.2654 37.501 17.988C37.501 17.988 37.501 17.988 37.501 18.5807C37.6402 23.2249 36.0975 27.7535 33.1797 31.2658C30.5531 34.6106 26.8211 36.8097 22.7177 37.4306C18.5143 38.3841 14.1227 37.754 10.3226 35.6523H10.2089Z" fill="white"/>
<defs>
<linearGradient id="paint0_linear" x1="37.9951" y1="-20.3846" x2="-12.4943" y2="22.9" gradientUnits="userSpaceOnUse">
<stop stop-color="#BE668D"/>
<stop stop-color="#A46A9F"/>
<stop offset="0.543719" stop-color="#3E759E"/>
<stop offset="1" stop-color="#28748E"/>
</linearGradient>
</defs>
</svg>
