<svg width="49" height="48" viewBox="0 0 49 48" fill="none" xmlns="http://www.w3.org/2000/svg">
<path d="M48.2107 24.1197C48.2106 28.8476 46.8071 33.4692 44.178 37.3988C41.5489 41.3284 37.8125 44.3891 33.4423 46.1932C29.0721 47.9972 24.2646 48.4635 19.6292 47.5328C14.9937 46.6021 10.7388 44.3164 7.40363 40.9652C4.06844 37.6141 1.80305 33.3483 0.894491 28.7085C-0.0140657 24.0686 0.475105 19.2635 2.30002 14.9019C4.12494 10.5403 7.20347 6.81857 11.1456 4.20825C15.0876 1.59794 19.7158 0.216526 24.4438 0.23904C30.7576 0.269107 36.8025 2.79836 41.2565 7.27359C45.7104 11.7488 48.2107 17.8058 48.2107 24.1197Z" fill="#494D56"/>
<path fill-rule="evenodd" clip-rule="evenodd" d="M10.0015 34.3551C12.2218 34.4969 14.444 34.1071 16.4834 33.2179C17.4177 32.7973 18.2962 32.2626 19.0989 31.6258C18.1464 31.6306 17.2079 31.396 16.3697 30.9435C15.0013 30.2594 13.9443 29.0804 13.413 27.6457C14.1601 27.8289 14.9403 27.8289 15.6874 27.6457H14.2091C12.9943 27.0004 12.0314 25.966 11.4747 24.7082C10.9179 23.4503 10.7996 22.042 11.1387 20.709C11.9158 21.1087 12.768 21.3411 13.6405 21.3913L12.617 20.4815C11.76 19.4676 11.235 18.215 11.113 16.8931C10.991 15.5711 11.2778 14.2436 11.9347 13.0899C14.8229 16.4695 18.8883 18.6241 23.3064 19.1169H24.6711C24.4311 17.8347 24.598 16.5095 25.1486 15.3268C25.6991 14.1441 26.6057 13.1632 27.7414 12.5213C28.9131 11.8781 30.2575 11.6198 31.5841 11.783C32.9107 11.9463 34.1523 12.5229 35.133 13.4311C35.133 13.4311 35.133 13.4311 35.8153 13.4311C36.973 13.1882 38.0856 12.7661 39.1132 12.1802C38.7214 13.6158 37.7823 14.8406 36.4977 15.5917C37.6597 15.4474 38.8033 15.1806 39.9092 14.7957C39.2161 15.8296 38.3276 16.7181 37.2937 17.4112C37.2937 17.4112 37.2937 17.4112 37.2937 17.9798C37.4329 22.4345 35.8902 26.7784 32.9724 30.1475C30.3458 33.3559 26.6138 35.4653 22.5104 36.0608C18.307 36.9754 13.9154 36.3711 10.1152 34.3551H10.0015Z" fill="white"/>
</svg>
