<svg width="49" height="48" viewBox="0 0 49 48" fill="none" xmlns="http://www.w3.org/2000/svg">
<path d="M48.5083 24.1194C48.5083 28.8425 47.09 33.4596 44.4327 37.3868C41.7755 41.3139 37.9986 44.3748 33.5798 46.1822C29.1609 47.9897 24.2986 48.4626 19.6075 47.5412C14.9165 46.6197 10.6075 44.3453 7.22548 41.0056C3.84344 37.6658 1.54024 33.4107 0.607135 28.7783C-0.325968 24.1459 0.152934 19.3443 1.98328 14.9807C3.81363 10.6171 6.91321 6.88742 10.8901 4.26338C14.8669 1.63934 19.5425 0.23877 24.3254 0.23877C27.5011 0.23877 30.6458 0.85646 33.5798 2.05657C36.5138 3.25669 39.1797 5.01572 41.4253 7.23324C43.6709 9.45077 45.4522 12.0833 46.6675 14.9807C47.8828 17.878 48.5083 20.9834 48.5083 24.1194Z" fill="#494D56"/>
<path fill-rule="evenodd" clip-rule="evenodd" d="M38.7201 20.7088C37.968 17.4896 36.1375 14.6153 33.525 12.5515C30.9125 10.4876 27.671 9.355 24.3255 9.33712C23.4049 9.28834 22.4823 9.28834 21.5617 9.33712C19.2544 9.7579 17.0848 10.725 15.2389 12.1554C13.3931 13.5859 11.9261 15.4371 10.9637 17.5502C10.0013 19.6634 9.57222 21.9755 9.71324 24.2884C9.85426 26.6012 10.5612 28.8458 11.7734 30.8297C11.837 31.0913 11.837 31.3641 11.7734 31.6257C11.0824 33.7863 10.5067 36.0607 9.81571 38.335L16.8403 36.5155H17.4161C19.8865 37.7994 22.6754 38.3642 25.4582 38.144C28.2409 37.9238 30.9032 36.9277 33.1351 35.2718C35.367 33.6158 37.0768 31.3679 38.0655 28.7898C39.0542 26.2117 39.2812 23.4094 38.7201 20.7088ZM26.3983 35.8332C25.8661 35.9374 25.3183 35.9374 24.7861 35.8332C22.4685 35.9113 20.1691 35.4024 18.107 34.3549C17.999 34.3043 17.881 34.2781 17.7615 34.2781C17.642 34.2781 17.524 34.3043 17.4161 34.3549L13.5007 35.3784C13.5007 35.3784 14.0765 32.9903 14.5371 31.7394C14.6425 31.4451 14.6425 31.124 14.5371 30.8297C13.096 28.8821 12.3193 26.5325 12.3193 24.1204C12.3193 21.7082 13.096 19.3586 14.5371 17.411C15.8514 15.4383 17.755 13.9186 19.9836 13.0627C22.2123 12.2069 24.6555 12.0574 26.9741 12.6349C29.2971 13.0418 31.4376 14.1434 33.1059 15.7909C34.7741 17.4383 35.8898 19.552 36.3018 21.846C36.688 23.4149 36.7316 25.047 36.4295 26.6338C36.1274 28.2206 35.4866 29.7256 34.5497 31.0488C33.6128 32.3721 32.4013 33.4831 30.9958 34.308C29.5903 35.133 28.0231 35.6529 26.3983 35.8332Z" fill="white"/>
<path fill-rule="evenodd" clip-rule="evenodd" d="M28.2408 30.828C27.7487 30.944 27.2358 30.944 26.7437 30.828C23.4983 29.8551 20.692 27.8068 18.7979 25.0284C17.9545 24.0438 17.3622 22.874 17.0706 21.6169C16.8975 20.9198 16.9243 20.189 17.1481 19.5061C17.3718 18.8233 17.7836 18.2154 18.3373 17.7505C18.6456 17.6158 18.979 17.5461 19.3161 17.5461C19.6533 17.5461 19.9867 17.6158 20.2949 17.7505C20.2949 17.7505 21.2162 19.6837 21.5617 20.7072V21.2757C21.4303 21.8626 21.2374 22.4342 20.9859 22.9815C20.9859 22.9815 20.9859 22.9815 20.9859 23.7775C22.1502 25.7006 23.9344 27.1823 26.0528 27.9851H26.7437L27.8953 26.6205C27.8953 26.6205 27.8953 26.6205 28.7014 26.6205L30.7742 27.5302C31.5803 27.5302 31.5803 27.5302 31.4652 28.7811C31.3715 29.4421 31.0624 30.0549 30.5844 30.5269C30.1065 30.9988 29.4859 31.3041 28.8165 31.3966C28.5665 31.2748 28.3641 31.0749 28.2408 30.828Z" fill="white"/>
</svg>
