<svg width="49" height="50" viewBox="0 0 49 50" fill="none" xmlns="http://www.w3.org/2000/svg">
<path d="M48.7156 24.9812C48.7156 29.905 47.2973 34.7183 44.64 38.8123C41.9828 42.9063 38.2059 46.0971 33.7871 47.9814C29.3682 49.8657 24.5058 50.3587 19.8148 49.3981C15.1238 48.4375 10.8148 46.0665 7.43275 42.5848C4.05071 39.1031 1.74751 34.6672 0.81441 29.838C-0.118693 25.0088 0.360209 20.0032 2.19056 15.4542C4.0209 10.9052 7.12049 7.01707 11.0974 4.28155C15.0742 1.54602 19.7497 0.0859375 24.5327 0.0859375C27.7084 0.0859375 30.8531 0.729872 33.7871 1.98098C36.7211 3.23208 39.387 5.06585 41.6326 7.37759C43.8782 9.68933 45.6595 12.4338 46.8748 15.4542C48.0901 18.4746 48.7156 21.7119 48.7156 24.9812Z" fill="url(#paint0_linear)"/>
<path fill-rule="evenodd" clip-rule="evenodd" d="M38.9273 21.4259C38.1752 18.0698 36.3447 15.0734 33.7323 12.9218C31.1198 10.7702 27.8783 9.5895 24.5327 9.57085C23.6121 9.52 22.6896 9.52 21.769 9.57085C19.4616 10.0095 17.292 11.0177 15.4462 12.509C13.6004 14.0002 12.1334 15.9301 11.171 18.1331C10.2086 20.336 9.7795 22.7464 9.92052 25.1576C10.0615 27.5688 10.7685 29.9087 11.9807 31.9769C12.0442 32.2497 12.0442 32.534 11.9807 32.8068C11.2897 35.0592 10.7139 37.4303 10.023 39.8013L17.0475 37.9045H17.6233C20.0938 39.2429 22.8826 39.8316 25.6654 39.6021C28.4482 39.3725 31.1104 38.3342 33.3423 36.6078C35.5742 34.8814 37.284 32.5381 38.2727 29.8504C39.2614 27.1627 39.4884 24.2412 38.9273 21.4259ZM26.6055 37.1932C26.0733 37.3018 25.5256 37.3018 24.9933 37.1932C22.6757 37.2746 20.3764 36.744 18.3143 35.652C18.2063 35.5993 18.0883 35.5719 17.9688 35.5719C17.8493 35.5719 17.7313 35.5993 17.6233 35.652L13.708 36.719C13.708 36.719 14.2838 34.2294 14.7444 32.9253C14.8498 32.6185 14.8498 32.2838 14.7444 31.9769C13.3032 29.9466 12.5265 27.4971 12.5265 24.9824C12.5265 22.4678 13.3032 20.0183 14.7444 17.9879C16.0587 15.9314 17.9623 14.3471 20.1909 13.4548C22.4195 12.5626 24.8627 12.4067 27.1813 13.0088C29.5044 13.433 31.6448 14.5815 33.3131 16.2989C34.9814 18.0164 36.097 20.2199 36.509 22.6114C36.8953 24.247 36.9388 25.9485 36.6367 27.6027C36.3346 29.2569 35.6938 30.8259 34.757 32.2054C33.8201 33.5849 32.6086 34.7431 31.2031 35.6031C29.7976 36.4631 28.2303 37.0052 26.6055 37.1932Z" fill="white"/>
<path fill-rule="evenodd" clip-rule="evenodd" d="M28.448 31.9746C27.9559 32.0955 27.4431 32.0955 26.951 31.9746C23.7056 30.9604 20.8993 28.825 19.0052 25.9286C18.1618 24.9022 17.5695 23.6826 17.2779 22.3721C17.1048 21.6455 17.1317 20.8835 17.3554 20.1717C17.5791 19.4598 17.9909 18.8261 18.5446 18.3415C18.8529 18.201 19.1863 18.1284 19.5234 18.1284C19.8606 18.1284 20.194 18.201 20.5023 18.3415C20.5023 18.3415 21.4235 20.3568 21.769 21.4237V22.0165C21.6376 22.6282 21.4447 23.2242 21.1932 23.7947C21.1932 23.7947 21.1932 23.7947 21.1932 24.6246C22.3575 26.6294 24.1417 28.174 26.2601 29.0109H26.951L28.1026 27.5883C28.1026 27.5883 28.1026 27.5883 28.9087 27.5883L30.9815 28.5367C31.7876 28.5367 31.7876 28.5367 31.6724 29.8407C31.5788 30.5298 31.2696 31.1687 30.7917 31.6607C30.3138 32.1527 29.6932 32.471 29.0238 32.5674C28.7738 32.4404 28.5714 32.2321 28.448 31.9746Z" fill="white"/>
<defs>
<linearGradient id="paint0_linear" x1="38.1607" y1="-20.3846" x2="-12.4219" y2="23.5289" gradientUnits="userSpaceOnUse">
<stop stop-color="#BE668D"/>
<stop stop-color="#A46A9F"/>
<stop offset="0.543719" stop-color="#3E759E"/>
<stop offset="1" stop-color="#28748E"/>
</linearGradient>
</defs>
</svg>
