<?xml version="1.0" encoding="UTF-8"?>
<svg width="400px" height="204px" viewBox="0 0 400 204" version="1.1" xmlns="http://www.w3.org/2000/svg" xmlns:xlink="http://www.w3.org/1999/xlink">
    <defs></defs>
    <g id="Account-Planning-Draft" stroke="none" stroke-width="1" fill="none" fill-rule="evenodd">
        <g transform="translate(-408.000000, -215.000000)" id="bg-accounts-graphic">
            <g transform="translate(409.000000, 213.000000)">
                <path d="M0.604493105,188.821327 C0.604493105,188.821327 56.8601672,167.143363 198.77423,194.649391 C340.688292,222.15542 379.398437,174.449219 379.398437,174.449219" id="Path-2" stroke="#363A43" stroke-width="4" transform="translate(190.001465, 188.821327) scale(-1, 1) translate(-190.001465, -188.821327) "></path>
                <g id="Group-2" stroke-width="1" fill-rule="evenodd" transform="translate(72.000000, 10.000000)" stroke="#3E414C">
                    <polygon id="Star" fill="#D8D8D8" points="234.5 33.6887155 231.100813 38 233.95 33.2685529 229 31.2016261 234.160081 32.5887155 234.5 27 234.839919 32.5887155 240 31.2016261 235.05 33.2685529 237.899187 38"></polygon>
                    <polygon id="Star-Copy-5" fill="#D8D8D8" transform="translate(321.500000, 69.000000) rotate(-42.000000) translate(-321.500000, -69.000000) " points="321.5 69.8645204 318.718847 73 321.05 69.5589476 317 68.0557281 321.221885 69.0645204 321.5 65 321.778115 69.0645204 326 68.0557281 321.95 69.5589476 324.281153 73"></polygon>
                    <polygon id="Star-Copy-6" fill="#D8D8D8" transform="translate(80.500000, 13.000000) rotate(-42.000000) translate(-80.500000, -13.000000) " points="80.5 13.8645204 77.7188471 17 80.05 13.5589476 76 12.0557281 80.2218847 13.0645204 80.5 9 80.7781153 13.0645204 85 12.0557281 80.95 13.5589476 83.2811529 17"></polygon>
                    <polygon id="Star-Copy-3" fill="#3E414C" transform="translate(11.000000, 25.500000) rotate(-28.000000) translate(-11.000000, -25.500000) " points="11 27.1209757 6.05572809 33 10.2 26.5480267 3 23.7294902 10.5055728 25.6209757 11 18 11.4944272 25.6209757 19 23.7294902 11.8 26.5480267 15.9442719 33"></polygon>
                    <polygon id="Star-Copy" fill="#3E414C" transform="translate(175.500000, 10.000000) rotate(-28.000000) translate(-175.500000, -10.000000) " points="175.5 11.6640632 170.864745 17 174.603516 11.0248669 168 8.34752416 174.945942 9.99062566 175.5 3 176.054058 9.99062566 183 8.34752416 176.396484 11.0248669 180.135255 17"></polygon>
                    <polygon id="Star-Copy-2" fill="#3E414C" transform="translate(108.500000, 54.000000) rotate(3.000000) translate(-108.500000, -54.000000) " points="108.5 55.4263399 104.482779 60 107.723047 54.8784574 102 52.5835921 108.019817 53.9919649 108.5 48 108.980183 53.9919649 115 52.5835921 109.276953 54.8784574 112.517221 60"></polygon>
                </g>
                <text id="$" transform="translate(238.708764, 61.538692) rotate(-6.000000) translate(-238.708764, -61.538692) " font-family="Montserrat-Light, Montserrat" font-size="14" font-weight="300" fill="#3E414C">
                    <tspan x="234.208764" y="66.5386916">$</tspan>
                </text>
                <text id="$-copy" transform="translate(201.708764, 9.038692) rotate(-4.000000) translate(-201.708764, -9.038692) " font-family="Montserrat-Light, Montserrat" font-size="10" font-weight="300" fill="#3E414C">
                    <tspan x="198.208764" y="12.5386916">$</tspan>
                </text>
                <text id="$-copy-3" transform="translate(124.387038, 51.699065) rotate(-3.000000) translate(-124.387038, -51.699065) " font-family="Montserrat-Light, Montserrat" font-size="12" font-weight="300" fill="#3E414C">
                    <tspan x="120.387038" y="56.1990653">$</tspan>
                </text>
                <text id="$-copy-5" font-family="Montserrat-Light, Montserrat" font-size="12" font-weight="300" fill="#3E414C">
                    <tspan x="16.3870378" y="87.1990653">$</tspan>
                </text>
                <text id="$-copy-4" transform="translate(107.708764, 7.038692) rotate(-6.000000) translate(-107.708764, -7.038692) " font-family="Montserrat-Light, Montserrat" font-size="10" font-weight="300" fill="#3E414C">
                    <tspan x="104.208764" y="10.5386916">$</tspan>
                </text>
                <text id="$-copy-2" transform="translate(361.708764, 48.038692) rotate(8.000000) translate(-361.708764, -48.038692) " font-family="Montserrat-Light, Montserrat" font-size="10" font-weight="300" fill="#3E414C">
                    <tspan x="358.208764" y="51.5386916">$</tspan>
                </text>
                <path d="M291.947816,141.310539 L291.947816,155.009683 C293.741454,154.797196 295.216361,154.040993 296.385038,152.747324 C297.559965,151.441156 298.141179,149.822507 298.141179,147.916376 C298.141179,146.278978 297.728704,144.960311 296.903756,143.972873 C296.066308,142.985434 294.416411,142.09174 291.947816,141.310539 Z M283.454597,130.023744 C283.454597,131.561148 283.898319,132.842318 284.773264,133.879753 C285.654459,134.910939 287.135617,135.735887 289.235485,136.354599 L289.235485,123.892878 C287.448097,124.155361 286.035685,124.861567 284.99825,125.992746 C283.973314,127.123926 283.454597,128.473841 283.454597,130.023744 Z M356.425036,144.160361 C356.768764,142.804196 356.99375,141.410533 356.99375,139.960623 C356.99375,130.054992 348.68177,122.024244 338.426161,122.024244 C330.257921,122.024244 323.408349,127.142674 320.921005,134.217232 C316.421286,120.386847 308.165552,110.043743 298.234923,106.550211 C298.75989,103.287915 300.409787,99.1694227 303.678333,96.6133325 C308.103056,93.1510489 300.734767,93.4385309 295.72258,94.0197446 C290.710393,94.6009583 279.811074,91.7073891 277.454972,93.7260129 C275.098869,95.7446368 275.980064,98.9194384 278.629898,100.65058 C280.179801,101.656767 282.017186,104.425344 283.292107,106.562711 C268.243047,111.881128 257,132.861067 257,157.953249 C257,161.153049 257.193738,164.290353 257.543716,167.327663 C258.187426,169.415032 260.218549,174.24598 265.330729,174.24598 C271.849072,174.24598 315.358853,174.24598 315.358853,174.24598 C315.358853,174.24598 322.552153,174.020995 323.920817,168.190109 C323.958315,167.883878 323.989563,167.565148 324.027061,167.265167 C327.433098,171.196171 332.582776,173.758511 338.43241,173.758511 C348.688019,173.758511 357,166.021494 357,156.459592 C357,155.065929 356.781264,153.728513 356.443785,152.441093 C356.775014,151.109926 356.99375,149.722513 356.99375,148.285103 C356.99375,146.853942 356.762515,145.485278 356.425036,144.160361 Z M338.426161,170.083741 C331.782826,170.083741 326.239423,165.921501 324.464533,160.259355 C324.470783,160.17186 324.477033,160.090615 324.477033,160.003121 C327.88307,163.777885 332.83901,166.215232 338.426161,166.215232 C344.100806,166.215232 349.131742,163.702889 352.537779,159.821882 C350.92538,165.702764 345.250734,170.083741 338.426161,170.083741 Z M338.426161,162.396721 C331.589088,162.396721 325.901944,157.847005 324.302044,151.728638 C324.289544,151.628644 324.277045,151.541149 324.277045,151.447405 C327.683082,155.353411 332.726517,157.878253 338.426161,157.878253 C344.150803,157.878253 349.219236,155.328413 352.619024,151.37866 C351.144116,157.684516 345.400725,162.396721 338.426161,162.396721 Z M338.426161,154.059742 C330.357915,154.059742 323.814574,147.747637 323.814574,139.960623 C323.814574,132.161111 330.357915,125.842756 338.426161,125.842756 C346.494407,125.842756 353.037748,132.161111 353.037748,139.960623 C353.037748,147.747637 346.494407,154.059742 338.426161,154.059742 Z" id="Shape" fill="#3A3F4B" fill-rule="nonzero"></path>
                <path d="M293.699366,126.054937 C284.678889,126.054937 277.198494,133.535332 277.198494,142.555808 C277.198494,151.576285 284.678889,159.05668 293.699366,159.05668 C302.719843,159.05668 310.200238,151.576285 310.200238,142.555808 C310.200238,133.535332 302.719843,126.054937 293.699366,126.054937 Z" id="Path" fill="#2C313B" fill-rule="evenodd"></path>
                <path d="M307.5,154 C308.880712,154 310,153.005077 310,151.777778 C310,150.550478 307.5,146 307.5,146 C307.5,146 305,150.550478 305,151.777778 C305,153.005077 306.119288,154 307.5,154 Z" id="Oval" fill="#4D76C8" fill-rule="evenodd"></path>
                <path d="M285.275013,140.053141 C284.983963,139.679401 284.983963,138.931922 285.275013,138.558182 L287.60341,135.568264 C287.60341,135.568264 287.89446,135.381394 288.039985,135.381394 C288.331034,135.381394 288.476559,135.568264 288.622084,135.755133 L290.950481,138.745052 C291.24153,139.118792 291.24153,139.866271 290.950481,140.240011 C290.659431,140.613751 290.222857,140.800621 289.786282,140.240011 L288.185509,137.997572 L286.439212,140.053141 C286.002637,140.613751 285.566063,140.613751 285.275013,140.053141 Z" id="Path" fill="#4D76C8" fill-rule="evenodd"></path>
                <path d="M293.167066,153.13648 C289.563595,153.13648 286.536678,149.512762 285.960123,145.126156 L300.085732,145.126156 C299.797454,149.512762 296.770538,153.13648 293.167066,153.13648 Z" id="Path" fill="#E0634A" fill-rule="evenodd"></path>
                <path d="M299.658133,140.440367 L297.914542,138.227101 L296.170952,140.440367 C295.880354,140.809244 295.299157,140.809244 295.008558,140.440367 C294.71796,140.071489 294.71796,139.333734 295.008558,138.964856 L297.333346,136.013836 C297.478645,136.013836 297.769243,135.829397 297.914542,135.829397 C298.205141,135.829397 298.35044,136.013836 298.495739,136.198274 L300.820526,139.149295 C301.111125,139.518173 301.111125,140.255928 300.820526,140.624806 C300.675227,140.993683 300.09403,140.993683 299.658133,140.440367 Z" id="Path" fill="#4D76C8" fill-rule="evenodd"></path>
                <text id="R$" font-family="Montserrat-Bold, Montserrat" font-size="14" font-weight="bold" fill="#187379">
                    <tspan x="329" y="144">R$</tspan>
                </text>
            </g>
        </g>
    </g>
</svg>