<?xml version="1.0" encoding="UTF-8"?>
<svg width="400px" height="204px" viewBox="0 0 400 204" version="1.1" xmlns="http://www.w3.org/2000/svg" xmlns:xlink="http://www.w3.org/1999/xlink">
    <defs></defs>
    <g id="Expenses-Draft" stroke="none" stroke-width="1" fill="none" fill-rule="evenodd">
        <g transform="translate(-408.000000, -215.000000)" id="bg-expenses-graphic">
            <g transform="translate(409.000000, 213.000000)">
                <path d="M0.604493105,188.821327 C0.604493105,188.821327 56.8601672,167.143363 198.77423,194.649391 C340.688292,222.15542 379.398437,174.449219 379.398437,174.449219" id="Path-2" stroke="#363A43" stroke-width="4" transform="translate(190.001465, 188.821327) scale(-1, 1) translate(-190.001465, -188.821327) "></path>
                <g id="Group-2" transform="translate(72.000000, 10.000000)" stroke="#3E414C">
                    <polygon id="Star" fill="#D8D8D8" points="234.5 33.6887155 231.100813 38 233.95 33.2685529 229 31.2016261 234.160081 32.5887155 234.5 27 234.839919 32.5887155 240 31.2016261 235.05 33.2685529 237.899187 38"></polygon>
                    <polygon id="Star-Copy-5" fill="#D8D8D8" transform="translate(321.500000, 69.000000) rotate(-42.000000) translate(-321.500000, -69.000000) " points="321.5 69.8645204 318.718847 73 321.05 69.5589476 317 68.0557281 321.221885 69.0645204 321.5 65 321.778115 69.0645204 326 68.0557281 321.95 69.5589476 324.281153 73"></polygon>
                    <polygon id="Star-Copy-6" fill="#D8D8D8" transform="translate(80.500000, 13.000000) rotate(-42.000000) translate(-80.500000, -13.000000) " points="80.5 13.8645204 77.7188471 17 80.05 13.5589476 76 12.0557281 80.2218847 13.0645204 80.5 9 80.7781153 13.0645204 85 12.0557281 80.95 13.5589476 83.2811529 17"></polygon>
                    <polygon id="Star-Copy-3" fill="#3E414C" transform="translate(11.000000, 25.500000) rotate(-28.000000) translate(-11.000000, -25.500000) " points="11 27.1209757 6.05572809 33 10.2 26.5480267 3 23.7294902 10.5055728 25.6209757 11 18 11.4944272 25.6209757 19 23.7294902 11.8 26.5480267 15.9442719 33"></polygon>
                    <polygon id="Star-Copy" fill="#3E414C" transform="translate(175.500000, 10.000000) rotate(-28.000000) translate(-175.500000, -10.000000) " points="175.5 11.6640632 170.864745 17 174.603516 11.0248669 168 8.34752416 174.945942 9.99062566 175.5 3 176.054058 9.99062566 183 8.34752416 176.396484 11.0248669 180.135255 17"></polygon>
                    <polygon id="Star-Copy-2" fill="#3E414C" transform="translate(108.500000, 54.000000) rotate(3.000000) translate(-108.500000, -54.000000) " points="108.5 55.4263399 104.482779 60 107.723047 54.8784574 102 52.5835921 108.019817 53.9919649 108.5 48 108.980183 53.9919649 115 52.5835921 109.276953 54.8784574 112.517221 60"></polygon>
                </g>
                <text id="$" transform="translate(238.708764, 61.538692) rotate(-6.000000) translate(-238.708764, -61.538692) " font-family="Montserrat-Light, Montserrat" font-size="14" font-weight="300" fill="#3E414C">
                    <tspan x="234.208764" y="66.5386916">$</tspan>
                </text>
                <text id="$-copy" transform="translate(201.708764, 9.038692) rotate(-4.000000) translate(-201.708764, -9.038692) " font-family="Montserrat-Light, Montserrat" font-size="10" font-weight="300" fill="#3E414C">
                    <tspan x="198.208764" y="12.5386916">$</tspan>
                </text>
                <text id="$-copy-3" transform="translate(124.387038, 51.699065) rotate(-3.000000) translate(-124.387038, -51.699065) " font-family="Montserrat-Light, Montserrat" font-size="12" font-weight="300" fill="#3E414C">
                    <tspan x="120.387038" y="56.1990653">$</tspan>
                </text>
                <text id="$-copy-5" font-family="Montserrat-Light, Montserrat" font-size="12" font-weight="300" fill="#3E414C">
                    <tspan x="16.3870378" y="87.1990653">$</tspan>
                </text>
                <text id="$-copy-4" transform="translate(107.708764, 7.038692) rotate(-6.000000) translate(-107.708764, -7.038692) " font-family="Montserrat-Light, Montserrat" font-size="10" font-weight="300" fill="#3E414C">
                    <tspan x="104.208764" y="10.5386916">$</tspan>
                </text>
                <text id="$-copy-2" transform="translate(361.708764, 48.038692) rotate(8.000000) translate(-361.708764, -48.038692) " font-family="Montserrat-Light, Montserrat" font-size="10" font-weight="300" fill="#3E414C">
                    <tspan x="358.208764" y="51.5386916">$</tspan>
                </text>
                <g id="Group-2" transform="translate(266.000000, 38.000000)" fill-rule="nonzero">
                    <path d="M2.79614547,112.994351 C2.06971987,112.994351 1.35446996,112.706229 0.818032501,112.169533 C0.0524915777,111.39556 -0.204551291,110.237426 0.169837316,109.209229 C8.76959948,85.3064695 17.810805,73.1827818 27.0364108,73.1827818 C30.0818107,73.1827818 32.9260465,74.5047496 35.5020637,77.1034897 C39.5700473,81.2162784 39.7153325,85.3121188 39.1230162,88.0238477 C37.2566611,96.5431958 25.354456,104.887411 3.75167465,112.830517 C3.43875286,112.943506 3.11465527,113 2.79614547,113 L2.79614547,112.994351 Z M27.0419986,78.8265674 C24.2759932,78.8265674 21.0182536,81.2784222 17.6264045,85.9166084 C14.2904344,90.4757026 10.9377006,96.9725528 7.63525785,105.277222 C15.0950905,102.243476 21.0908961,99.1645337 25.5109169,96.0968905 C31.4731952,91.9558546 33.2389683,88.7526248 33.6692358,86.7979204 C34.0995034,84.8432159 33.4066051,82.9732529 31.5514256,81.0976405 C30.0426954,79.572293 28.5674926,78.832217 27.0364108,78.832217 L27.0419986,78.8265674 Z" id="Shape" fill="#E0634A"></path>
                    <path d="M108.966049,0.00564944825 C94.4654753,0.00564944825 81.5462744,2.49140083 70.5548954,7.39511054 C61.4969263,11.440106 53.7409355,17.1121388 47.4992627,24.2643236 C46.3369817,25.5975903 45.258519,26.9478052 44.2582867,28.3036697 C39.4415258,28.6256875 34.5130071,30.5634437 29.5956643,34.0660935 C25.4326865,37.0263974 21.252945,41.1278873 17.1626098,46.2519249 C10.2895055,54.8616639 6.06506091,63.3527648 5.88624846,63.7086792 C5.27716848,64.9459055 5.64038129,66.4486552 6.74678351,67.2565245 C7.23851775,67.6180883 7.81407041,67.7932208 8.38403518,67.7932208 C9.09928509,67.7932208 9.81453489,67.5163985 10.3565602,66.9740527 C10.3844997,66.9458056 13.0555109,64.2905711 17.609641,61.6861815 C21.3647029,59.5393961 27.1537566,57.0140987 34.1553823,56.5677933 C35.9267433,61.1494851 40.9949592,66.6294371 43.4256912,69.0869414 C45.8564232,71.5444456 51.2766762,76.6684833 55.8084547,78.4593542 C55.3670114,85.5380963 52.8692247,91.390911 50.7458266,95.1873314 C48.1642216,99.7972703 45.5435013,102.492051 45.5211498,102.514649 C44.554445,103.492001 44.4315113,105.039946 45.2305795,106.164184 C45.7726048,106.921208 46.621964,107.339266 47.4992627,107.339266 C47.9239423,107.339266 48.3486219,107.243226 48.7453621,107.039846 C49.097399,106.859064 57.4959973,102.588091 66.0119411,95.6392861 C71.0801571,91.5038996 75.1369649,87.2781223 78.0650191,83.0692931 C81.5295107,78.0921408 83.4405689,73.1149886 83.7646665,68.2451756 C85.1001721,67.2395761 86.4356778,66.1492352 87.7600076,64.9685032 C94.834276,58.6580842 100.444517,50.8166684 104.445446,41.6589342 C109.295734,30.5521448 111.754406,17.4850015 111.754406,2.8247175 L111.754406,0 L108.960461,0 L108.966049,0.00564944825 Z M17.3637737,55.4153085 C22.6890326,47.6021398 30.8305878,37.9133587 40.0059026,34.8683133 C36.3793623,41.2917209 34.5018314,47.1897311 33.8256967,50.9296571 C27.3493325,51.330767 21.7670308,53.2346266 17.3637737,55.4153085 L17.3637737,55.4153085 Z M56.9595599,95.4246077 C59.1164853,90.9728528 60.9996042,85.3347166 61.3907564,78.7926709 C65.0843514,78.1090892 70.9236961,76.2108791 77.2715387,72.5500451 C74.2540784,81.8094692 64.6764354,90.0406961 56.9539719,95.4246077 L56.9595599,95.4246077 Z" id="Shape" fill="#2D323B"></path>
                </g>
                <path d="M349.028163,53.7811957 C342.947969,53.7811957 338,58.7836622 338,64.9308238 C338,71.0779854 342.947969,76.080452 349.028163,76.080452 C355.108357,76.080452 360.056326,71.0779854 360.056326,64.9308238 C360.056326,58.7836622 355.108357,53.7811957 349.028163,53.7811957 Z" id="Shape" fill="#4D76C8" fill-rule="nonzero"></path>
                <path d="M307,88 C305.36,88 304,89.36 304,91 C304,92.64 305.36,94 307,94 C308.64,94 310,92.64 310,91 C310,89.36 308.64,88 307,88 Z" id="Path" fill="#3A3F4B"></path>
                <path d="M314,99 C312.36,99 311,100.36 311,102 C311,103.64 312.36,105 314,105 C315.64,105 317,103.64 317,102 C317,100.36 315.64,99 314,99 Z" id="Path" fill="#3A3F4B"></path>
                <path d="M325,107 C323.36,107 322,108.36 322,110 C322,111.64 323.36,113 325,113 C326.64,113 328,111.64 328,110 C328,108.36 326.64,107 325,107 Z" id="Path" fill="#3A3F4B"></path>
                <g id="Money-(1)" transform="translate(233.500000, 110.000000) rotate(64.000000) translate(-233.500000, -110.000000) translate(217.000000, 96.000000)" fill-rule="nonzero" fill="#187379">
                    <path d="M22.9946808,3.95092024 C24.5744681,6.61349693 26.3297872,9.61963189 27.7340425,11.9386503 C23.2579787,13.6564417 20.625,16.2331288 18.1675532,18.6380368 C15.7978723,20.9570552 13.7792553,22.9325153 10.0053192,24.1349693 C8.77659576,22.0736196 6.93351064,18.8957055 5.26595746,16.1472393 C9.7420213,14.4294478 12.375,11.8527607 14.8324468,9.44785274 C17.2021277,7.12883434 19.2207447,5.06748463 22.9946808,3.95092024 L22.9946808,3.95092024 Z M24.75,0 C11.9361702,2.31901841 12.8138298,11.6809816 0,14 L8.25000001,28 C21.0638298,25.6809816 20.1861702,16.3190184 33,14 L24.75,0 Z" id="Shape"></path>
                    <path d="M13.9432938,14.6792642 C14.7970997,16.3617855 16.0734227,17.5964533 17.2914463,17.9181437 C18.5094699,18.2398341 19.4841299,17.5996699 19.8482524,16.2388139 C20.2123749,14.8779578 19.9106358,13.0031758 19.0567062,11.3207358 C18.2029003,9.63821454 16.9265773,8.40354665 15.7085537,8.08185629 C14.4905301,7.76016593 13.5158701,8.40033011 13.1517476,9.76118614 C12.7876251,11.1220422 13.0893642,12.9968242 13.9432938,14.6792642 L13.9432938,14.6792642 Z" id="Shape"></path>
                </g>
                <g id="Money-(1)" transform="translate(384.802974, 125.947359) rotate(-4.000000) translate(-384.802974, -125.947359) translate(370.802974, 113.947359)" fill-rule="nonzero" fill="#187379">
                    <path d="M18.9251674,3.251701 C20.2253697,5.44306473 21.670039,7.91718505 22.8257744,9.82579217 C19.1418677,11.2395752 16.9748639,13.3602498 14.9523269,15.3395461 C13.0020234,17.2481532 11.3406537,18.8740037 8.23461482,19.8636518 C7.22334634,18.1671121 5.70644359,15.5516135 4.3340078,13.2895606 C8.01791444,11.8757776 10.1849183,9.75510303 12.2074553,7.77580674 C14.1577588,5.86719963 15.8191284,4.17065996 18.9251674,3.251701 L18.9251674,3.251701 Z M20.3698366,0 C9.82375099,1.90860712 10.5460856,9.61372472 0,11.5223318 L6.78994555,23.0446637 C17.3360312,21.1360566 16.6136965,13.4309389 27.1597822,11.5223318 L20.3698366,0 Z" id="Shape"></path>
                    <path d="M11.4756613,12.0813824 C12.1783638,13.4661372 13.2288078,14.4822982 14.2312701,14.747057 C15.2337324,15.0118158 16.0359008,14.4849455 16.3355822,13.3649287 C16.6352636,12.2449119 16.3869252,10.7019219 15.6841209,9.31723388 C14.9814184,7.93247901 13.9309743,6.91631808 12.928512,6.65155929 C11.9260497,6.38680049 11.1238814,6.91367079 10.8242,8.03368756 C10.5245185,9.15370433 10.772857,10.6966944 11.4756613,12.0813824 L11.4756613,12.0813824 Z" id="Shape"></path>
                </g>
                <g id="Money-(1)" transform="translate(305.454745, 168.443463) rotate(92.000000) translate(-305.454745, -168.443463) translate(291.454745, 156.443463)" fill-rule="nonzero" fill="#187379">
                    <path d="M18.9351689,3.25341945 C20.2360584,5.44594127 21.6814911,7.92136911 22.8378373,9.83098489 C19.1519838,11.2455151 16.9838347,13.3673104 14.9602289,15.3476527 C13.0088947,17.2572685 11.346647,18.8839782 8.23896664,19.8741493 C7.22716372,18.1767131 5.70945933,15.5598322 4.33629823,13.2965839 C8.02215173,11.8820537 10.1903008,9.76025839 12.2139067,7.77991609 C14.1652409,5.87030032 15.8274885,4.17286407 18.9351689,3.25341945 L18.9351689,3.25341945 Z M20.3806016,0 C9.82894263,1.90961577 10.551659,9.61880537 0,11.5284211 L6.79353389,23.0568423 C17.3451929,21.1472265 16.6224765,13.4380369 27.1741355,11.5284211 L20.3806016,0 Z" id="Shape"></path>
                    <path d="M11.4817259,12.0877671 C12.1847998,13.4732538 13.235799,14.4899518 14.2387911,14.7548505 C15.2417831,15.0197492 16.0443754,14.4926005 16.3442152,13.3719918 C16.644055,12.2513831 16.3955853,10.7075776 15.6924096,9.32215784 C14.9893358,7.93667116 13.9383366,6.91997321 12.9353445,6.65507449 C11.9323524,6.39017578 11.1297602,6.91732451 10.8299203,8.03793319 C10.5300805,9.15854187 10.7785502,10.7023473 11.4817259,12.0877671 L11.4817259,12.0877671 Z" id="Shape"></path>
                </g>
            </g>
        </g>
    </g>
</svg>