<?xml version="1.0" encoding="UTF-8"?>
<svg width="404px" height="201px" viewBox="0 0 404 201" version="1.1" xmlns="http://www.w3.org/2000/svg" xmlns:xlink="http://www.w3.org/1999/xlink">
    <!-- Generator: Sketch 41.1 (35376) - http://www.bohemiancoding.com/sketch -->
    <title>venda-sem-cadastro</title>
    <desc>Created with Sketch.</desc>
    <defs></defs>
    <g id="Symbols" stroke="none" stroke-width="1" fill="none" fill-rule="evenodd">
        <g id="venda-sem-cadastro">
            <g id="Group-4">
                <g id="cart" transform="translate(235.000000, 104.000000)">
                    <path d="M14.0495868,65.1157025 L70.6144276,65.1157025 L100,65.1157025 L100,20.4876033 L14.0495868,20.4876033 L14.0495868,65.1157025 Z M15.8390083,63.3445076 L98.3821582,63.3445076 L98.3821582,22.2618638 L15.8390083,22.2618638 L15.8390083,63.3445076 Z" id="Fill-1" fill="#2C313B"></path>
                    <path d="M14.8760331,23.7933884 C14.4210233,23.7933884 14.0495868,23.0266649 14.0495868,22.0634009 L14.0495868,6.51511145 C14.0495868,5.56264643 14.4210233,4.78512397 14.8760331,4.78512397 C15.3320746,4.78512397 15.7024793,5.56264643 15.7024793,6.51511145 L15.7024793,22.0634009 C15.7024793,23.0266649 15.3320746,23.7933884 14.8760331,23.7933884 Z" id="Fill-2" fill="#2C313B"></path>
                    <path d="M14.8760331,76.6859504 C14.4210233,76.6859504 14.0495868,75.9441118 14.0495868,75.0307618 L14.0495868,63.4651059 C14.0495868,62.5434903 14.4210233,61.8099174 14.8760331,61.8099174 C15.3320746,61.8099174 15.7024793,62.5434903 15.7024793,63.4651059 L15.7024793,75.0307618 C15.7024793,75.9441118 15.3320746,76.6859504 14.8760331,76.6859504 Z" id="Fill-3" fill="#2C313B"></path>
                    <path d="M40.4958678,83.7107438 C40.4958678,87.5975473 37.3578778,90.7355372 33.4710744,90.7355372 C29.5952506,90.7355372 26.446281,87.5975473 26.446281,83.7107438 C26.446281,79.83492 29.5952506,76.6859504 33.4710744,76.6859504 C37.3578778,76.6859504 40.4958678,79.83492 40.4958678,83.7107438 Z" id="Fill-4" fill="#363A43"></path>
                    <path d="M80.9917355,83.7107438 C80.9917355,87.5975473 77.8452249,90.7355372 73.9614566,90.7355372 C70.0886594,90.7355372 66.9421488,87.5975473 66.9421488,83.7107438 C66.9421488,79.83492 70.0886594,76.6859504 73.9614566,76.6859504 C77.8452249,76.6859504 80.9917355,79.83492 80.9917355,83.7107438 Z" id="Fill-5" fill="#363A43"></path>
                    <path d="M90.0178145,76.6859504 L15.7780992,76.6859504 C14.8264463,76.6859504 14.0495868,76.3155457 14.0495868,75.8595041 C14.0495868,75.4044944 14.8264463,75.0330579 15.7780992,75.0330579 L90.0178145,75.0330579 C90.9694674,75.0330579 91.7355372,75.4044944 91.7355372,75.8595041 C91.7355372,76.3155457 90.9694674,76.6859504 90.0178145,76.6859504 Z" id="Fill-6" fill="#2C313B"></path>
                    <path d="M71.9130617,25.0952004 C71.9130617,34.2285821 64.4812079,41.6280992 55.3079123,41.6280992 C46.1425977,41.6280992 38.7107438,34.2285821 38.7107438,25.0952004 C38.7107438,15.969765 46.1425977,8.57024793 55.3079123,8.57024793 C64.4812079,8.57024793 71.9130617,15.969765 71.9130617,25.0952004 Z" id="Fill-7" fill="#35919B"></path>
                    <path d="M54.6931949,37.3428222 C54.0140409,37.3428222 53.4673295,36.76137 53.4673295,36.0490911 L53.4673295,15.3736209 C53.4673295,14.661342 54.0140409,14.0798898 54.6931949,14.0798898 C55.373889,14.0798898 55.9267605,14.661342 55.9267605,15.3736209 L55.9267605,36.0490911 C55.9267605,36.76137 55.373889,37.3428222 54.6931949,37.3428222 Z" id="Fill-8" fill="#73B5B8"></path>
                    <path d="M54.6921344,36.7306397 C54.3800724,36.7306397 54.0680104,36.6097966 53.8281992,36.3711698 C53.3470396,35.8939161 53.3470396,35.1168491 53.8281992,34.6380657 L62.4337309,26.0704435 C62.9133533,25.5916601 63.6942768,25.5916601 64.1738992,26.0704435 C64.6550588,26.5476972 64.6550588,27.3247642 64.1738992,27.8035476 L55.5637557,36.3711698 C55.3239446,36.6097966 55.0103453,36.7306397 54.6921344,36.7306397 Z" id="Fill-9" fill="#73B5B8"></path>
                    <path d="M54.6953368,36.7306397 C54.3832532,36.7306397 54.0711696,36.6097966 53.8313417,36.3711698 L45.2190629,27.8035476 C44.7394073,27.3247642 44.7394073,26.5476972 45.2190629,26.0704435 C45.7002559,25.5916601 46.4812337,25.5916601 46.9608894,26.0704435 L55.5670188,34.6380657 C56.0466744,35.1168491 56.0466744,35.8939161 55.5670188,36.3711698 C55.3271909,36.6097966 55.0135699,36.7306397 54.6953368,36.7306397 Z" id="Fill-10" fill="#73B5B8"></path>
                    <path d="M14.1662806,6.43801653 L6.49487639,6.43801653 C5.64910407,6.43801653 4.95867769,6.06761177 4.95867769,5.61157025 C4.95867769,5.1565605 5.64910407,4.78512397 6.49487639,4.78512397 L14.1662806,4.78512397 C15.0139708,4.78512397 15.7024793,5.1565605 15.7024793,5.61157025 C15.7024793,6.06761177 15.0139708,6.43801653 14.1662806,6.43801653 Z" id="Fill-11" fill="#2C313B"></path>
                    <path d="M9.91735537,5.60640603 C9.91735537,8.34963618 7.6988093,10.5702479 4.95351347,10.5702479 C2.21854607,10.5702479 0,8.34963618 0,5.60640603 C0,2.87143863 2.21854607,0.652892562 4.95351347,0.652892562 C7.6988093,0.652892562 9.91735537,2.87143863 9.91735537,5.60640603 Z" id="Fill-12" fill="#363A43"></path>
                </g>
                <path d="M4.60449311,185.821327 C4.60449311,185.821327 60.8601672,164.143363 202.77423,191.649391 C344.688292,219.15542 383.398437,171.449219 383.398437,171.449219" id="Path-2" stroke="#2C313B" stroke-width="4"></path>
                <g id="Group-2" stroke="#3E414C">
                    <polygon id="Star" fill="#D8D8D8" points="311 33.6 307.473288 37.854102 310.429366 33.1854102 305.293661 31.145898 310.647329 32.5145898 311 27 311.352671 32.5145898 316.706339 31.145898 311.570634 33.1854102 314.526712 37.854102"></polygon>
                    <polygon id="Star-Copy-5" fill="#D8D8D8" transform="translate(397.212467, 69.180662) rotate(-42.000000) translate(-397.212467, -69.180662) " points="397.212467 70.0603737 394.567433 73.2509502 396.784491 69.7494313 392.932712 68.2197972 396.947963 69.246316 397.212467 65.1103737 397.47697 69.246316 401.492221 68.2197972 397.640442 69.7494313 399.8575 73.2509502"></polygon>
                    <polygon id="Star-Copy-3" fill="#3E414C" transform="translate(111.747180, 45.583585) rotate(-28.000000) translate(-111.747180, -45.583585) " points="111.74718 47.2452623 106.751005 53.2719067 110.938782 46.6579267 103.663199 43.7686178 111.247562 45.7075978 111.74718 37.8952623 112.246797 45.7075978 119.83116 43.7686178 112.555578 46.6579267 116.743354 53.2719067"></polygon>
                    <polygon id="Star-Copy-4" fill="#D8D8D8" transform="translate(7.262643, 86.295185) rotate(9.000000) translate(-7.262643, -86.295185) " points="7.26264301 87.5074859 3.61761096 91.9043122 6.67286443 87.0789867 1.36485727 84.9710492 6.8981398 86.3856604 7.26264301 80.6860571 7.62714622 86.3856604 13.1604288 84.9710492 7.85242159 87.0789867 10.9076751 91.9043122"></polygon>
                    <polygon id="Star-Copy" fill="#3E414C" transform="translate(251.785003, 9.636054) rotate(-28.000000) translate(-251.785003, -9.636054) " points="251.785003 11.3001176 247.236127 16.6360544 250.905225 10.6609214 244.424768 7.9835786 251.24127 9.62668011 251.785003 2.63605445 252.328736 9.62668011 259.145239 7.9835786 252.664781 10.6609214 256.333879 16.6360544"></polygon>
                    <polygon id="Star-Copy-2" fill="#3E414C" transform="translate(184.620282, 64.518195) rotate(3.000000) translate(-184.620282, -64.518195) " points="184.620282 65.9832324 180.615463 70.6809785 183.845727 65.4204855 178.140348 63.0633593 184.141581 64.509942 184.620282 58.3554117 185.098983 64.509942 191.100216 63.0633593 185.394837 65.4204855 188.625101 70.6809785"></polygon>
                </g>
            </g>
        </g>
    </g>
</svg>