<?xml version="1.0" standalone="no"?>
<!DOCTYPE svg PUBLIC "-//W3C//DTD SVG 20010904//EN"
 "http://www.w3.org/TR/2001/REC-SVG-20010904/DTD/svg10.dtd">
<svg version="1.0" xmlns="http://www.w3.org/2000/svg"
 width="304.000000pt" height="304.000000pt" viewBox="0 0 304.000000 304.000000"
 preserveAspectRatio="xMidYMid meet">
<metadata>
Created by potrace 1.11, written by Peter Selinger 2001-2013
</metadata>
<g transform="translate(0.000000,304.000000) scale(0.100000,-0.100000)"
fill="#000000" stroke="none">
<path d="M2423 2602 c-38 -31 -90 -75 -118 -97 -27 -22 -57 -47 -66 -55 -14
-13 -16 -65 -18 -415 -6 -833 -7 -934 -12 -940 -3 -2 -48 41 -100 97 -145 158
-212 229 -239 258 -14 14 -72 77 -130 140 -58 63 -116 126 -130 140 -14 14
-72 77 -130 139 -58 63 -116 126 -130 141 -14 15 -58 63 -99 108 -139 153
-247 203 -446 206 l-60 1 -3 -118 c-1 -64 1 -117 5 -118 4 0 32 -2 60 -5 142
-10 246 -109 272 -260 13 -77 13 -533 -1 -604 -24 -125 -100 -214 -213 -248
-16 -5 -106 -8 -200 -7 -189 2 -216 9 -284 70 -21 19 -41 32 -45 30 -3 -3 -4
-2 -1 2 3 3 -1 13 -9 22 -8 9 -22 39 -32 66 -16 44 -19 87 -20 347 -2 322 2
360 50 442 52 89 132 136 239 140 26 1 49 5 53 9 6 6 8 92 5 208 -1 25 -2 26
-73 23 -180 -7 -283 -47 -388 -154 -76 -78 -111 -137 -139 -240 -20 -71 -21
-95 -18 -425 2 -192 6 -357 9 -365 3 -8 9 -28 13 -45 39 -140 172 -282 317
-337 75 -28 118 -32 353 -32 211 1 303 12 289 36 -4 7 -3 8 4 4 7 -4 32 2 57
13 l45 20 0 -215 0 -215 63 53 c35 29 83 69 107 88 24 19 54 44 66 55 l23 20
6 495 c3 272 8 496 9 498 2 1 39 -39 83 -90 44 -51 86 -100 94 -108 8 -8 73
-82 143 -165 144 -168 134 -156 271 -320 55 -66 102 -122 105 -125 3 -3 38
-44 78 -93 46 -54 78 -85 85 -80 11 6 106 82 117 93 6 6 99 81 119 96 13 10
15 50 17 240 9 920 16 1399 20 1404 3 2 65 5 137 6 73 1 135 3 139 3 8 1 132
104 232 193 l31 27 -272 1 -272 0 -68 -58z m-2068 -1562 c3 -5 1 -10 -4 -10
-6 0 -11 5 -11 10 0 6 2 10 4 10 3 0 8 -4 11 -10z m25 -40 c6 -11 8 -20 6 -20
-3 0 -10 9 -16 20 -6 11 -8 20 -6 20 3 0 10 -9 16 -20z m78 -90 c34 -34 54
-56 44 -51 -18 10 -120 111 -111 111 3 0 33 -27 67 -60z m122 -90 c8 -5 11
-10 5 -10 -5 0 -21 10 -35 21 -24 20 -5 13 30 -11z m45 -28 c-3 -3 -11 0 -18
7 -9 10 -8 11 6 5 10 -3 15 -9 12 -12z m96 -27 c38 -12 39 -14 9 -8 -19 3 -48
12 -65 19 -34 15 -10 11 56 -11z m162 -22 c-18 -2 -48 -2 -65 0 -18 2 -4 4 32
4 36 0 50 -2 33 -4z"/>
</g>
</svg>
