<svg width="26" height="24" viewBox="0 0 26 24" fill="none" xmlns="http://www.w3.org/2000/svg">
<path d="M16.3636 1.09094H12V3.27276H16.3636V1.09094Z" stroke="#55595E" stroke-width="2" stroke-miterlimit="10"/>
<path d="M4.58182 16.8L8.94545 14.1818V12.4364L7.2 10.6909V8.07273L8.94545 6.32727H12.4364L14.1818 8.07273V10.6909L12.4364 12.4364V14.1818L16.8 16.8V19.4182H4.58182V16.8Z" stroke="#55595E" stroke-width="2" stroke-miterlimit="10"/>
<path d="M19.4182 6.32727H24.6545" stroke="#55595E" stroke-width="2" stroke-miterlimit="10"/>
<path d="M19.4182 9.81818H24.6545" stroke="#55595E" stroke-width="2" stroke-miterlimit="10"/>
<path d="M19.4182 13.3091H24.6545" stroke="#55595E" stroke-width="2" stroke-miterlimit="10"/>
<path d="M19.4182 19.4182H24.6545" stroke="#55595E" stroke-width="2" stroke-miterlimit="10"/>
<path fill-rule="evenodd" clip-rule="evenodd" d="M26 0.0909424H16.8V2.09094H26V0.0909424ZM26 21.9091H2.09088V2.09094H11.5636V0.0909424H1.09088H0.0908813V1.09094V22.9091V23.9091H1.09088H26V21.9091Z" fill="#55595E"/>
</svg>
