<svg width="26" height="25" viewBox="0 0 26 25" fill="none" xmlns="http://www.w3.org/2000/svg">
<path d="M17.1985 12.2806H23.752V11.5429L20.8393 1.95288H12.8294H4.8195L1.9068 11.5429V12.2806H8.46037" stroke="#55595E" stroke-width="2" stroke-miterlimit="10"/>
<path d="M1 15L7 15" stroke="#55595E" stroke-width="2" stroke-miterlimit="10"/>
<path d="M2 18H8" stroke="#55595E" stroke-width="2" stroke-miterlimit="10"/>
<path d="M3 21H10" stroke="#55595E" stroke-width="2" stroke-miterlimit="10"/>
<path d="M7.00403 8.59204H12.8294" stroke="#55595E" stroke-width="2" stroke-miterlimit="10"/>
<path d="M7.00403 5.64136H18.6548" stroke="#55595E" stroke-width="2" stroke-miterlimit="10"/>
<path d="M12.8295 18.1821C14.4381 18.1821 15.7422 16.861 15.7422 15.2313C15.7422 13.6016 14.4381 12.2805 12.8295 12.2805C11.2209 12.2805 9.91681 13.6016 9.91681 15.2313C9.91681 16.861 11.2209 18.1821 12.8295 18.1821Z" stroke="#55595E" stroke-width="2" stroke-miterlimit="10"/>
<path d="M18 15H24" stroke="#55595E" stroke-width="2" stroke-miterlimit="10"/>
<path d="M18 18H25" stroke="#55595E" stroke-width="2" stroke-miterlimit="10"/>
<path d="M12.8295 18.1821V24.8214" stroke="#55595E" stroke-width="2" stroke-miterlimit="10"/>
<path d="M15 21H26" stroke="#55595E" stroke-width="2" stroke-miterlimit="10"/>
</svg>
