<svg width="26" height="26" viewBox="0 0 26 26" fill="none" xmlns="http://www.w3.org/2000/svg">
<path fill-rule="evenodd" clip-rule="evenodd" d="M25 1.92309L22.5 1.9231L22.5 3.9231L25 3.92309L25 1.92309ZM25 23.0769L2 23.0769L2 3.9231L13.5 3.9231L13.5 1.9231L1 1.9231L3.99681e-06 1.9231L3.99654e-06 2.9231L4.02844e-06 24.0769L4.21028e-06 25.0769L1 25.0769L25 25.0769L25 23.0769Z" fill="#55595E"/>
<path d="M16 16.3462V1.96155H20V16.3462L18 18.3077L16 16.3462Z" stroke="#55595E" stroke-width="2" stroke-miterlimit="10"/>
<path d="M16.625 5.42316H18.9688" stroke="#55595E" stroke-width="2" stroke-miterlimit="10"/>
<path d="M13.6666 19.2051H2.83331" stroke="#55595E" stroke-width="2" stroke-miterlimit="10"/>
<path d="M2.83331 15.5192H9.49998" stroke="#55595E" stroke-width="2" stroke-miterlimit="10"/>
<path d="M2.83331 11.8333H9.49998" stroke="#55595E" stroke-width="2" stroke-miterlimit="10"/>
<path d="M2.83331 7.90173H9.49998" stroke="#55595E" stroke-width="2" stroke-miterlimit="10"/>
<path d="M2.83331 6.3291H9.49998" stroke="#55595E" stroke-width="2" stroke-miterlimit="10"/>
</svg>
